<svg version="1" xmlns="http://www.w3.org/2000/svg" width="1365.333" height="1365.333" viewBox="0 0 1024.000000 1024.000000"><path d="M762 11.7c0 .9-.3 1.4-.6 1-.8-.8-4.2 2.6-3.6 3.6.2.5-.4.8-1.4.6-2.5-.3-5.5 1.1-4.8 2.2.3.5-2 2-5.1 3.3-3.4 1.6-5.9 3.4-6.5 4.8-.5 1.3-.9 1.9-.9 1.5-.1-.4-.7-.2-1.5.5s-1.2 1.6-.9 2c.4.7-1.2 1.2-2.9.9-.5 0-.7.2-.7.7.3 1.6-.1 3.2-.8 3.1-2.1-.3-2.4.3-1.2 1.8 1.2 1.4 1.2 1.6 0 .8-1-.6-1.3-.4-.9.7.4.8-.2 2-1.4 2.7-1.1.7-1.7 1.5-1.4 1.8.3.4-.4 1.7-1.6 3-1.2 1.3-1.7 2.3-1.2 2.3 2.1.1-2.3 2-4.5 2-1.3 0-2.1.3-1.8.7.4.3.2 1.2-.4 2-.9.9-.8 1.3 0 1.3.9 0 .9.5.1 2-.6 1.1-.8 2-.4 2 .3 0-1.2 1.8-3.4 4.1-2.3 2.2-4.5 3.8-5 3.5-.4-.2-.7.8-.6 2.5.1 1.6-.2 2.6-.7 2.3-.5-.3-.9.2-.9 1.1 0 .8-1.1 2-2.5 2.7-1.3.6-2.3 1.4-2.1 1.7.2.3-.6 1.5-1.7 2.6s-1.6 1.4-1.2.6c.5-.9.4-1.2-.3-.7-.8.5-.9 1.3-.2 2.5.6 1.2.5 2.2-.3 3.1-.9 1-.9 1.1.1.6.8-.5 1.1-.2 1 .6-.2.7-1.4 1.8-2.8 2.5s-1.9 1.2-1.1 1.3c1.1 0 1.1.3.1 1.5s-1 1.5 0 1.5c.7 0 0 1-1.6 2.2-1.6 1.3-3.2 2.2-3.5 2.1-.4-.1-1 .4-1.3 1.3-.4 1-.2 1.3.7.8.9-.5.9-.4 0 .6s-1 1.7-.1 2.7c.8 1.1.7 1.2-.6.7-1.2-.5-1.9 0-2.3 1.5-.3 1.1-.9 2.1-1.4 2.1-.5 0-.9.5-.9 1.1 0 .5.4.8.9.4.5-.3 1.3-.1 1.6.5.4.6.3 1-.2.9-.4-.1-1.7-.1-2.8 0-1.5.1-1.7.3-.7 1 1.1.7 1.1 1.1-.1 2.2-.7.8-1.2 2-.9 2.8.3 1-.2 1.1-1.9.6-1.3-.3-1.9-.3-1.4.2.6.4 1 1.5 1 2.3 0 .8.4 1.8 1 2.2.6.5.2.8-.8.8s-1.5.5-1.2 1c.4.6 1.1.8 1.6.5.5-.4.9-.4.9 0 0 .3-1.1 1-2.5 1.5s-2.5 1.7-2.5 2.7c0 1.5-.2 1.6-1 .3-.8-1.2-1-1.1-1 .6 0 2.2-3.2 5.8-4.2 4.8-.4-.3-.9.4-1.3 1.5-.3 1.2-1.6 2.6-2.7 3.2-1.2.6-1.8.7-1.4.1.3-.5-.1-1.2-.9-1.6-.8-.3-1.4-.2-1.4.2.3 2.1-.3 2.4-1.7.6-.8-1-1.3-1.4-1-.7.4.7-.1 1.1-1.3 1-1.6-.1-1.8-.4-.8-1.6.9-1.1.9-1.3 0-.8-.6.4-1.3.2-1.5-.5-.4-1.2-3.8-2.1-3.8-.9 0 .4.6 1.3 1.3 2.1.6.8.2.6-1-.4-1.3-1.1-2.3-1.6-2.3-1.3 0 .3-1.2-.5-2.7-1.9-2.9-2.7-4.4-2.5-2.2.3.7 1 .2.8-1.2-.5-1.4-1.2-2.9-1.9-3.3-1.5-.4.4-1.1.2-1.5-.6-.6-1-1-.9-1.4.4-.5 1-.3 1.4.5.9.7-.4.8-.3.4.4-.5.9-1.4.7-3.2-.4-1.3-.9-2.4-1.3-2.4-.8 0 .4-.7-.1-1.6-1.2-.8-1-1.2-1.3-.8-.5.5 1 .3 1.2-.5.7-.7-.5-1-1.5-.7-2.5.6-1.4.5-1.4-.7.1s-1.4 1.5-2.5-.3c-1-1.5-1.9-1.8-3.5-1.3-2 .6-2.1.6-.7-1.2 1.3-1.7 1.3-1.8 0-.8-1.7 1.4-7.2 1.6-6.4.3.3-.5 0-.9-.5-.9-.6 0-1.1.5-1.1 1.2s-.5.6-1.2-.4c-1.7-2.1-3.9-2.7-6-1.6-1.3.6-1.8.5-1.8-.4-.1-.8-.7-.5-1.5.6-1.5 2-1.5 2-1.5 0 0-1.4-.2-1.6-.9-.6-.4.8-1.2 1.4-1.6 1.4-.4 0-1.2-.6-1.6-1.4-.6-.9-.9-.9-.9-.1 0 .6-.9 1.1-1.9 1-1.1 0-1.7-.5-1.4-1.1.4-.5-.1-.7-1.2-.2-1.5.5-1.6.4-.5-.9.7-.9.9-1.5.4-1.4-2.3.4-3.5-.2-2.8-1.4.5-.7.1-.7-1 .2-2.6 2.2-6.6 2.3-6.7.3 0-1.2-.3-1-1 .6-1 2.5-2.9 2.1-3-.6 0-1.2-.3-1.1-.9.5-1.1 2.7-4.2 2.1-3.3-.5.5-1.4.3-1.5-.8-.5-1.7 1.6-3.3 1.7-2.3.1.5-.8.2-.9-1.1-.4-1.6.6-1.6.4-.4-1.1.7-1 .9-1.5.5-1.1-.5.4-1.6.2-2.4-.5-1.3-1-1.5-.9-.9.8.7 1.9.6 1.9-.7.2-.7-.9-2-1.7-2.8-1.7-.8 0-1.9-.5-2.6-1.2-.9-.9-1.2-.9-1.3.2 0 1-.4.7-.9-.5-.6-1.5-.9-1.6-.9-.4-.1 1.2-.9 1.4-3.1 1.1-1.6-.2-3-.9-3-1.5s-.3-.7-.6-.4c-.4.4-.1 1.4.6 2.2.7.9.9 1.5.4 1.4-2.3-.4-4.5.2-3.9 1.1.3.6-.2.9-1.2.7-2.9-.4-4.5-1.8-3.9-3.3.4-1.2.2-1.2-1.4-.4-1.1.6-2 1.3-2 1.6 0 .3.5.2 1.2-.2s.8-.3.4.4c-.4.6-1.4.8-2.3.5-1.2-.5-1.4-.3-.8.8.5.8-.5.3-2.1-1.1-2.2-1.9-2.5-2-1.1-.3 1.1 1.2 1.4 2.4.9 2.7-.6.3-1.3-.1-1.6-1-.6-1.5-.8-1.5-2.7.2-1.5 1.3-2 1.4-1.7.4.2-.8-.2-1.4-.9-1.5-.6 0-1.5-.4-2-.9s-.3-.6.5-.2c.6.4 1.2.3 1.2-.2 0-1.2-6.9-2.1-7.6-1.1-.2.4-1.3.7-2.4.6-1-.1-1.7-.4-1.5-.7.8-1.3-6.1-.4-7.3 1-.8.8-1.1 1-.8.5.2-.6.1-1.7-.5-2.5-.7-1.2-.9-1.1-.9.4 0 2 0 2-1.5 0-1.4-1.8-1.5-1.8-.9 0 .6 1.6.4 1.7-1.4.7-1.3-.7-2.3-.8-2.7-.1-.7 1.1-3.3.9-5.2-.3-.9-.6-1.3-.2-1.3 1 0 1.5-.2 1.5-.9.3-.6-.8-.7-1.9-.5-2.5.3-.5-.2-.1-1 .9-1.2 1.5-1.6 1.6-1.6.5s-.2-1.1-.9-.1c-.7 1.1-1.1 1.1-2.3-.1-1.3-1.3-1.6-1.2-2.8.7-1.1 1.8-1.1 2 .1 1.1.8-.6.6-.2-.4.7-2.3 2.2-3.3 2.3-4.1.3-.3-.8-1.1-1.5-1.8-1.5-1 0-1 .2.1.9s1.1 1 0 1.7c-.7.4-1.4.3-1.7-.4-.2-.7-.9-.9-1.5-.5-1.9 1.2-3.7 1.2-3.7.2 0-.6-.5-.7-1-.4-.6.4-.7 1.1-.4 1.7.4.7.2.8-.5.4-.6-.4-.9-1.1-.7-1.5.3-.3-.4-.7-1.4-.7-1 0-1.6.4-1.4.8.3.4 0 .8-.5.8-.6 0-1.1-.5-1.1-1.1 0-.8-.6-.7-1.7.2-1.3 1.1-1.7 1.1-2 .1-.3-.6-1-.9-1.6-.5-2.4 1.5-4.7 1.3-4.8-.5 0-1.4-.2-1.4-.9.3-.5 1.1-.9 1.4-.9.7-.1-.6-.6-1.2-1.2-1.2-.5 0-.7.6-.3 1.2.5.8 0 .7-1.1-.2-1.1-.9-1.6-1-1.1-.3.7 1.2-.5 1.8-2.8 1.4-.5-.1-.5.6-.2 1.6.4.9.4 1.4 0 1-.4-.4-1.3-.2-2 .4-.8.7-1.4.6-2-.2-.4-.7-.3-.9.4-.5.6.3 1.3.2 1.7-.3.3-.6-.6-.8-2.1-.5-1.4.3-3.2 0-3.9-.6-1-.8-1.5-.8-2.1.1-.4.8-.3.9.4.5s1.2-.2 1.2.4c0 .7-.8.9-2.2.4-1.3-.4-4.2-.8-6.6-.9-3.3 0-4.1.3-3.7 1.4.4 1.1.3 1.1-.9.2-1.2-1-2.2-.7-5.4 1.3-2.9 1.8-4.2 2.2-5.1 1.3-1.7-1.7-4.8-1.8-6.1-.2-.9 1.1-1.6 1.2-2.5.5-.9-.7-1.6-.5-2.6.7-1.3 1.7-1.3 1.7.6.3 2-1.5 2-1.4.1.8-2 2.3-3.2 3-2.1 1.2.3-.6.1-1-.5-1s-.8-.5-.4-1.2c.5-.7.3-.8-.5-.4-.7.5-1 1.5-.6 2.4.4 1.2.1 1.2-1.6-.4-1.2-1-1.9-1.4-1.6-.8 1 1.6-1.8 2.5-3.3 1.1-1-.9-1.4-.9-1.7 0-.2.7-1.1.9-2 .6-1-.4-1.4-.2-.9.5.3.6.2 1.3-.4 1.7-.5.3-1 .1-1-.4 0-.6-.5-1.1-1.1-1.1-.5 0-.7.4-.4 1 .3.5-.1 1-1 1s-1.4.4-1.1.8c.2.4-.7.9-2.1 1-1.4.1-3.2.7-4 1.4-1 .8-1.7.8-2.6-.1-.9-1-.8-1.1.8-.6 1.5.5 1.7.4.6-.3-1.5-1.1-4.1-.5-4.1.8 0 .9-4 2.1-8.8 2.6-1.8.1-3.7.6-4.2.9-.5.3-.7 0-.4-.8.3-.8-.1-1.4-1-1.4-.8 0-1.5.3-1.4.6 0 .3 0 1.3-.1 2.1-.1 1.3-.2 1.3-1.1 0-.8-1.3-1-1.3-1 .2 0 1.4-.5 1.5-2.9.8s-2.9-.5-2.4.6c.3.8 0 1.4-.6 1.4s-1.1-.4-1.1-1c0-.5-1.1-.9-2.4-.8-1.3.1-2.2.7-1.9 1.3.2.7-.4 1.8-1.4 2.6-1.6 1.3-1.7 1.2-.4-.4 1.2-1.5 1.2-1.7-.3-1.1-.9.3-1.6 1-1.6 1.5s-.5.9-1.1.9c-.5 0-.7-.5-.4-1 .3-.6-.1-1-1-1-1 0-1.4.5-1 1.2.4.7-.1.4-.9-.6-1.4-1.7-1.6-1.8-1.6-.3 0 .9-.4 1.7-1 1.7-.5 0-.7-.8-.4-1.8.3-.9-.3-.4-1.3 1.3-1 1.6-2.4 3.1-3.1 3.3-.8.1-1.1-.2-.7-.8.3-.5-.1-1-.9-1s-1.8.5-2.2 1.2c-.5.7-.3.8.7.3 1.2-.8 1.2-.6 0 .9-.8.9-2 1.5-2.7 1.2-.7-.3-1.6-.1-1.8.3-.3.5-1.9.7-3.6.5-1.9-.2-2.9 0-2.5.6.3.6-.1.7-1 .3-1.4-.5-1.4-.8-.3-1.5.8-.6 0-.7-2.2-.2-1.9.3-3.9 1.2-4.3 1.8-.6.7-.7.4-.3-.7.4-1.4.1-1.6-1.9-1.1-1.6.4-2.5.2-2.5-.6 0-.6-.4-.8-1-.5-.6.4-.7-.1-.3-1.1.5-1.4.3-1.6-1.2-1.1-1.5.6-1.6.5-.5-.8 1-1.2.9-1.5-.6-1.5-1.1 0-2.4-1-2.9-2.3-.6-1.2-1.6-2.1-2.3-2-.7.2-1.2-.2-1.2-.7 0-.6.5-1 1.2-1 .6 0 .8-.3.5-.6-.4-.4-1.3-.1-2.2.6-1.3 1.1-1.4 1-.9-.6.7-1.8.7-1.8-1.5 0-1.5 1.4-2 1.5-1.6.5.4-1-.1-1.5-1.5-1.6-1.1-.1-2 .3-2 .8 0 .6.6.7 1.3.3.6-.4.9-.3.4.1-1.3 1.5-4.6 1.3-4-.2.3-.7.1-1.3-.5-1.3-.5 0-1.3-.7-1.6-1.6-.3-.8-.2-1.2.4-.9.6.3 1 .1 1-.4 0-.6-.6-1.1-1.4-1.1-.7 0-2-.8-2.7-1.8-1.3-1.5-1.2-1.6.4-.3 1.5 1.2 1.7 1.2 1.1-.3-.3-.9-1.5-1.6-2.5-1.6-1.1 0-1.9-.7-1.9-1.6 0-1.1-.5-1.4-1.6-1-1.2.5-1.4.1-.8-1.6.6-2.1.5-2.2-1.1-.8-1.1.9-1.6 1-1.1.2.4-.6.3-1.2-.1-1.2-.5 0-1.7-1.6-2.7-3.5-1.1-1.9-2.1-3.3-2.4-3-.3.2.1 1.1.8 2 1.9 2.3.3 1.8-2-.7-1.1-1.2-1.9-2.7-1.6-3.3.2-.6-.6-1.2-1.7-1.3-1.7-.1-1.9.1-.7.8 1.1.7 1 .9-.7.7-1.2 0-1.9-.5-1.6-1.1.4-.5-.1-.7-1.1-.3-1.4.5-1.5.3-.6-1.2.8-1.7.6-1.9-1.3-1.7-1.4.2-2.4-.2-2.4-1 0-.7.5-1.1 1.1-.8.6.3.2-.2-.8-1-1.8-1.4-2.1-1.4-3.9.2-1.6 1.3-1.9 1.4-1.5.2.9-2.5-2-5-4.7-4-2.5 1-3.6.4-2.9-1.3.2-.7-.8-1.7-2.2-2.4-2.1-1-2.4-1-1.4.2.8 1 .8 1.5-.2 2.1-.7.4-1 .4-.6 0 .8-1-1.4-3.6-2.4-2.9-.4.2-.5-.3-.2-1.1.3-.9.2-1.6-.4-1.6-.6 0-1.2.5-1.4 1.1-.5 1.4-7.3-.5-8.4-2.3-.4-.6-.2-.8.4-.4.6.3 1.3.2 1.6-.2.6-1-4-1-5 .1-.8.7-6.4-2.3-6.4-3.5 0-.4-.5-.8-1.1-.8-.5 0-.8.4-.5.8.2.4-.4.8-1.5.8-1 0-1.9-.4-1.9-.9 0-.4-.6-.5-1.3-.1-.9.6-.9.5 0-.7.9-1.1.7-1.4-1.5-1.6-1.4 0-3.1-.8-3.7-1.6-1.2-1.7-6.2-1.5-7.9.4-.8.9-.8 1 .3.4s1.3-.4.7 1c-.6 1.6-.4 1.6 1.1.4 1.1-.9 1.4-1 .9-.2-.4.7-.3 1.3.2 1.3.6 0 .8.9.5 2-.3 1.2 0 2 .6 2 .7 0 .9.4.6 1-.3.5.2 1 1.1 1 1.4 0 1.5.3.6 1.2-1.8 1.8-1.4 3.2.5 1.7 1.5-1.3 1.5-1.2.4.8-1 1.9-.9 2.2.4 1.7.8-.4 1.5-.2 1.5.4 0 .6-.5 1.2-1.1 1.4-.6.2.6 1 2.6 1.8 2.7 1.1 3.5 1.9 3.2 3.2-.3 1-.1 1.5.4 1.2 1.2-.7 7 4.7 6.3 5.8-.3.4.2.8 1.1.8 1 0 1.3.5.9 1.2-.5.8-.2.9 1 .5.9-.4 1.4-.3 1.1.2-.3.5-.1 1.2.5 1.6.5.3 1 .1 1-.6s.2-1 .5-.7c.9.8-.6 3.8-1.6 3.2-.5-.3-.6.2-.3 1 .3.9 1.1 1.3 1.7.9.7-.4.8 0 .3 1.2-.6 1.6-.4 1.6 1.1.4 1-.7 1.5-1 1.1-.5-.4.5.9 2.4 2.8 4.2 1.9 1.9 3.2 3.8 3 4.3-.3.5.2.8 1.2.7 1.1-.1 1.6.6 1.5 1.7 0 1.1.4 1.6 1.2 1.3.7-.2 2.5.9 3.9 2.5 1.5 1.6 3.2 2.7 3.8 2.3.7-.5.8-.3.4.5-.5.7 0 2.1.9 3.1 1.6 1.7 1.6 2 .2 2.5-.9.4-1.3 1.4-1 2.6.3 1 .9 1.6 1.4 1.3.5-.3.9.2.9 1 0 .9.5 1.6 1 1.6.6 0 1 .9 1 2s-.4 2-1 2c-.5 0-.1 1.3.8 3 1.4 2.5 1.8 2.7 2.4 1.2.4-.9.5.7.3 3.6-.3 4.4-.1 5.3 1 4.8.8-.3 1.9.3 2.5 1.4.9 1.7.8 1.9-.7 1.3-1.6-.6-1.6-.4.1 1.5 1.1 1.2 1.5 2.2 1 2.3-.5 0 .1.4 1.4.9 1.2.5 2.2 1.6 2.2 2.5 0 1.3 1.7 2 4.1 1.7.4-.1.4.8.1 2-.3 1.4-.1 1.9.6 1.4.8-.4 1.2 0 1.2 1.1 0 1.4.2 1.5.9.5.6-1 1-.9 1.4.7.3 1.2 0 2.1-.5 2.1-.6 0-.6.6.2 1.5 1 1.2.8 1.3-1 1-1.8-.3-2-.2-1 1 .7.8 1.1 1.5.9 1.6-.2 0-1.1.2-2 .4-2.1.4-5.9 4.1-5.2 4.9.4.3.1.6-.6.6s-1 .4-.6.9c.3.5 0 1.3-.6 1.7-.8.5-.9.3-.4-.6.5-.8.3-1.1-.6-.8-.8.3-1.3 1.3-1.1 2.3.2 1.2-.1 1.5-1 .9-1-.6-1-.5-.2.7.9 1.1.9 1.7-.1 2.6-.7.6-1.6.9-2.1.5-.4-.4-.4.1-.1 1 .3 1 .1 2-.5 2.4-.7.4-.8.3-.4-.4s.2-1.2-.3-1.2c-1 0-1.5 1.4-1.2 3.2 0 .5-.2.7-.7.7-2.2-.4-3.4.3-2.9 1.5.4 1.1.1 1.3-1 .9-.9-.4-1.4-.2-1.1.3.8 1.4-2.6 4.1-5 3.9-1.2-.1-2.2.6-2.5 1.7-.3 1-.1 1.8.5 1.8.5 0 .6.5.3 1-.4.6-1.1.8-1.6.5-.5-.4-.9.1-.9.9 0 .9-.4 1.6-1 1.6-.5 0-1 .8-1 1.7 0 1.3-.2 1.5-.8.5-.6-.9-1.3-.7-2.8 1-1.2 1.5-1.3 1.9-.4 1.3.9-.6.6-.1-.6 1-2.1 1.8-2.1 2.2-.8 4 1.4 1.8 1.3 2.2-1.3 4.4-1.5 1.3-2.2 2-1.4 1.6.9-.5 1.2-.4.7.3-.4.6-1.4.8-2.3.5-1-.4-1.4-.2-1 .4.7 1.2-3.2 1.1-5.1-.1-.8-.5-1.2-.3-1 .6.2.7-.2 1.2-.8 1.1-.7-.1-1.5.9-1.8 2.2-.4 1.4-1.1 2.5-1.7 2.5-.6 0-.7-.5-.3-1.2.4-.7.3-.8-.4-.4-.6.4-.9 1.3-.6 2.1.4.8 1 1.3 1.4 1 .5-.3 1.2 0 1.6.6.4.8.3.9-.4.5-1.6-1-6.5 4.1-5.6 5.7.5.7 0 .6-1.2-.3-1-.8-1.6-1.1-1.2-.6.4.5.3 1.7-.2 2.7-.7 1.2-.7 2 0 2.4.6.4.9.3.8-.2-.2-.4 0-.9.5-1.1.4-.1.6.1.5.5-.6 3.2-1.1 4.2-1.9 3.7-.5-.3-.9-.1-.9.5 0 .5.6 1.2 1.3 1.5.6.3 0 .3-1.4 0-1.9-.4-2.8-.1-3.3 1.1-.3.9-.4 2-.1 2.4.4.7-.9 1.1-4.6 1.2-1.6 0-8 5.9-6.5 5.9.5 0 .3.7-.4 1.5s-.9 1.5-.4 1.5-.4 1.1-2.1 2.5c-1.6 1.3-2.4 2.4-1.7 2.5.7 0 1 .5.7 1-.4.6-1.1.7-1.7.4-.6-.4-.6.1.1 1.4 1 1.8.8 2-.7 1.7-1.5-.3-1.8.2-1.6 2.2.4 3.6-.5 5.6-2.1 4.3-1.6-1.4-2.8 0-1.3 1.7.9 1.1.7 1.2-.7.7-1.3-.5-1.6-.4-1.1.4.4.8 0 1.2-1.1 1.3-1 0-1.3.3-.5.6.6.2 1.2.9 1.2 1.4 0 .6-.4.7-1 .4-.6-.4-.7.1-.3 1.1.5 1.4.3 1.6-1.2 1.1-1.5-.6-1.6-.5-.6.7.9 1 .9 1.6.1 2.1-.6.4-.9 1.4-.6 2.2.3.8.2 1.1-.3.8-.5-.3-1.2-.1-1.6.5-.4.6-1.1.7-1.7.4-.7-.4-.8-.2-.4.5.4.6 1.2.9 1.7.6.5-.3.6.1.3.9-.3.9-1 1.6-1.6 1.6-.5 0-.6.5-.2 1.2.5.8.2.9-1.1.4-1.5-.5-1.6-.4-.6.8.9 1 .9 1.6.1 2.1-.6.4-.9 1.4-.5 2.2.4 1.3.3 1.3-.8.4-1.2-.9-1.4-.7-1.3 1.1.1 2.7-3.4 8.9-4.6 8.2-.4-.3-.5.3-.1 1.2.5 1.3.3 1.5-.8.9-1.1-.7-1.1-.5.1 1 1.4 1.7 1.3 1.8-.4 1.2-1.7-.7-1.7-.6-.5 1 .9 1.1 1 1.4.2.9-.8-.4-1.3-.2-1.3.4 0 .6-.4.9-.9.6-.5-.4-.7.3-.4 1.4.3 1.1.9 1.8 1.3 1.5.5-.3.6.4.3 1.5s-.9 1.7-1.4 1.4c-.5-.3-.9.2-.9 1.1 0 .9-.4 1.3-1 1-.5-.3-1 .1-1 .9 0 .9-.6 1.6-1.4 1.6-.8 0-1.8.5-2.2 1.2-.5.7-.3.8.6.3.9-.5 1-.2.5 1.4-.4 1.4-.2 2.1.6 2.1 1.5 0 .2 1.5-1.4 1.5-.7.1-1.1.6-.9 1.3.1.7-.2 1.2-.7 1.2-.5 0-.8.8-.7 1.7 0 1-.5 1.7-1.2 1.5-.8-.1-1.1.2-.7.8.3.6 1.1.8 1.6.5.5-.4.9.3.9 1.4 0 1.2-.7 2.1-1.6 2.1-.8 0-1.3.4-.9.9.3.5.1 1.2-.5 1.6-.5.3-1 .1-1-.6s-.3-.9-.6-.6c-.4.4-.1 1.4.7 2.3 1.1 1.4 1.1 1.8-.1 2.8-2.4 1.9-3.8 5.1-3 6.7.9 1.5-2.2 6.3-3.3 5.2-.8-.7.2 4.7 1 6 .3.6.1.7-.5.3-.7-.4-1.2-.1-1.2.9 0 .8-.7 1.8-1.5 2.1-1.1.5-1.3 1-.5 1.9.8.9.7 1.5-.2 1.8-1 .4-1 .8.2 1.6s1.2 1.1.1 1.1c-1.1 0-1.1.3-.1 1.5s1 1.5 0 1.5c-.9 0-.9.4-.2 1.2 1.1 1.4-1 4.3-2.2 3.1-.3-.4-.6.9-.6 2.8s-.6 4.1-1.2 4.8c-1.1 1.1-1 1.3.2.7.8-.4.4.2-1 1.4s-1.8 1.9-1 1.5c.8-.4.6.1-.4.9-1.1.9-1.5 1.6-.9 1.6s1.4.7 1.7 1.6c.3.8.2 1.2-.4.9-.6-.3-1 .1-1 1s.4 1.4.8 1.1c.5-.3.9.1.9.9s-.4 1.2-.8.9c-.9-.5-.4 7 .7 8.7.4.8.3 1-.4.5-1.4-.8-1.2 2 .2 4.3.7 1 .6 1.2-.4.6s-1.2-.4-.7.8c.4 1 .1 1.7-.6 1.7s-.4.5.6 1.1c1.2.7 1.5 1.5.9 2.2-.7 1.1-.9 9.4-.2 12.2.5 2.1 0 3.5-1.2 3.3-.7-.2-1.2.3-1 .9.1.7-.2 1.3-.8 1.3-.5 0-.7.7-.3 1.6.3.9 0 2-.8 2.5-1 .6-1 .9-.2.9.7 0 1 .7.6 1.6-.3.8-1.2 1.3-2.1.9-1.2-.4-1.3-.3-.2 1 1 1.2 1 1.5-.1 1.5-.9 0-.7.5.5 1.1 1.4.9 2 .8 2.6-.1.4-.7.7.4.6 2.3 0 1.9-.4 3.3-.7 3.1-.4-.2-1 .3-1.3 1.2-.3.8-.2 1.3.3 1 .5-.3.9.6.9 1.9 0 1.4-.5 2.8-1 3.1-.5.3-.5 1.1 0 1.7.5.7.9 2.3 1 3.7.1 1.4.6 2.6 1.2 2.8.5.2 1 1 1 1.8s.7 1.1 1.8.8c1.5-.5 1.5-.4-.1.6-1.5 1-1.6 1.4-.5 2.7 1.2 1.5 1.1 1.5-.9.4-1.9-1-2.2-.9-1.7.4.4.8.1 1.5-.6 1.5-.9 0-.9.4.1 1.7 1.2 1.4 1.2 1.5 0 .9-1-.7-1.2-.3-.6 1.3.4 1.4.2 2.1-.6 2.1-.7 0-.9.3-.6.6.4.4 1.4.1 2.3-.7 1.6-1.3 1.6-1.2.5.8-.9 1.8-.9 2.2.2 1.7 1-.4 1.3.5 1.2 3.3 0 2.1.4 4.4 1 5.2.7 1.1.7 1.3-.1.8-.6-.3-1.1 0-1.1.8s.2 1.3.5 1c1.3-1.2 3.3 2.9 3.1 6.3-.2 2.1 0 4.3.5 5 .4.7.3 1.2-.1 1.2-.5 0-.9 1-1 2.2 0 1.3.1 1.7.4 1 .3-.6.9-1.2 1.4-1.2.6 0 .8.4.5.9-.3.5 0 1.4.8 2 1.4 1.2 1.6 3.5.3 4.7-.4.4-.1 1.4.6 2.2.8 1.1.8 1.4 0 .9-.6-.4-1.5-.2-1.9.4-.5.8-.3.9.5.5.8-.5 1.4 0 1.8 1.3.3 1.2.9 2.1 1.4 2.1.5 0 .9.9.9 2s.5 2 1 2c.6 0 1 .7 1 1.6 0 .8.3 1.3.8 1.1.4-.3.8.6.8 1.9.1 1.3-.1 2.2-.5 1.9-.4-.2-.8.2-.8 1s.5 1.5 1.1 1.5c.6 0 .4.5-.4 1-1.1.7-1.1 1-.2 1 .7 0 1.2.6 1 1.4-.2.8.6 2.2 1.7 3 1.7 1.4 1.8 1.7.5 2.6-1 .6-1.1 1-.2 1 .6 0 1.2.5 1.2 1.1 0 .5-.6.7-1.3.4-.6-.4-.3 0 .7.9 1 .8 2.4 1.7 3 1.9.8.3.7.9-.2 1.9-1 1.3-1 1.7 0 2.2 1 .5 1 .7.1 1.2-.7.3-1.3 1-1.3 1.5 0 .6.6.7 1.3.3.7-.5.6 0-.3 1.1-.9 1.1-1 1.6-.2 1.1 1.6-.9 1.6.6 0 2.3-1 1.1-1 1.3 0 .7.6-.4 1.2-.2 1.2.3 0 .6-.6 1.1-1.2 1.1-.8.1-.6.6.5 1.4 1.7 1.3 2.5 3.2.9 2.2-.5-.3-.9.1-.9.9s.2 1.3.5 1c.3-.2 1.4.1 2.6.7 1.1.7 2.4 1.2 2.7 1.1.3-.1.5.8.4 2.1-.3 1.9.1 2.3 1.8 1.8 1.4-.3 1.8-.1 1.3.6-.4.7-.2 1.2.4 1.2.8 0 .8.6 0 2-.9 1.6-.7 2.2.7 2.7 2.5.9 3.4 2.6 2 3.5-.8.5-.5.8.8.8 1.7 0 1.7.2.5 1s-1.2 1 .5 1 1.7.2.5 1c-1.3.8-1.2 1 .3 1 1.2 0 1.6.4 1 1.2-1.1 1.7-1.2 6.8-.1 6.2.5-.3.6-1 .3-1.5s.1-.6 1-.3c.9.4 1.3.9 1.1 1.2-.3.3-.1 1.1.5 1.9.9 1 .8 1.3-.5 1.3-1 0-1.4.5-1.1 1 .4.6 1.2.7 1.8.3.7-.4.5.2-.3 1.2-1.4 1.7-1.4 1.8.9.5 2.1-1.1 2.3-1 1.8.3-.7 1.7 1.2 2.7 5.1 2.7 2.1 0 2.4.2 1.2 1s-1.2 1-.1 1c.8 0 1.1.7.8 1.9-.3 1.4.2 2.1 1.7 2.5 2.1.6 2.1.6.1 2.2-1.9 1.6-1.9 1.6.5.9 2.2-.7 2.3-.6 1.1.9-1.3 1.6-.6 2.1 2.1 1.7.4 0 .5.5.3 1.2-.3.6-.1 2.5.4 4.2.5 1.6 1 2.4 1 1.7.1-1 .4-1 1.5 0 .9.9 1.1 1.7.4 2.5-.7.8-.3 1 1.4.5 2-.5 2.1-.3 1 1-1 1.3-1 1.8-.1 2.4.8.4.9.3.5-.4-.5-.8-.1-1 1-.5 1.4.5 1.3.8-.7 2-1.3.8-1.6 1.2-.6.9 1-.3 2 0 2.3.9.4.8 1.1 1.2 1.7.8.7-.4.8 0 .3 1.2-.5 1.5-.4 1.6.8.6 1.2-1 1.4-.9 1.1.6-.1 1 .9 3 2.2 4.5 1.7 1.7 2.3 3.3 1.9 4.4-.5 1.3-.4 1.4.7.6 1-.8 1.3-.6 1.4.9.1 1.2-.2 1.7-1 1.2-.7-.3-.4.3.6 1.4.9 1.1 1.4 2.4 1 2.8-.5.5.1.3 1.1-.5 1.1-.8 1.7-1.1 1.4-.5-.7 1.2 1.7 3.7 2.6 2.7.4-.3.4.2 0 1.3-.6 1.4-.4 1.7.9 1.2 1.2-.4 1.4-.2 1 1-.4 1-.2 1.4.4 1 .6-.4 2.1.5 3.3 2 1.2 1.6 2.7 2.8 3.3 2.8.7 0 1.1.8.9 1.8-.2.9.2 1.7.7 1.7.6 0 .8.7.5 1.5-.9 2.2 2 4.7 3.6 3.2 1-.9 1.1-.9.6 0-.5.9.1 1.3 1.8 1.3 2.9 0 3 .3 1.6 3.1-.9 1.6-.7 2.1 1.5 2.9 1.4.5 2.5 1.7 2.5 2.7 0 1.5.2 1.6 1 .3.8-1.2 1-1 1 .8 0 1.6.4 2.1 1.3 1.6.9-.6.9-.4-.1.7-1.6 1.8-1.5 3.2.2 2.6 1.6-.6 2.8 1.6 2 3.7-.3.8.3 1.5 1.3 1.8 1 .3 1.9 1.5 2 2.7.1 1.4-.3 1.9-1 1.5-.7-.3-.4.1.5.9 1 .8 1.5 1.7 1.1 2-.3.4.3.7 1.5.7s2.2.5 2.2 1.1c0 .5-.4.7-1 .4-.5-.3-1 .1-1 .9s.9 2 2 2.6c1.1.6 1.8 1.5 1.5 2.1-.4.5-.1.9.6.9s.4.7-.7 1.6c-1 .8-1.3 1.3-.6.9 1.5-.8 3.6 1.2 4.4 4.3.4 1.5.3 2-.5 1.5-.7-.4-.5.2.3 1.2.9 1.1 1 1.6.3 1.1-.7-.4-1.3-.2-1.3.4 0 .6.7 1.3 1.5 1.6.9.4 2 1.5 2.6 2.6.6 1.1.7 1.8.2 1.5-.5-.3-.9.3-.9 1.4 0 1 .4 1.9.8 1.9s.8.5.8 1.1c0 .5-.4.8-.8.5-.5-.3-.9.1-.9.9s.4 1.5.9 1.5.6.5.2 1.2c-.4.7-.3.8.5.4.6-.4 1.3 0 1.7 1.1.3 1 .9 2.5 1.3 3.3 1 1.9.2 4.2-1.1 3.4-.6-.4-.5.2.1 1.5.7 1.1.9 2.1.5 2.1-.3 0-.1.6.5 1.4.9 1.1.9 1.6 0 2.2-.8.5-.9.3-.4-.6.5-.9.4-1.1-.4-.6-.9.6-.9 1.1.1 2.3.7.9 1.1 1.9 1 2.2-2.1 3.6-2.2 4.1-.5 4.1 1.5 0 1.5.1-.2 1.3-1.4 1.1-1.5 1.6-.5 2.2.9.6 1.1.4.5-.6-.5-.8-.4-1.1 0-.6 1.3 1.2 1.4 4.8.1 3.8-.7-.6-1.1-.2-1.1 1.4 0 1.5.4 2.1 1.4 1.7.8-.3 1.2-.1.8.5-1.1 1.8-1.6 6.3-.6 6.3.6 0 .7.5.4 1-.4.6-1.2.7-1.8.3-.7-.4-.5.1.3 1.1 1.6 2.1 2.3 4.9.9 4-.5-.3-.6-1.1-.3-1.7.4-.7.3-.9-.1-.4-.5.4-.9 1.8-1 3.1 0 1.6.4 2.2 1.3 1.8 1-.4.9.3-.4 2.4-1.1 1.5-1.3 2.5-.6 2.1.7-.5 1.2-.3 1.2.7s-.6 1.3-1.5 1c-.8-.4-1.5-.1-1.5.6 0 .6-.4.8-1 .5-.5-.3-1-.2-1 .3 0 .6.7 1.3 1.6 1.6 1.3.5 1.4.9.4 2.1-.7.8-.9 1.5-.5 1.5s.2.6-.4 1.4c-.8 1-.9 1.6-.1 2.1.5.3 1 1.1 1 1.6 0 .6-.6.7-1.2.3-1-.6-1-.5-.1.7.6.8 1.1 1.8 1.1 2.2 0 .5.4 1.2.8 1.5.4.4.4.1-.1-.7-.5-.9-.4-1.2.2-.8.6.4 1.1 2.5 1.1 4.7s.4 4.5.8 5.1c.4.8.3.9-.4.5s-1.2-.2-1.2.3c0 .6.5 1.1 1 1.1.7 0 .7.6 0 2-.8 1.5-.8 2 .2 2 .9 0 .9.3-.2 1-1.2.7-1.2 1-.1 1 .8 0 1.1.6.7 1.6-.5 1.3-.4 1.4.7.6.8-.7 1.8-.8 2.3-.4.4.4.2-.1-.5-1.1-.7-.9-.9-1.7-.4-1.7s1-.7 1-1.5-.4-1.5-.9-1.5-.5-.8 0-1.7c.4-1 .8-3.4.7-5.3-.1-3.4 1.7-8.5 2.7-7.5.3.3.3-.6 0-2.1-.4-2.1-.2-2.5.8-1.9 1 .6 1.2.4.7-.8-.3-.9-.3-1.6.1-1.6 2 .3 2.3-.3 1.1-1.8-.9-1.1-1-1.4-.2-.9.9.5 1.1.2.7-.9-.4-.9-1.2-1.4-1.9-1.1-.8.3-1.6-.2-1.9-1-.3-.8 0-1.4.7-1.4.8 0 .6-.4-.3-1-.8-.5-1-1-.4-1 1.1 0 1-4.8-.1-7.8-.2-.6.1-1.2.8-1.2.8 0 .6-.4-.3-1-1.2-.8-1.2-1-.1-1 1.1 0 1.1-.3.1-1.5s-1-1.5 0-1.5 1-.3 0-1.5-1-1.5.1-1.5 1.1-.2-.1-1c-1-.6-1.1-1-.2-1 .6 0 1.2-.5 1.2-1.1 0-.5-.5-.7-1.2-.3-.6.4-.8.3-.5-.4 1-1.5 1.1-8.3.2-11.1-.4-1.3-.3-2.1.2-1.8 1 .6.9-4.5-.2-6.2-.3-.6-.1-1.1.6-1.1.6 0 .9-.8.6-1.9-.3-1.1.3-2.6 1.5-3.5 1.4-1.3 1.7-2.1.9-3-.7-.9-.7-1.6.2-2.5.9-.9.9-1.4-.3-2.1-1.1-.7-1.2-1.2-.3-2.1.6-.6.9-1.8.6-2.7-.5-1.1-.3-1.3.8-.7 1.1.7 1.1.5-.1-1-.9-1.1-1-1.6-.3-1.1.8.4 2.2-.3 3.5-1.7 2.1-2.2 5.5-2.7 4.3-.6-.4.5.1.6.9.3.9-.3 1.3-1.1 1-1.8-.4-.6 1.1.8 3.3 3.1 2.1 2.4 4.5 4.3 5.3 4.3.7 0 1.1.3.7.6-.3.4.1 1.4 1 2.3 1.2 1.1 1.7 1.3 2.1.3.4-1.4 2.2-1.6 2.2-.2 0 1.2 7.9 9 9.1 9 .5 0 .9.7.9 1.5 0 1.7 5.9 5.7 7.2 4.9.4-.3.8 0 .8.6s.4.8 1 .5c.6-.3 1 .1 1 .9 0 .9.7 1.6 1.5 1.6 1.3 0 1.9 1.2 1.6 3.2 0 .4.6.5 1.4.2 1-.4 1.5 0 1.5 1.1 0 .9.5 1.3 1 1 .6-.3 1 .1 1 1s.4 1.4.9 1.1c.5-.3 1.2.2 1.5 1.1.6 1.4.9 1.5 1.5.4.5-.7 1.4-1 2-.7.6.4.9 1.2.6 1.7-.4.5-.2.9.4.9.6 0 2.1 1.1 3.4 2.4 1.8 1.8 2.8 2.1 4.2 1.4 1.3-.8 1.6-.7 1.1.1-.4.6-.2 1.1.4 1.1.6 0 .9.4.6.9-.4.5.7 1.5 2.4 2.3 2.8 1.2 3.4 2.1 3.1 4 0 .5.5.8 1.2.8 1.4 0 4.7 3.5 4.7 4.9 0 .9 2.9 2.5 4.1 2.3.3 0 .4 1.3.3 2.9-.1 1.6.2 2.6.7 2.3.5-.3.9.2.9 1.1 0 1.1.5 1.5 1.6 1.1.8-.3 1.3-.2 1 .2-.3.4.4 1.4 1.6 2.1 1.1.7 1.7.8 1.3.2-.3-.6.1-1.1 1.1-1.1s1.4.3 1.1.6c-.3.4-.2 1.6.4 2.7.7 1.3.7 1.7.1 1.3-.6-.3-1.4-.2-1.7.4-.4.6-.1.9.7.8.7-.2 1.2.3 1 1-.1.8.2 1.1.8.7 1.4-.9 6.4 4.1 5.5 5.5-.3.5-.2 1 .4 1 .5 0 1.2-.6 1.5-1.3.4-.6.4-.2.2 1-.2 1.3.1 2.3.6 2.3.6 0 .4.8-.3 1.7-1.2 1.5-1.2 1.6.4 1 .9-.3 1.7-.2 1.7.3 0 .6.6.9 1.3.8.6-.2 1.1.3.9 1-.1.8.2 1.1.8.7.6-.3.8-1 .5-1.5-.3-.5-.1-1.1.3-1.4 1.1-.6 1 4.9 0 5.9-.4.4 0 1.4.8 2.2.8.8 1.1 2 .7 2.6-.5.8-.2.8.8 0 1.3-1 1.5-1 1.4.5 0 .9-.4 2.3-.9 3-.4.6-.2 1.2.3 1.2.6 0 1.1.5 1.1 1.1 0 .5-.4.8-.8.5-.5-.3-.9.1-.9.9s.7 1.5 1.4 1.5c.8 0 1.1.5.8 1-.4.6-1.1.7-1.7.4-.7-.4-.8-.2-.4.5.4.6.2 2-.6 2.9-1.2 1.5-1.1 1.6.5.3 1.8-1.4 2-.8.8 2.4-.5 1.1-.4 2.5.1 3.3.7.8.7 1.2-.1 1.2-.9 0-.9.5 0 2.1.8 1.6.8 2-.1 1.4-.9-.6-.9-.2-.1 1.4.8 1.5.9 2.1.1 2.1-.6 0-.9.4-.6.9.8 1.3-.4 4.2-1.5 3.6-1.1-.7-6 3.6-5.3 4.7.3.4.9.6 1.2.4.4-.2.7 1.1.7 3s-.4 3.4-1 3.4c-.5 0-.1.7.9 1.5 1.1.8 1.4 1.5.8 1.5-.7 0-1.2 1.4-1.2 3.2 0 2.5.3 2.9 1 1.8.5-.8 1-1 1-.4 0 .7.9 1.4 2.1 1.7 1.2.3 1.8 1 1.5 1.6-.4.5-.2 1.2.3 1.5.5.4 1.3.1 1.7-.5.5-.8.3-.9-.6-.4-.9.5-1.1.4-.6-.4.6-.9 1.1-.9 2.4.1 1.3 1.1 1.4 1.1.7-.1-.6-1.1-.4-1.3.8-.8 1.1.4 1.7.1 1.7-.8 0-.8.5-1.5 1.1-1.5.5 0 .7-.5.3-1.2-.5-.7-.2-.9.8-.5 1.1.4 1.8-.1 2.1-1.5.3-1.1 1-1.7 1.6-1.3.7.3.8 0 .5-.9-.3-.9-1.1-1.3-1.8-.9-.6.3 0-.6 1.3-2 1.4-1.5 1.9-2.7 1.3-2.7-.7 0-1.2.4-1.2 1 0 .5-.5 1-1.1 1-.7 0-.5-1 .6-2.6 1.6-2.4 1.6-2.6-.4-3.1-1.2-.3-1.8-1-1.4-1.6.4-.7 0-.8-1.3-.3-1 .4-1.5.4-1.1 0 .4-.4-.1-1.3-1.1-2.1-.9-.8-1.1-1.2-.5-.8.9.4 1.1.1.7-.9-.3-.9-1.1-1.3-1.8-.9-.6.4-.4-.2.4-1.2.9-1.1 1-1.6.3-1.1-.7.4-1.3.2-1.3-.3 0-.6.7-1.1 1.5-1.1s1.5-.5 1.5-1c0-.6-.5-.9-1.1-.8-.6.2-1.4-.3-1.7-1.1-.3-1 0-1.2 1.4-.7 1.7.7 1.7.6 0-1.3-1.2-1.3-1.4-2.1-.6-2.6.8-.5.8-1.1-.1-2.2-1-1.2-1-1.6.2-2.4 1.2-.8 1.2-1-.1-1.9-1.1-.7-1.1-1-.2-1 .7 0 1.1-.4.7-.9-.3-.5 0-1.3.5-1.6.8-.5.6-1.3-.5-2.5s-1.3-2-.6-2.5c.6-.3 1.1-1.1 1.1-1.6 0-.6-.4-.7-1-.4-.6.3-1 .1-1-.4 0-.6.5-1.1 1.1-1.1.8 0 .7-.6-.2-1.7-1.2-1.5-1.2-1.6.5-1 1.6.6 1.7.5.6-.8s-1-1.4.4-.9c1.2.5 1.6 0 1.6-1.7 0-1.9.2-2.1 1-.9.8 1.3 1 1.2 1.1-.5.1-1.1.1-2.4 0-2.9s.5-.4 1.3.4c1.2.9 1.6.9 1.6.1s.8-1 2.1-.6c1.6.5 1.9.4 1.4-.5s-.4-1.1.3-.6c.7.4 1.2 1.3 1.2 2.1 0 1.4 2.7 2.8 4 2 .5-.3 1.2 0 1.6.6.5.8.3.9-.6.4-.8-.5-1.1-.3-.8.6.3.8 1 1.5 1.6 1.5.7.1 1.7.2 2.2.3.6 0 1 .8 1 1.7 0 1.3.3 1.4 1.3.5 1-.8 2.1-.3 4.6 2.3 1.8 1.8 3.3 4.2 3.4 5.3 0 1.1.7 2 1.4 2 1 0 1-.4.1-1.4-.8-1.1-.7-1.2.6-.7.9.3 1.6 1.3 1.6 2.1 0 1.2.3 1.3 1.3.4 1.5-1.2 3.7.3 3.7 2.6 0 1.2 2 1.8 4.3 1.4.5-.1.6.3.2.8-.3.6-1.3.8-2.3.5-1.4-.5-1.4-.4-.3.4 1 .7 2.1.7 3.3.1 1.5-.8 1.8-.6 1.8 1.3s.2 2 1 .8c.7-1.1 1-1.1 1-.2 0 .8.5 1 1.3.6.7-.5.7-.2-.2 1-.8.9-1 1.6-.5 1.5 1.9-.3 3.4.1 3.4 1.1 0 .6 1.2 2.3 2.7 3.8 1.5 1.5 2 1.8 1.2.7-1.3-1.9-1.3-1.9.4-.6 1 .8 1.6 2 1.3 2.8-.3.8-.1 1.1.4.8.6-.3 1-.1 1 .5s.5.8 1 .5c.6-.3 1-.1 1 .4 0 .6.5 1.1 1.1 1.1.6 0 .9-.6.6-1.3-.3-.8-.1-2 .5-2.8.8-1.1.9-1 .4.3-.3 1-.1 1.8.4 1.8.6 0 1-.4 1-.9s.7-1.1 1.4-1.4c1.1-.4 1.3-.1.9 1-.5 1.2-.2 1.5 1 1 1-.4 1.6-.2 1.4.6-.1.7.3 1.1 1 1 .7-.2.7.7-.3 2.7s-2 2.7-3.2 2.4c-1.2-.4-1 0 .6 1.5 1.2 1.1 3.1 1.8 4.2 1.6 1.1-.2 1.9 0 1.7.5-.1.5.7 1.5 1.8 2.4 1.9 1.4 1.9 1.4.1 1.3-1.3-.1-1.9.5-2.1 2-.1 1.3.3 1.9.8 1.6.6-.4.8.1.3 1.2-.5 1.4-.4 1.5.7.7 1-.9 1.3-.5 1.1 2-.1 1.8-.9 3.7-1.7 4.3-1.9 1.4-1.8 4.5.2 3.7 1.2-.4 1.2 0-.3 1.7-2 2.2-2 2.2 0 1.6 1.8-.6 1.8-.6.2.8-2.3 1.8-2.3 2.8 0 2 1.5-.6 1.5-.5.3 1.1-2.1 2.5-2.2 5.6-.2 4.8 1.4-.5 1.4-.4.2 1.2-2.1 2.5-2.2 5.6-.2 4.8 1.3-.4 1.3-.2-.2 1.5s-1.6 2.3-.5 3.4c1.5 1.6 2 5.2.6 4.3-.5-.3-1.8.3-2.9 1.5-1.3 1.4-1.5 2.1-.7 2.1 1 0 1 .2-.1.9s-.9 1 .7 1.5c1.1.4 2.6 1.4 3.4 2.4 1.1 1.5 1.1 1.6-.3.4-1.4-1.1-1.6-.9-1.3 1.3.1 1.4.8 3.3 1.6 4.2.7.9.8 1.4.2 1-.7-.4-1.4 0-1.8.8-.3.8-.1 1.4.3 1.2.5-.1.9.2 1 .8 0 .5-1.1.9-2.6.9-2.6-.1-2.7-.1-.7 1.5 2.5 2.1 2.5 6.2-.1 7.2-1.1.4-1.4.8-.8.8.9.1 1 .8.3 2.7-.6 1.4-.6 2.3-.1 2 .5-.3 1.2.1 1.5 1 .3.8.2 1.3-.3 1-.5-.3-1.2.1-1.5 1-.4 1.1-.2 1.5.7 1.1.8-.3 1.4.1 1.4.9 0 .7-.4 1.1-.8.9-.4-.3-1 .2-1.3 1.1-.5 1.2-.2 1.5 1 1 1.4-.5 1.5-.4.5.8-.9 1.1-.9 1.6 0 2.2.9.5.7 1.1-.6 2.1-1.1.7-1.4 1.3-.8 1.3.6 0 1.3.7 1.6 1.4.4 1 .1 1.3-.7 1-.7-.3-1.3.2-1.3 1s.4 1.3.8 1.1c.4-.3.9.2 1.3 1 .3.8 0 1.7-.6 2.1-.7.5-.8.2-.3-.7.5-.8.4-1.1-.1-.6-1.7 1.5-1.2 5.3.8 5.4 1 .1 1.8-.3 1.8-.8s.6-.4 1.4.3c.8.7 1.3 1.5 1.1 1.8-.2.3.3 1.1 1.1 1.8 1.2 1.1 1.4 1 1.4-.3 0-.9.5-1.3 1-1 .6.3 1 .1 1-.5 0-.7.7-1 1.5-.6.8.3 1.5.1 1.5-.5s.4-.8.9-.5c.5.3 1.1-.3 1.4-1.4.3-1.1.2-2-.1-2-.4 0-.7-1.8-.7-3.9 0-2.2.2-3.9.5-3.9 1.9.1 3-.3 2.6-1.1-.7-1 2.2-2.5 4.3-2.2.8.2 1-.2.5-1.1-.6-1-.4-1 .9.1 1.4 1.1 1.7 1.1 1.7 0 .1-1 .5-.8 1.5.5.8 1.1 1.9 1.5 2.7 1 .7-.4.6.1-.4 1.2-1.3 1.5-1.4 2.1-.3 3.1.7.6 1.6.9 2 .5.4-.4.6-.2.5.3-.1.6-.1 1.2 0 1.5.5 1.4.5 6-.1 6-.3 0-.4 1.1-.1 2.5.4 2.2.7 2.4 2 1.3 1.2-1 1.4-1 .8 0-.4.6-.3 1.2.3 1.2.5 0 .9-1.5.8-3.4-.1-2-.6-3.1-1.2-2.8-.5.3-.4-.2.4-1.1 1-1.3 1-1.7.1-1.7-1 0-1-.3 0-1.5s1-1.5 0-1.5-1-.3 0-1.5 1-1.5 0-1.5-1-.3-.1-1.4c.9-1.1.9-1.6 0-2.1-.8-.6-.7-1 .2-1.6 1.2-.7 1.2-.9 0-.9-1 0-1.1-.3-.2-1.3.8-1 .7-1.7-.2-2.6-.9-.9-.9-1.4.3-2.1 1.3-.9 1.3-1.1 0-2-1.3-.9-1.3-1 0-1 .9 0 1.1-.3.5-.8-1.2-.9-1.8-3.2-.8-3.1 1.9.3 3.6-.2 3-.8-.4-.3.1-1.5 1-2.6 1-1.2 1.2-1.7.4-1.2-.9.5-1.2.3-.9-.6.3-.8 1.2-1.4 1.9-1.3.8.1 1.5-.7 1.5-1.7s-.5-1.5-1.1-1.1c-.5.3-.4-.2.4-1.2 1.3-1.5 1.3-1.9 0-2.7-1-.6-1-.9-.1-.9.6 0 1.2-.5 1.2-1.1 0-.5-.6-.7-1.2-.3-.9.5-.9.2.1-.9.9-1.2 1-1.7.2-1.7-.7 0-.9-.5-.6-1 .4-.6 1.2-.7 1.8-.3.8.5.8.2 0-.9-1.1-1.2-.9-1.8.7-3.3 1.1-1 1.7-2.1 1.5-2.5-.3-.4.2-1 1-1.4.8-.3 1.5-1.3 1.5-2.3 0-1.5.2-1.6 1-.3s1 1.2 1-.3c0-1.2.4-1.6 1.2-1.1.8.5.7 0-.2-1.1-1.2-1.5-1.2-1.7-.1-1 1.1.6 1.3.3.9-1.3-.4-1.5-.2-2.2.7-2.2.8 0 1.7-.5 2.1-1.2.5-.7.2-.9-.7-.4-.8.4-.5 0 .5-.8 1.5-1.2 1.6-1.6.5-1.6-1.2 0-1.2-.2.1-1 1.3-.9 1.3-1 0-1s-1.3-.2-.1-.9c.8-.5 1.1-1.6.8-2.6-.4-.9-.3-1.4.3-1 .6.3 2-.1 3.2-.9 1.2-.9 1.8-1.6 1.2-1.6-.5 0-1.6.6-2.4 1.2-1.2 1.1-1.2 1-.1-.5.7-.9 2.2-1.7 3.3-1.7 1.8 0 1.9-.2.7-1.7-.8-.9-.9-1.4-.2-1 1.7 1.1 4.3-.3 3.6-1.9-.3-.8.1-1.4 1.1-1.4.9 0 1.6-.5 1.6-1.1 0-.5-.6-.7-1.2-.3-.7.4-.6-.1.3-1.2 1.5-1.8 1.6-4.9.1-4-.4.2-.7-.6-.7-1.9 0-1.8.3-2.1 1.3-1.3.9.8 1.1.7.6-.7-.5-1.3-.4-1.6.4-1.1.8.4 1.2.1 1.2-1 0-1 .3-1.4.7-1.1.3.4 1.2-.1 2-1.1.8-.9 1.2-1.1.8-.5-.3.7-.1 1.3.6 1.3.8 0 .9.4 0 1.3-.8 1-.7 1.4.2 1.5.6 0 2.1.3 3.3.5 1.3.3 2.1 0 2.1-.9 0-1-.4-1.1-1.3-.3-.8.7-1.4.6-2-.2-.4-.7-.3-.9.4-.5.6.3 1.4.1 1.7-.5.4-.5 1.3-.8 2.1-.5.8.3 1.4.1 1.4-.5s.5-.7 1.2-.3c.7.4.8.3.4-.5-.4-.6-1.3-.9-1.9-.5-.7.3-.5-.1.5-.8 1.2-1.1 1.4-1.8.6-3.2-.8-1.4-.8-1.7.2-1.1.8.5 1.1.3.8-.6-.3-.8-1.1-1.3-1.7-1.1-.7.1-1-.2-.6-.7.3-.6 1.3-.7 2.2-.4 1 .4 1.4.2.9-.5-.3-.6-.1-1.4.5-1.8.8-.4.9-.3.5.4s-.2 1.2.3 1.2c.6 0 1.1-.6 1.1-1.4 0-1 .8-1.3 2.2-1.1 1.2.3 2.6-.1 3-.8.6-.9.8-.9.8 0 0 .7.5 1.3 1.1 1.3.6 0 .8-.7.5-1.6-.3-.8-.2-1.2.4-.9.6.3 1 .2 1-.4 0-.5.9-.9 1.9-.8 1 0 1.7.6 1.4 1.2-.2.7.4 1.8 1.4 2.6 1.6 1.3 1.7 1.2.4-.4-1.2-1.5-1.2-1.7.3-1.1 1.1.4 1.6 1.4 1.3 2.5-.5 2 .4 1.8 3.7-1 1.1-.9 1.6-1.1 1.3-.4-.4.6-.3 1.4.2 1.7.5.3 1.1-.4 1.4-1.6.5-1.9.8-2 2.3-.7 1.5 1.2 1.7 1.2.9 0-.6-1.1-.4-1.3.8-.8.9.3 1.9.1 2.3-.5.5-.7.2-.8-.6-.3-.9.5-1.1.4-.6-.3.4-.7 1.7-1.2 2.9-1.2 1.3 0 3-.9 4-2 2-2.3 2.2-3.4.5-2.4-.6.4-.8.3-.5-.4.4-.5 1.8-.9 3.2-.7 1.9.2 2.3-.1 1.5-1-1.3-1.5-.3-2.5 1.8-1.8.9.4 1.3.2.9-.4-.3-.5 0-1 .8-1s1.5.4 1.5.9c0 .4.5.8 1.1.8.5 0 .8-.4.4-.9-.3-.5-.1-1.3.5-1.6.6-.4.9-.1.8.5-.2.7 1 1.4 2.6 1.5 2.6.4 2.7.3 1-1.1-1.8-1.4-1.8-1.4.1-.7 1.1.3 2.6 1.1 3.4 1.7 1.2.9 1.3.8.9-.5-.4-.9-.1-1.6.7-1.6.8 0 1.2.8 1 2-.4 1.6-.2 1.7 1.3.5 2.5-1.9 3.1-3.1 2.5-4.3-.4-.5.4-.1 1.7 1 1.3 1.1 2 1.4 1.6.6-.7-1 .2-1.2 4-1 3.4.3 4.9 0 5-.9.1-.6.2-1.6.3-2 0-.4 1-.8 2-.8 1.1 0 1.8.3 1.6.6-.2.3.6.7 1.8.7 1.7.2 1.9 0 .7-.8-1.1-.7-.7-.8 1.4-.5 3.5.6 3.9 1 4.1 4 0 1.7-.4 2.2-1.5 1.8-1.1-.4-.9.1.5 1.8 1.5 1.8 1.6 2.2.4 1.8-1-.4-1.6-.1-1.6.8s.6 1.3 1.6.9c1.1-.4 1 0-.5 1.6-1 1.2-1.4 1.9-.8 1.6.7-.4 1.5 0 1.8.9.3.8.2 1.2-.3.9-.5-.3-1.2-.1-1.6.5-.3.5-.1 1 .4 1 1.4 0 1 5.2-.4 6.3-.5.5 0 .5 1.3.2 2.4-.7 2.9.4 1 2.4-1.1 1.1-.9 1.2.8.7 1.5-.4 2.1-.2 2.1.9 0 .8-.5 1.5-1 1.5-.6 0-.6.5 0 1.2 1.2 1.5 1.1 8.7-.1 10.6-.5.8-.4 1.8.3 2.5.8.8.5 1.7-.9 3.2-1.6 1.7-1.7 2.2-.6 2.2.8 0 1.3-.4 1-.9-.3-.4 0-.8.5-.8 1.2 0 1.4 1.3.4 2.4-.4.3-.8 1.3-.9 2.2-.2 1.2 0 1.3 1.2.3s1.3-.9.7.6c-.5 1.4-.3 1.7 1 1.2 1-.4 1.8-.1 1.8.6.1.7.5-.4.8-2.3.4-1.9.3-4.1-.2-4.8-.6-.8-.5-1.2.4-1.2 1.2 0 1.2-.2.1-.9-1.7-1.1-1.7-2.1 0-3.2.7-.5.9-.9.3-.9-.5 0-1-1.1-1-2.4 0-1.3.5-2.2 1-1.9.6.3.5 0-.2-.7-1.2-1.3-.7-3.9 1.1-5.3.7-.5.4-.7-.7-.3-1.3.4-1.7.1-1.5-1.2.2-.9.5-1.9.8-2.2.3-.3 1.4-1.6 2.5-3l2-2.5-3 2.5-3 2.5 2-2.5c1.1-1.4 2.5-2.8 3-3.3.6-.4.4-1.1-.5-1.7-1.3-.9-1.3-1 0-1 1.2 0 1.3-.2.1-.9-1.1-.7-1.1-.9 0-1.4 1.2-.5 1.2-.6 0-.6-1.1-.1-1.1-.4 0-1.8 1-1.1 1-1.4.2-.9-.7.4-1.3.3-1.3-.3 0-.5.5-1.3 1-1.6.7-.4.6-1.4-.2-2.8-1-2-1-2.1.6-.8 1.4 1.2 1.6 1.2 1-.4-.5-1.2-.4-1.6.3-1.2.7.5 1-.2.8-1.8-.1-1.4.2-2.5.8-2.5.5 0 .4-.7-.3-1.5-1-1.2-1-1.5.4-1.5.9 0 1.6-.7 1.6-1.6 0-.8.5-1.2 1-.9.6.4.7 1.2.4 1.8-.5.9-.3.8.6 0 .9-.9 1.7-.9 2.6-.2.8.7 1.4.6 2-.2.5-.8.3-1-.7-.4-1.1.6-1.1.5-.2-.5.9-1 1.5-1 2.8.4 1.8 1.7 3 2.2 2.1.7-.3-.5.1-1.2 1-1.5 1-.4 1.3-.2.8.6-.5.7-.3.8.5.4.7-.5 1-1.5.6-2.3-.5-1.4-.3-1.4 1.2-.2.9.8 1.4.9 1 .3-.4-.7 0-1.5.9-1.8.9-.3 1.4-1.2 1.1-1.9-.3-.8.1-1.4.9-1.4.7 0 1.1.4.8.9-.3.4 0 .8.6.8 1.5 0 4.2-2.8 3.7-3.7-.3-.5.6-.8 1.9-.8 1.3 0 2.4.3 2.4.6 0 1.5 4.1 0 6-2.2 1.2-1.3 1.8-1.7 1.4-.9-.7 1.3-.5 1.3.9.1 1.2-1 1.7-1 1.7-.1 0 .6.6 1 1.3.7.6-.2 1.1-.9 1-1.5-.1-.5.7-1.8 1.9-2.8 1.2-1.1 1.8-1.4 1.5-.8-.4.7.2 1.4 1.3 1.7 1.3.3 2 0 2-1 0-.8.5-1.1 1-.8.6.3 1 .1 1-.5s.5-.8 1.3-.4c.9.6.9.4-.1-.8-1.4-1.7 0-3.4 1.8-2.3.6.3 1-.2 1-1.1 0-1.6.1-1.6 1.5.2 1.4 1.9 1.4 1.9 1.5 0 0-2 0-2 1.5 0 .8 1.1 1.5 1.4 1.5.6 0-.6.8-1.2 1.8-1.3 1 0 1.2-.3.5-.6-1-.3-1-.8.1-1.9.8-.8 2-1.4 2.7-1.4.9 0 .9-.3 0-1.4-1-1.2-.8-1.3.8-.9 1.2.3 1.8.9 1.5 1.4-1 1.6.9.9 2.3-.9.8-.9 1.2-1.2.9-.5-.8 1.4 3.6 1.4 4.5 0 .4-.5 1 0 1.4 1.2.3 1.1 1.1 2.1 1.6 2.1.6 0 .7.4.4 1-.3.6.1.7.9.4.9-.3 1.3-1.1.9-1.8-.4-.6.1-.4 1.2.4 1 .8 1.9 1.3 2.1 1 .1-.3.6-.1 1.1.4.5.5.3.6-.4.2-.7-.4-1.3-.4-1.3-.1 0 .9 2.3 3.1 4 3.8 1.2.4 1.2.6.1.6-1.1.1-1.1.4 0 1.8 1.2 1.4 1.2 1.6-.1.9-.8-.5-.2.3 1.4 1.8 1.7 1.5 2.3 2.6 1.5 2.6-.9 0-1 .3-.3.8 1.3.8 1.2 4 0 6.1-.5.8-.3 1.6.5 2.1 1 .7 1 1.2 0 2.3-.9 1.2-.9 1.6 0 1.9.9.3.9.9 0 2.6-.6 1.2-.8 2.2-.3 2.2 1 0 .9 3-.2 4.8-.4.7-.2 1.2.5 1.2.8 0 .8.4-.1 1.5s-.9 1.5-.1 1.5c.9 0 .9.5.1 2s-.8 2 .2 2c.9 0 .9.3-.2 1-.9.6-1 1-.3 1 1.2 0 1.2 3.7-.1 5.8-.4.7-.2 1.2.5 1.2.8 0 .8.4-.1 1.5-1 1.2-1 1.5.1 1.5s1.1.2-.1 1c-.8.5-1 1-.5 1 1.3 0 4.7 6 3.5 6-.5 0-.7.6-.5 1.2 1.1 3.1 1.2 8.8.1 8.8-.6 0-.4.5.4 1 1.1.7 1.1 1 .2 1-.7 0-1.1.4-.7.9 1 1.7 1.3 7.1.3 7.1-.5 0-.6.6-.2 1.2 1.2 1.9 1.2 4.8 0 4.8-.6 0-.4.5.4 1s1.1 1 .5 1c-.5 0-1 1.3-1 3 0 1.6.5 3 1 3 .6 0 .3.5-.5 1-1.3.9-1.3 1 0 1s1.3.1 0 1-1.3 1 0 1 1.3.1 0 1c-.8.5-1 1-.5 1 .6 0 1 2.5 1 5.5s-.4 5.5-1 5.5c-.5 0-.3.5.5 1s1 1 .3 1c-.6 0-.9.8-.7 1.7 1 4.6 1 11.3 0 11.3-.6 0-.4.5.4 1 1.1.7 1.1 1 .2 1-.9 0-1 .5-.4 1.6.7 1.2.2 2.3-1.6 4.1l-2.6 2.6 2.4 1.9c2 1.6 2.1 2 .8 3.6-1.7 1.9-3.2 5.6-2 4.8.4-.2.8.4.8 1.4 0 1.3-.4 1.6-1.2 1-.7-.7-1.5-.2-2.3 1.6-.6 1.5-.7 2.3-.1 1.9.5-.3 1-.1 1 .4 0 .6-.6 1.1-1.2 1.1-1 0-.9.3.1.9 1 .6 1 1 .1 1.3-.9.3-.9 1 .1 3.1.7 1.5 1.6 2.7 2.1 2.7s.6-.5.2-1.2c-.4-.7-.3-.8.4-.4.9.5.9 1.3.1 2.8-.8 1.5-.8 1.9 0 1.4.6-.4 1.1-.3 1.1.3 0 .5-.6 1.2-1.2 1.5-1 .5-1 .7 0 1.2.6.3 1.2 1 1.2 1.5 0 .6-.4.8-.8.5-1-.6-.9 3 .1 4 .3.4 1.3.4 2.1.1 1.2-.5 1.4-1.2.6-3.1-.6-1.7-.5-2.6.3-3 .8-.3.8-.5-.1-.5-.8-.1.2-1.5 2.2-3.3 1.9-1.7 3.3-3.5 3-4-.3-.4-.1-.8.3-.8.5 0 1.8-.7 2.9-1.6 1-.8 1.3-1.2.5-.8-1 .5-1.2.3-.5-.7 1.2-2 1.4-3.9.3-3.9-.5 0-.9-.5-.9-1.1 0-.5.6-.7 1.3-.3.6.4.4-.1-.5-1.1-1.5-1.6-1.9-1.6-3.5-.4-1.6 1.2-1.6 1.1.1-.9 1.1-1.2 1.4-2.2.9-2.2-.6 0-1.4-.7-1.7-1.6-.6-1.5-.4-1.5 1.1-.3 1 .7.6 0-.9-1.7-2.7-2.9-3.7-5.1-2-4 .5.3.9-.1.9-.9s-.5-1.5-1-1.5-.3-.8.4-1.7c1.2-1.5 1.2-1.6-.1-.8s-1.3.7-.1-.8c.9-1.2 1-1.7.2-1.7-.9 0-.9-.5 0-2.1.9-1.7.8-2-.3-1.3-1 .6-1 .4.1-1 1.3-1.5 1.3-1.9 0-2.7-.8-.5-.9-.9-.4-.9.6 0 1-2.6 1-5.9 0-3.7-.4-5.7-1-5.3-.5.3-.4-.1.3-1 .9-1.1 1-1.8.2-2.3-.6-.3-.8-1.1-.5-1.6 1.2-1.8 1.4-4.9.4-5.4-.5-.4-.6-1.2-.2-1.8 1.1-1.9 1.1-4.7-.1-4.7-.7 0-.7-.3-.1-.8 1.3-.9 1.3-7.2 0-6.4-.5.3-.4-.2.4-1.2 1.3-1.5 1.3-1.9 0-2.7-.8-.5-.9-.9-.4-.9.6 0 1-1.1 1-2.4 0-1.3-.4-2.1-1-1.8-.5.3-.4-.1.2-.9 1-1.2 1-1.8 0-2.9-.6-.7-.7-1-.2-.7.6.3 1.1-.3 1.1-1.3s-.5-1.6-1.1-1.2c-.5.3-.4-.2.4-1.2 1.3-1.5 1.3-1.9 0-2.7-.8-.5-.9-.9-.3-.9 1.1 0 1.1-7.1-.1-9-.5-.9-.4-1.1.3-.6.7.4 1.2.2 1.2-.3 0-.6-.5-1.1-1.1-1.1-.8 0-.7-.6.2-1.7 1-1.1 1-1.4.2-.9-.7.4-1.3.2-1.3-.3 0-.6.5-1.1 1.1-1.1.8 0 .7-.5-.2-1.6-1-1.3-1-1.7.2-2.5 1.1-.7 1.1-.9 0-.9s-1.1-.3-.1-1.5 1-1.5 0-1.5-1-.3 0-1.5 1-1.9.2-2.7c-1.6-1.6-1.5-3.1.1-2.2.9.6.9.4-.1-.8-1-1.3-1-1.7 0-2.1 1.1-.4 1-.6 0-.6-.8-.1-1-.6-.6-1.3 1.3-2.1 1.2-4.9-.1-4.4-.9.3-1-.1-.1-1.9.7-1.5 1.3-1.9 1.8-1.2 1.3 2.2 2.5-8.7 1.3-11.7-.5-1.2-.5-1.7.2-1.3.5.3 1 0 1-.8s-.3-1.2-.6-1c-.3.2-.6-1-.6-2.5-.1-1.6.3-2.6.7-2.4.4.3.4-.6-.2-2-.7-1.9-.6-2.6.3-2.6.8 0 .8-.3-.2-.9-1.1-.7-1.1-.9 0-1.4.9-.3.9-.6.2-.6-.8-.1-.9-1-.4-2.9.9-3.4.3-6.4-1.1-5.6-.7.4-.8.2-.4-.5.4-.6 1.2-.9 1.7-.6.5.4 1.2-.1 1.5-.9.3-.9 1.1-1.3 1.8-.9.6.4.4-.2-.4-1.2-.9-1.2-1-1.6-.2-1.1.9.6 1.1.1.8-1.9-.3-1.5-.2-2.5.1-2.2 1 1 4.3-1.3 4.3-2.9 0-1 .6-1.4 1.5-1 .8.3 1.4 0 1.2-.6-.1-.6 1-1.2 2.5-1.2 1.4-.1 3-.5 3.5-1 .4-.5.3-.6-.4-.2-.6.3-1.4.2-1.7-.3-.3-.5.1-1.1.9-1.5 1.2-.4 1.3-1.1.5-3.2-.9-2.2-.8-2.5.4-2.1 1.1.4 1.3.1.9-1-.4-1-.2-1.4.4-1 1.2.8 5.6-3.6 4.6-4.6-.3-.4.1-.7.9-.7.9 0 2.9-1.5 4.6-3.4 2.3-2.7 3.3-3.2 4.2-2.3 1 .9 1.1.9.5-.3-.6-1-.1-.9 1.3.4 1.7 1.5 1.9 2.2 1.1 3.8-.6 1.1-.7 1.8-.2 1.6.4-.3 2.3 1 4.1 2.8 1.8 1.9 2.7 3.4 2 3.4-1 0-1 .2.1.9.7.5.9 1.1.4 1.4-1.1.7-1.1 3.7.1 5.5.4.7.2 1.2-.6 1.2-1 0-1 .2.1.9.9.6 1 1.1.2 1.5-.6.4-.8 1.2-.5 1.8.5.7 0 .9-1.2.6-1.4-.4-2 0-2 1.3 0 1.1.5 1.9 1.1 1.9.5 0 .3.5-.5 1-1.1.7-1.1 1-.2 1 .7 0 1 .5.6 1.1-.4.7.4 2 1.7 3 1.7 1.3 1.9 1.9.9 1.9-1.1.1-1 .4.4 1.5 2 1.5 2 1.5 0 1.5-1.4 0-1.6.2-.5.9s1.1.9 0 1.4c-.8.3-.2.6 1.4.6 1.6.1 2.6-.4 2.5-1.1-.2-.7.2-1.2.9-1.3.6 0 1.5-.4 2-.9s.3-.6-.4-.2c-1.6.9-1.6.1-.3-2.5.8-1.4.7-1.9-.1-1.9-.8 0-.7-.5.2-1.7 1-1.1 1-1.4.2-.9-.7.4-1.3.2-1.3-.3 0-.6.9-1.1 1.9-1.1 2.7 0 3.5-1.7 1.4-2.9-1.6-.9-1.6-1-.1-1.1 1.1 0 1.5-.6 1.1-2-.3-1.1-1-2-1.5-2s-.7-.4-.3-.9c.3-.6-.4-.8-1.6-.6-2.1.4-2.1.4-.3-1.7 1.1-1.2 1.4-1.8.7-1.5-1.8 1.1-2.1-1.6-.5-4.8 1.5-2.9 1.4-2.9-.4-1.5-1.8 1.5-1.8 1.4 0-1.4 1-1.6 1.3-2.5.7-2.2-1 .7-1.7-2.4-1.1-4.9.2-.6.2-1.8.2-2.8 0-.9.4-1.5.9-1.1.5.3.9.2.8-.3-.4-2.1.2-3.5 1.4-3 .8.3 1.2-.7 1.2-3.2 0-2.7.4-3.5 1.6-3.3 1.6.2 2-3 .6-4.4-.4-.4-.1-1.4.6-2.2.9-1.3.9-1.4 0-.8-.7.4-1.3.3-1.3-.2 0-.6.7-1.2 1.5-1.6.8-.3 1.2-1.2.9-1.9-.3-.8.2-1.7 1-2 .9-.4 1.3-1.4.9-2.9-.3-1.3-.3-2 .2-1.6 1.1 1 3.8-2 2.9-3.3-.4-.8-.3-.9.4-.5.6.3 1.6-.2 2.2-1.3.6-1.2 1.6-1.8 2.5-1.5 1.1.5 1.3.2.8-1.2-.4-1.2-.3-1.5.5-1 1.1.6 1.6-.5 1.3-2.6 0-.4.5-.5 1.2-.2.8.3 1.4-.2 1.4-1s-.5-1.2-1-.9c-.7.4-.8-.1-.3-1.2.5-1.5.4-1.6-.9-.5s-1.4 1-.9-.4c.3-.9 1-1.6 1.6-1.6.5 0 .6-.6.2-1.3-.5-.7 0-.6 1.1.3 1.1.9 1.6 1 1.1.3-1.2-2.1.3-3.6 2.2-2.1 1.4 1.2 1.4 1 .3-1-1-2-.9-2.2 1-2.2 1.4 0 1.9-.5 1.6-1.5-.4-.8-.2-1.7.4-2 .5-.4.7-1.1.4-1.6-.3-.5.2-.6 1.2-.2 1.4.5 1.5.3.6-.7-.9-.9-.1-2.2 3.6-5.4 3.7-3.3 4.7-4.8 4.4-6.7-.3-2.3-.3-2.3 1.1-.4 1.3 1.9 1.4 1.8.9-.8-.4-2.2-.2-2.7 1.5-2.7 1.2 0 2.4-.5 2.8-1.2.4-.7.3-.8-.4-.4s-1.2.3-1.2-.2c0-.6.6-1.2 1.4-1.5.8-.3 1.3-1.6 1.2-3-.2-1.4.3-2.4 1.1-2.5.7-.1 2-.3 2.8-.4.8-.1 1.2-.5.9-1-.3-.4 0-.8.7-.8s.9-.3.6-.6c-.4-.4-1.4-.1-2.3.7-1.6 1.3-1.6 1.2-.3-.9.8-1.2 1.7-2.2 2.1-2.2.5 0 .8-.9.8-2.1 0-1.5.5-1.9 1.5-1.5.8.3 1.4.2 1.4-.2-.3-1.9.2-3.3 1-2.7.5.3 1.8-.8 2.7-2.5 1.3-2 2-2.6 2.6-1.7.5.8.8.7.8-.6 0-.9.6-1.7 1.3-1.7.8 0 .7-.3-.3-1-1.2-.8-1.2-1 .3-1.6.9-.3 1.7-1 1.7-1.6 0-.5-.5-.6-1.2-.2-.7.5-.8.3-.4-.5.5-.7 1.4-1 2-.8.8.3 1.2-.3 1.1-1.6-.2-2.3 1.5-4.8 2.7-4.1.4.3.5-.4.3-1.6-.2-1.1-.1-1.9.3-1.9 2 .3 3.2-.2 2.7-1.2-.4-.6-.1-1 .6-.9 2.1.3 5.9-1.1 5.9-2.2 0-.5-.5-.6-1.2-.2-.7.5-.8.3-.4-.5.5-.7 1-1 1.3-.7.8.8 3.1-1.8 2.5-2.9-.3-.6.2-.4 1.1.4 1.4 1.1 1.7 1.1 1.7 0s.2-1.1 1 .1c.7 1.2 1 1.2 1 .1 0-.8.6-1.1 1.8-.7 1.6.6 1.6.5 0-.7-1-.8-1.5-1.7-1.1-2 1.2-1.3-1.3-.7-2.6.6-1.1 1-1.2.9-.6-.2.6-1 .4-1.3-.7-.8-1.7.6-2-2.3-.3-3.5.6-.5.6-.8-.1-.8-.6 0-1-1-.9-2.3.1-1.4.8-2.1 1.9-2.1 1.2.1 1.5-.3 1.1-1.7-.5-1.5-.1-1.9 1.6-1.9 1.2 0 2-.3 1.6-.6-.7-.7 2.6-4.2 3.6-3.7.4.2.7-.3.7-1.2 0-1 .6-1.5 1.3-1.2 1 .4 1.2-.3.9-2.5-.4-2.4-.2-2.9.9-2.4.9.5.8.3-.1-.6-1.4-1.1-1.1-1.7 2.1-5 2.1-2 4.1-3.3 4.5-3 .5.4.3-.1-.4-1-1.1-1.4-1-2 .4-3.7 1-1.1 2.1-1.8 2.5-1.6.4.3.3-1.1-.1-3-.5-2.4-.4-3.5.4-3.5.7 0 .7-.3-.2-.8-.9-.7-.8-1.4.8-3.2 1.1-1.3 2-2.7 2-3.2 0-.4.5-.7 1.1-.5.6.1 1.3-.9 1.5-2.2.3-1.4.9-3 1.5-3.8 1.4-1.6 3.3-1.8 2.4-.2-.4.6.2.5 1.4-.2 1.4-1 1.7-1.5.8-2.1-.9-.6-.9-.8.1-.8.6 0 1.2-.5 1.2-1.1 0-.5-.4-.8-.9-.5-.4.3-.6-.6-.3-1.9.2-1.4.8-2.2 1.3-1.9.5.3.9-.2.9-1 0-.9.4-1.6.9-1.6s.8-1.1.6-2.5c-.2-2.3.5-3 2.8-2.6 1.2.2.8-2.7-.5-3.2-.9-.4-1-.6-.1-.6.7-.1 1-1.1.7-2.7-.3-1.4-.1-2.3.4-2 .5.3 1.7-.9 2.7-2.6 1-1.7 1.3-2.8.6-2.4-1.5 1-1.4-.7.2-2.3 1-1 .9-1.1-.6-.5-1.3.5-1.6.2-1.1-1 .3-.9 1-1.3 1.5-1 .5.3.6-.1.4-.8-.3-.8.4-2.4 1.5-3.6 1.1-1.2 1.7-2.2 1.1-2.2-.5 0-.8-.8-.6-1.8.2-.9.4-1.7.5-1.7.1 0 .3-.8.5-1.8s-.1-1.4-.8-1c-.7.4-.8 0-.4-1.1.4-1 .7-2.1.7-2.4 0-.4.5 0 1 .8.8 1.3 1 1.2 1-.3 0-1 .4-1.6.9-1.2.6.3.6-.6.1-2.5-.7-2.4-.6-3 .6-3 .8 0 1.2-.5.9-1-.4-.6-1.2-.7-1.8-.4-.7.4-.2-.4 1-1.7l2.3-2.3-2.8-1.2c-1.8-.8-2.1-1.3-1-1.3 1.4-.1 1.6-.5.8-2.6-.7-1.8-.6-2.5.3-2.5.7 0 .8-.3.2-.8-.5-.4-1.1-1.6-1.2-2.7-.1-1.1 0-1.4.3-.8.9 2.1 2.7 1.5 2.1-.6-.3-1.5 0-1.9 1.3-1.6 1 .2 2.1-.3 2.4-1.1.8-2 .6-2.9-.5-2.7-.8.3-1.3-1.1-1-3 0-.4-.4-.7-1-.7-.8 0-.8-.5.1-1.5 1-1.2 1-1.5-.1-1.5-.8 0 0-1.2 1.7-2.8 2.4-2 3-3.2 2.4-4.7-.4-1.1-.6-3-.5-4.3.1-1.3-.4-2.2-1.2-2.2-.7 0-1.3-.6-1.3-1.4 0-.8-.6-1.7-1.2-1.9-.8-.3-.5-.6.5-.6 1.1-.1 1.5-.5 1.1-1.3-.5-.7-.2-.9.8-.6 1.1.5 1.4 0 1-1.8-.2-1.3-.8-2.1-1.3-1.8-.8.5-1.3-1.2-1.2-4.4.1-.6-.4-1.2-.9-1.2-.6 0-.5-.6.2-1.5 1-1.2 1-1.5 0-1.5-.9 0-1-.3-.1-1.3.8-1 .7-1.7-.2-2.6-.9-.9-.9-1.4.3-2.1 1.3-.9 1.3-1.1 0-2-1.3-.9-1.3-1 0-1s1.3-.1 0-1-1.3-1 0-1 1.3-.1 0-1-1.3-1 0-1 1.3-.1 0-1-1.3-1 0-1 1.3-.1 0-1-1.3-1 0-1 1.3-.1 0-1-1.3-1 0-1 1.3-.1 0-1-1.3-1 0-1 1.3-.1 0-1-1.3-1.1-.1-1.9c1.2-.7 1.2-1.3.3-2.4-.7-.7-.9-1.7-.5-2.1.4-.3.8-1.4.9-2.2.1-.9 0-1.4-.3-1.1-.2.3-1.3-.3-2.4-1.4-2.2-2.2-2.5-3.4-.6-2.3.8.5.8.2-.2-.9-1.1-1.4-1.1-1.7 0-1.8.8 0 .5-.4-.6-.9-1.9-.8-1.9-.9-.1-.9 1.6-.1 1.7-.3.5-1.8-1-1.1-1-1.4-.1-.9.6.4 1.2.2 1.2-.3 0-.6-.3-1.1-.7-1.1-.5 0-.8-1.6-.8-3.5s.3-3.5.7-3.5c.4 0 .5-.7.2-1.5-.4-.8-1-1.2-1.5-.9-.8.5-1.3-.9-1-2.9 0-.4-.4-.7-1.1-.7-.6 0-.8-.3-.5-.6 1.1-1.1-1.3-4.4-3.1-4.4-1 0-1.3-.3-.7-.8 1.2-.8 1.3-2.7.3-3.7-1-1.1.3-3.6 1.5-2.8.6.4.7.1.1-.8-1.2-1.9-1.2-3.3.1-4.1.5-.4.1-.8-1-.8-1.7 0-1.8-.2-.5-1.1 1.2-.9 1.1-1-.7-.6-1.3.3-2.4-.1-2.7-1-.3-.8-.1-1.1.4-.8 1.1.7 1.3-.6.4-2.9-.3-.9-1-1.3-1.5-1-.8.5-1.3-1.8-1.2-5.3.1-.7-.3-1-.8-.7-.5.3-.9 0-.9-.5 0-.6-.7-1.1-1.5-1.1s-1.5-.5-1.5-1c0-.6.5-1 1-1 .6 0 1-.5 1-1.1 0-.5-.4-.8-.9-.5-.5.4-.6-.9-.1-2.9.6-2.8.4-3.7-1.3-5.2-1.4-1.3-1.8-1.3-1.2-.3.7 1.3.6 1.3-.6.1-1.1-1.1-1.1-1.4-.1-1.8.9-.4 1-.8.2-1.8s-.8-1.5 0-2c.7-.4-.4-2.2-3-4.7-2.8-2.8-4-4.7-3.7-6 .3-1 0-2.1-.5-2.5-.7-.4-.8-.1-.4.8.4.8.1.6-.8-.4-.8-1.1-1.3-2.7-1.1-3.8.3-1.2-.2-1.9-1.2-1.9-.9 0-1.3-.6-.9-1.5.3-.8.2-1.4-.2-1.4-2 .3-2.2-.3-.7-1.8 1.6-1.6 1.6-1.7-.1-3-1-.7-1.4-1.3-.8-1.3.5 0 .3-.4-.4-.9-.7-.4-1.4-1.8-1.5-3-.1-1.3-1-2.7-2-3.3-1-.5-1.6-1.6-1.3-2.3.5-1.4-2.7-5.9-3.6-5-.2.3-.5-.2-.5-1s.3-1.2.7-1c.4.2.7-.2.7-1s-.3-1.2-.7-1c-.4.3-1.6-.5-2.6-1.7-1.1-1.2-1.3-1.8-.6-1.4.6.4 1.2.2 1.2-.3 0-.6-.5-1.1-1.1-1.1-.5 0-.8-.4-.4-.9.3-.5-.4-1.3-1.6-1.6-1.2-.4-1.8-1-1.3-1.4 1.7-1.2 1.4-3-.6-4.1-1.1-.6-2-2.1-2-3.5 0-1.3-.4-2.5-1-2.7-.5-.2-1.1-1.5-1.2-3-.1-1.5-.5-2.5-.9-2.2-.4.2-1.5-.4-2.6-1.4-1-.9-1.4-1.4-.9-1 .6.5 1.4.8 2 .8.5 0-.5-1.1-2.4-2.5s-2.8-2.5-2-2.5c1 0 .8-.4-.5-1.3-1-.8-1.5-1.9-1.2-2.4.4-.6 0-1.6-.9-2.3-1-1-1.2-1.5-.4-2 .7-.5.1-1-1.5-1.4-2.3-.6-2.5-.9-1.4-2.2.7-.8.8-1.4.3-1.3-2 .3-3.2-.2-3.8-1.7-.3-.8-.2-1.2.4-.9.6.3.7-.1.4-.9-.3-.9-1-1.6-1.6-1.6-.5 0-.6-1-.3-2.3.5-1.8.4-1.9-.5-.7-.9 1.1-1.3 1.2-1.7.2-.2-.6-1-.9-1.6-.5-.6.4-.8 0-.4-.9.4-1.1-.2-1.8-1.8-2.2-2.2-.6-2.3-.9-1.4-3.3.8-2.2.8-2.4-.5-1.4-1.2 1-1.4.8-1.2-1.4.2-1.4.1-2.4-.1-2.1-.3.2-2-1.1-3.9-3.1-2-2-4-3.3-4.9-3-.9.4-1.2.1-.8-.8.3-.8 1-1.2 1.6-.8.6.3.7.1.3-.6-.6-.9-1.1-.9-2.1-.1-.9.8-1.4.6-1.9-.5-.4-1.1-.2-1.4.6-.9.8.5.9.2.5-1-.4-1-.7-2-.7-2.2 0-.3-.5-.2-1.2.2-.8.5-.9.2-.5-.9s.1-1.7-.8-1.7c-.8 0-1.5-.7-1.5-1.5s-.4-1.5-1-1.5c-.5 0-1-.7-1-1.6 0-1.4-.2-1.5-1.7-.3-1.1 1-1.4 1-.9.1.4-.7.2-1.2-.6-1.2-.9 0-.9-.3.2-1 1.2-.8 1-1-.9-1-1.8 0-2.2-.4-1.8-2 .3-1.1.1-1.8-.3-1.5-.5.3-1.3-.3-1.9-1.2-.6-1-1.1-1.3-1.1-.7 0 .5.6 1.6 1.3 2.4 1 1.2.9 1.2-.5.1-1-.7-1.8-1.7-1.8-2.2 0-.5-1-1.9-2.1-3-1.7-1.7-2.3-1.9-3.1-.8-.8 1.1-.9 1.1-.5-.2.3-.9 0-2.2-.6-2.8-.9-1-.7-1.6.8-2.7 1.3-1 1.5-1.4.5-1.2-1.8.3-6.1-3.7-5.2-4.8.4-.4.1-.4-.5 0-.8.4-1.3.1-1.3-.8 0-.8-.5-1.8-1.2-2.2-.7-.4-.8-.3-.4.4.4.8.2 1-.8.6-.8-.3-1.2-1.2-.9-2 .5-1.3-.8-1.9-3.1-1.5-.5.1-.6-.5-.2-1.4.3-.9.2-1.3-.4-1-.9.6-1.5-.9-1.1-2.9.1-.5-.4-.4-1.2.2-1.1.9-1.6.7-2.5-1.4-.7-1.4-1.7-2.2-2.2-1.9-.6.3-1 .2-1-.4 0-.6-.7-.8-1.5-.5-.9.4-1.5 0-1.5-1 0-.9-.8-1.6-2-1.6-1.4 0-2-.7-2-2.3 0-1.8-.2-1.9-1-.7s-1 1.1-1-.8c0-1.5-.6-2.2-1.9-2.2-1 0-2.5-.8-3.2-1.8-1.3-1.5-1.2-1.6.4-.3.9.8 2 1.2 2.3.9.2-.3-1-1.3-2.8-2.1-1.8-.9-2.6-1.7-1.8-1.7 1.3 0 1.3-.2 0-.9-.8-.6-1.8-.7-2.4-.4-.5.3-.7.2-.4-.3.9-1.4-1.5-3.1-4-2.9-1.7.1-2.2-.4-2.2-2.2 0-1.6-.6-2.3-2-2.3-1.1 0-2-.5-2-1.1 0-.5-.4-.7-1-.4-.6.3-1-.5-1-1.8 0-2.1-.4-2.4-2.2-2-1.7.3-1.9.2-.9-.5 1.1-.8.9-1.1-.8-1.7-1.2-.3-1.8-1.1-1.5-1.7.5-.7.1-.9-.9-.5-1.2.5-1.7.1-1.7-1.3 0-1.8-1.1-2.5-3.3-2.1-.5.1-.6-.3-.2-.9.3-.5-.1-1.3-.9-1.6-.9-.3-1.3-1-1-1.6.3-.5-.2-.8-1.2-.6-1.4.2-1.9-.3-1.8-1.9 0-1.3-.1-2.1-.4-1.8-.9.9-4.2-1.6-3.6-2.7.5-.8.1-.9-1.2-.4-1 .4-1.5.4-1.1 0 .4-.4.1-1.4-.6-2.2-.9-1.3-.9-1.4.1-.8.9.5 1.2-.3 1.2-3.1 0-2.8-.6-4.2-2-5.1-1.7-1-1.9-1.6-.9-3.3.6-1.2.7-1.9.2-1.6-.5.4-1 0-1-.8s.2-1.3.5-1c.8.8 2.9-2 2.9-4 0-1.1-.4-2.6-1-3.3-.7-.9-.5-1.1.9-.5 1.6.6 1.7.5.6-.9s-1-1.6.5-1.4c1 .2 2.3-.6 2.9-1.8.6-1.2 1.5-2 2-1.9 1 .2 1-5.9-.1-7.6-.3-.6-.1-1.1.4-1.1.6 0 1.1-.5 1.1-1.1 0-.5-.5-.7-1.2-.3-.7.4-.8.3-.4-.5.4-.6 1.1-.9 1.5-.7.4.3 1.3-.4 2-1.6 1-1.6 1-1.9-.1-1.2-.9.6-.9.3.1-1 1.3-1.5 1.3-1.9 0-2.6-1.2-.8-1.1-1.2.6-2.5 1.1-.9 1.3-1.3.5-.9-1.2.7-1.3.5-.3-.8.7-.8 1-1.8.6-2.1-.3-.4.1-.7.9-.7 1 0 1.4-.6 1.2-1.8-.3-.9.2-2.6 1.1-3.7.9-1.1 1.3-1.4.9-.6-.5.9-.3 1.2.4.7.9-.5.9-1.3 0-2.9-1-2.1-1-2.1.7-.7 1.7 1.4 1.7 1.4.7-.6-.8-1.6-.8-2.4.1-3.3.9-1 .8-1.1-.8-.5-2 .7-2 .7-.1-1.5 1.5-1.6 1.6-2 .5-1.6-1.1.4-1.5 0-1.4-1.2.2-2.7 1.4-4.3 2.9-3.7.8.3 1.7 0 2.2-.7.5-.8.3-1-.6-.4-.9.6-1.1.4-.6-.4.5-.7 1.4-1 2.1-.7.9.3 1.2-.5 1-2.9-.1-1.9.2-3.2.6-2.9.5.3 1.7 0 2.6-.6 1.6-1.1 1.6-1.1.1-.6-1 .3-2 0-2.4-.6-.4-.7-.3-.8.4-.4s1.2.2 1.2-.4c0-.6.4-.9.8-.6.5.3.9-.1.9-.9s-.5-1.1-1.1-.8c-.6.4-.5 0 .1-.9.7-.8.9-1.8.5-2.3-.4-.4.3-.2 1.5.4 1.9 1 2.2.9 1.7-.4-.4-.8-.1-2.2.6-3 1-1.2.8-1.3-1-1-1.3.2-1.9.1-1.6-.3.7-.7 1.2-.8 3.8-1.1.6 0 .8-.4.5-.8-.4-.3-.2-1.3.5-2 .7-.9.8-1.7.2-2.1-1.6-1.2-1.2-3.9.5-3.8 1 .1 1.5-.6 1.4-1.7 0-1.2.4-1.6 1.2-1.3.9.3 1.2 0 .8-.9-.3-.8-1-1.2-1.6-.8-.6.3-.7.1-.3-.6.4-.6 1.5-1 2.3-.9.9.2 1.7-.5 1.8-1.5.2-.9-.1-1.5-.6-1.1-.5.3-.6 1-.3 1.6.5.7.2.8-.6.3-1-.6-.8-1.2.9-2.7 2.1-1.6 2-2.3-.2-1.9-.5.1-.6-.3-.2-.8.3-.6 1.2-.8 2-.4 1.8.6 2-.8.3-2.6-1.1-1.1-.9-1.2.8-.3 1.6.9 2.1.8 2.1-.3 0-.8-.4-1.2-.9-.9-.4.3-.8-.5-.9-1.8 0-1.3-.2-3.1-.4-4.1-.2-.9.1-1.5.6-1.1.5.3.9 0 .9-.6 0-.7.7-.9 1.6-.6.8.3 1.2.2.9-.3-.3-.5 0-1.3.5-1.6.8-.5.6-1.3-.5-2.5-1.6-1.7-1.6-1.8.1-1.6 1 .2 2.7-.8 3.7-2.1 1.1-1.3 2.4-2 3-1.6.8.5.8.2 0-.9-.7-.8-1-1.8-.6-2.1.3-.4 1.3-.1 2.1.6 1.3.9 1.4.9.8 0-.4-.7-.2-2.1.3-3 .6-1.1 1.1-1.3 1.1-.5 0 .7.5 1 1 .7.6-.4.8-1.1.5-1.6-.4-.5-.1-.9.5-.9s.8-.5.5-1c-.4-.6-1.2-.8-1.8-.4-.7.3-.3-.2.7-1 1.8-1.5 1.4-1.6-6.2-1.6-7 0-8.2.2-8.2 1.7zm7 9.7c0 .3-.4.8-1 1.1-.5.3-1 .1-1-.4 0-.6.5-1.1 1-1.1.6 0 1 .2 1 .4zm-4.3 7.2c-.3.3-1.2.4-1.9.1-.8-.3-.5-.6.6-.6 1.1-.1 1.7.2 1.3.5zM728 47c0 .5-.5 1-1.1 1-.5 0-.7-.5-.4-1 .3-.6.8-1 1.1-1 .2 0 .4.4.4 1zM198.8 85.5c-.3.3-.9-.2-1.2-1.2-.6-1.4-.5-1.5.5-.6.7.7 1 1.5.7 1.8zm233.6 34.7c-.3.4-1.1.5-1.9.1-2.1-.7-1.9-1.2.4-1 1.1 0 1.8.5 1.5.9zm187 5.6c.3.5-.1.9-.9.9s-1.2-.4-.9-.9c.3-.4.7-.8.9-.8.2 0 .6.4.9.8zm-114.3 29.1c0-1 .2-1 .5-.2.3.7 1.2.9 2 .6.9-.3 1.4.1 1.4 1.2 0 .9.5 1.3 1 1 .6-.3 1 0 1 .7s.9.2 2-1.2c1.7-2.2 2.1-2.4 4.1-1.2 1.1.8 1.8.9 1.5.4-.8-1.4 13.6-1.2 15.3.2 1.1.8 1.3.8.8-.1-.5-.8.2-1.1 2.3-1.1 1.7.1 3.3.5 3.6 1 .3.4 1.4.3 2.5-.2 1.4-.8 1.9-.7 1.9.2 0 1 .2 1 .9 0 .6-1.1.9-.9 1.3.5.3 1.1 2 3 3.8 4.3 1.9 1.3 3 1.8 2.6 1.2-.9-1.5 2.9-1.3 5.3.2 1 .6 1.2.5.7-.2-.4-.7-.2-1.2.3-1.2.6 0 1.1.4 1.1 1 0 .5.7 1 1.5 1s1.5.4 1.5 1c0 .5.3.9.8.9.4-.1.9 0 1.2.1 1.8.7 3.9.7 3.5 0-.8-1.3 1.8-1.8 3.8-.8 1.3.7 1.7.5 1.7-.8 0-1 .3-1.4.6-1.1.4.3 1.5.2 2.5-.4 1.5-.7 2.1-.6 2.5.6.3.8 1 1.2 1.5.9.5-.3.9 0 .9.7s.3.9.7.6c.3-.4 1.2-.2 1.9.4 1 .9 1.5.7 2-.5.5-1.4.7-1.4 2.1 0 .9.9 2.4 1.3 3.4 1.1 1.2-.3 1.6 0 1.4 1.2-.2 1 .3 1.8 1 1.8.8 0 1.2-.4.9-.9-.3-.4 0-.8.5-.8.6 0 1.1.3 1.1.8 0 .4.9 1.3 2.1 2 1.3.9 1.8.9 1.4.2-.9-1.4 3.5 1 5 2.7.5.7 2.8 1.4 5 1.6 3 .2 4 .7 3.9 2-.1.9.2 1.7.7 1.7.5 0 .9-.5.9-1.2 0-.6.8-.4 2 .7 1 .9 2.6 1.5 3.4 1.2 1.1-.4 1.3-.1.9 1.1-.6 1.5-.5 1.6 1.2.2 1.1-.9 1.6-1 1.1-.3-.6 1.1.6 1.8 1.8 1 .2-.1 1.3.7 2.5 1.7 1.2 1.1 2.1 1.5 2.1 1.1 0-.4.9.2 2 1.5 1.1 1.2 1.7 2.8 1.3 3.4-.4.6.1.5 1-.3 1.5-1.2 1.7-1.2 1.1.4-.5 1.3-.4 1.6.4 1.1.7-.4 1.2-.2 1.2.3 0 .6.8 1.2 1.8 1.2 1.6.1 1.6.2-.1.6-.9.2-1.5.8-1.2 1.3.3.5 1.3.7 2.3.4.9-.3.6.2-.8 1-1.6 1-2 1.6-1 1.6 1 .1.9.4-.5.9-1.8.7-1.8.8.5 1.4 1.4.3 3.1 1.6 3.8 2.8 1.2 1.9 1.2 2.1-.3 1.6-1.1-.5-1.4-.3-.8.6 1.3 2 1.2 3.4-.3 3.4-1.1 0-1.1-.4-.2-1.6.7-.9.3-.8-1 .3-1.2 1.1-2 2.6-1.8 3.3.3.7.2 1.2-.2 1.2-2-.3-3.2.3-3.2 1.6 0 .8.6 1.5 1.4 1.5.8 0 1.7.4 2 .9.3.4-.7.6-2.2.4-2.3-.3-2.4-.2-.7.6 1.1.6 1.4 1 .6 1-1 .1-1.1.4-.2 1.5 1 1.2.8 1.4-1.2 1.2-2-.2-2.4.1-2.3 2.3.1 1.4.5 3.2 1 4 .7 1 .6 1.2-.4.6s-1.2-.4-.7.8c.4 1.1-.1 1.8-1.4 2.2-1 .4-1.7 1.1-1.3 1.6.3.5 1 .7 1.5.4.5-.4.9.1.9.9 0 .9.5 1.6 1.1 1.6.5 0 .7-.5.3-1.2-.5-.7-.3-.8.6-.3 1 .6.9 1.1-.4 2.1-1.3.9-1.4 1.3-.4 1.7.8.3.6.6-.5.6-1 .1-1.5.5-1.2 1.1.3.5-.4 1.1-1.7 1.1-1.6.1-1.8.3-.6.6 1 .2 1.5 1 1.1 1.9-.3.7-1 1.1-1.5.8-.6-.4-.8-.1-.6.7.3.8 1.2 1.3 1.9 1.1.8-.2 1 0 .6.5-.5.4-1.6.8-2.4.8-.9 0-1.8.6-2.1 1.4-.3 1 0 1.1.9.5 1.2-.7 1.2-.5 0 .9-1.1 1.4-1.1 1.7 0 1.7.8 0 .5.6-.7 1.5-1.2 1-1.4 1.4-.4 1.2.8-.2 1.2-.2.7 0-.4.3-.4 1-.1 1.5.4.6.2.8-.4.5-.5-.4-1.7-.4-2.6-.1-1.4.5-1.4.8-.1 2.1.8.8 1.5 2 1.5 2.6 0 .7-.4.6-1-.3-.5-.8-1-1.2-1-.8 0 .5 0 1.1-.1 1.5 0 .5-1 1.9-2.2 3.2l-2.2 2.4 2.3-1.2c1.3-.7 2.6-1 3-.7.3.3 0 .6-.6.6-.7 0-1.2.7-1.2 1.6 0 1 .6 1.4 1.5 1 .8-.3 1.5-.1 1.5.4 0 .6-.5 1-1.1 1-.5 0-.7.4-.4 1 .3.5-.2 1-1.3 1-1 0-2.8 1.2-4.1 2.6-1.7 2-2 2.9-1 4 .6.7 1.6 1.1 2.2.7.6-.4.7-.1.3.6-.5.7-1.5 1-2.3.6-1.3-.4-1.4-.3-.4.9.9 1.1.9 1.6 0 2.2-.8.5-.9.3-.4-.6.6-.9.4-1.1-.4-.6-.7.5-1 1.5-.7 2.3.3.8.2 1.2-.3.9-.5-.3-1.1.1-1.5.9-.3.9 0 1.5.8 1.5 1.1 0 1.3 2 .7 7.2-.1.5-.8.8-1.6.8-.9 0-1.8.7-2.1 1.5-.4.8-.9 1.3-1.3 1.1-.4-.3-1.3.4-2 1.6-.9 1.5-.9 1.8 0 1.3.7-.5 1-.3.7.6-.3.8-1.2 1.3-1.9 1.1-.9-.2-.7.3.4 1.6 1.3 1.4 1.5 2.2.7 2.7-.7.5-.8 1.1-.2 1.7 1.3 1.3.2 5.8-1.4 5.8-.8 0-1.4.5-1.4 1.1 0 .5.5.7 1.1.4.6-.4.5.2-.2 1.3-.7 1.2-1.8 1.8-2.4 1.4-.5-.3-.4.1.3 1 1 1.3 1 1.8.1 2.4-.8.4-.9.3-.5-.4s.2-1.2-.3-1.2c-.9 0-1.4 2.8-1 5.6 0 .4-.5 1-1.1 1.4-.8.5-.7.9.5 1.3 1 .5 1.4.3.9-.5-.5-.7-.3-.8.6-.3 1 .6 1 1.1-.3 2-.9.7-1.3 1.6-.9 2 .4.5-.2.5-1.2.1-1.7-.6-1.7-.5-.5 1.1 1.2 1.4 1.2 1.6-.1 1.1-1.2-.4-1.6.1-1.6 1.7 0 1.3.4 2.1.8 1.9 1.4-.9.9.9-.8 2.7-.9 1-1.6 3-1.6 4.5 0 1.8-.3 2.2-.9 1.3-.7-1.2-1-1.2-2.1 0-1 1-1 1.2 0 .7 1.8-1.1 1.5.5-.5 1.9-1.3.9-1.3 1.4-.3 2 .9.5 1.1.4.6-.3-.4-.7-.5-1.2-.2-1.2 1.7 0 1.1 2.1-1.2 4.1l-2.7 2.4 2-2.5 2-2.5-2.2 1.9c-1.8 1.5-2 2.2-1.2 3.8.8 1.5.8 1.9 0 1.4-1.2-.8-1.5.6-.4 1.8 1.1 1 1.2 3.6.2 3.6-.4 0-.5.7-.2 1.7.5 1.2.3 1.4-.7.8-1-.6-1.2-.4-.7.8.4 1.2.2 1.4-1.1 1-1.5-.6-1.6-.5-.2 1.2.9 1.1 1 1.6.3 1.1-1.3-.7-1.7.6-1.4 4.4 0 1-.1 1.1-.5.2-.8-1.7-2.5-1.5-1.8.3.4.8.1 2.1-.5 2.9-.6.7-.8 1.6-.4 2 .4.4 0 .4-.9.1-1.4-.6-1.6-.2-1.2 1.8.3 1.8-.2 3-1.6 4-1.1.7-1.7 1.8-1.2 2.3.4.4-.1.2-1.1-.5-1.5-1.2-1.7-1.2-1 .4.5 1.5.3 1.7-1.1 1.2-1.3-.5-1.5-.3-.7 1 .5 1 .5 2.6 0 4-.6 1.7-.5 2.5.5 2.9 1.2.5 1.2.9-.2 2.4-.8 1.1-1.9 1.7-2.2 1.5-.4-.2-.7.2-.7 1s.5 1.2 1.1.9c.6-.3.2.2-.8 1-1.1.9-1.4 1.6-.8 1.6 1.4 0 1.2 2.1-.3 3.2-.6.5-.5.8.4.8 1.1 0 1.1.3 0 1.7-1 1.1-1 1.4-.1.9 1.9-1.2 1.4.9-.8 2.9-1.1 1-1.8 2-1.6 2.3.9.8-1.9 2.9-3.2 2.5-.7-.3-1.2-.2-1.1.3.4 2.3-.2 3.6-1.4 3.1-.8-.3-1.4.1-1.4.9 0 .7.3 1.1.6.9.3-.2.6 1 .6 2.6.1 1.6-.3 2.9-.8 2.9s-.4.6.2 1.4c.9 1.1.9 1.5-.1 1.9-1 .4-1 .8.2 1.6s1.2 1.1.1 1.1c-1.1 0-1.1.3-.1 1.5.9 1.1.9 1.5.1 1.5-.7 0-.9.5-.5 1.1.4.8 0 .9-1.5.4-1.4-.4-2.1-.2-2.1.6 0 .7-.3 1-.6.6-.3-.3-1.7.6-3.1 2.1-2.3 2.5-2.3 2.7-.7 3 2.1.4 4.4 2.2 2.9 2.2-.6 0-1.1 1.1-1.1 2.5-.1 1.4.1 2.3.6 2 .4-.2.5.6.3 1.9-.7 3.2-4.9 8-6.4 7-.7-.4-.9-.3-.6.3.4.6-.1 1.9-.9 2.9-.9 1-1.2 1.3-.8.5.4-.9.3-1.2-.4-.7-.6.4-.8 1.4-.5 2.3.5 1.2.3 1.4-.7.8-.9-.6-1.1-.4-.5.5 1 1.7 1.3 12 .3 11.4-.4-.3-.8 0-.8.6s-.4.8-1 .5c-.6-.3-.7.1-.4.9.3.9.1 1.6-.6 1.6s-.6.6.4 1.6c1.8 1.8 2.1 2.8.5 1.9-.6-.4-.9-.1-.8.6.3 1.9-1.2 5.2-2.8 6.2-.7.5-1 1.3-.6 2 1.4 2.1 1 5.8-.5 5.2-.7-.2-1 0-.7.5.3.6.1 1-.5 1s-.8.5-.4 1.2c.5.8.2.9-1.2.4-1-.4-1.5-.4-1.1 0 .4.4-.1 1.6-1 2.7-1 1.1-1.2 1.7-.5 1.3.6-.4 1.8-.1 2.5.6 1.5 1.6 1.8 4.8.4 4.5-.6-.1-1.2.2-1.2.8-.1.5-.5 1.7-.9 2.6-.4.9-.5 2.8-.2 4.3s.1 2.4-.5 2.1c-.5-.4-.9-.1-.9.5s-.5.8-1.2.4c-.8-.5-.9-.2-.5.9.4 1 .1 1.7-.6 1.7-.8 0-.6.4.3 1 1.3.9 1.3 1 0 1s-1.3.1 0 1 1.3 1 0 1c-1.2 0-1.2.2-.1.9.9.6 1 1 .2 1.6-.9.5-.9 1-.1 2 .8.9.4 1.2-1.5 1-1.4-.2-2.3.1-1.9.6.3.5 1.1.7 1.7.3.7-.3.5.1-.5.8-1.2 1-1.3 1.9-.7 3.1.7 1.1.6 1.7-.1 1.7-.5 0-1 .7-1 1.6 0 1.1-.5 1.4-1.6 1-1.4-.5-1.5-.4-.5.8.8 1 .9 1.6.1 2.1-.5.3-1 0-1-.7 0-.8-.5-.6-1.1.5-.5.9-.7 2.2-.3 2.9.4.7.3.8-.4.4-.8-.5-1 .2-.6 2.4.4 2 .3 3-.5 3-.7 0-.9.5-.6 1 .4.6 1.2.7 1.8.3.7-.3.3.4-.8 1.7-1.1 1.3-1.4 2-.7 1.6 1.1-.7 1.2-.4.3 1.1-.6 1.1-.7 2.3-.3 2.7.3.4-.1.4-1.1 0-1.2-.4-1.7-.1-1.7 1.1 0 .9-.4 1.3-1 1-1-.6-1.4 1.5-1.1 4.4.2.7-.2 1.1-.7.7-1.1-.6-.9 2.4.3 4.3.6 1 0 2.1-1.8 3.7-1.4 1.2-2.3 2.4-2 2.7 1 1 .8 8.7-.2 8.8-.5 0-.4.3.3.6.6.2 1.2.9 1.2 1.4 0 .6-.6.7-1.2.3-.9-.5-.9-.2.1.9 1.1 1.4 1.1 1.7 0 1.7-1 0-1 .3-.1 1.2 1.4 1.4 1.6 3.2.3 2.4-.5-.3-1.2.1-1.5 1-.3.8-1.1 1.2-1.6.9-.6-.4-1-.3-.9.2.3 1.9-.2 3.4-1 2.9-1.4-.9-2 3.1-.7 4.5.8.9.8 1-.1.5-.7-.4-1.3-.2-1.3.3 0 .6-.4 1-.9.8-.5-.1-.9.2-.9.6-.1 1.4-4.4 4.7-5.4 4.1-.4-.3-.7 0-.6.8.2.7-.2 1.2-.9 1.1-.8-.2-.9.6-.3 2.7.5 1.7.5 2.8.1 2.6-.4-.3-1.5.4-2.4 1.5-.9 1-1.3 1.9-.9 1.9.5 0 .9.6.9 1.4 0 .8-.3 1.4-.6 1.4-.3-.1-1.3.2-2.3.6-1.3.6-1.4 1.4-.8 3.7.6 2 .5 2.9-.3 2.9-.7 0-.6.4.3 1 .8.5 1 1 .4 1-.7 0-.8 1.7-.4 5 .4 2.9.2 5-.3 5s-.5.6.1 1.3c.6.7.7 1.8.3 2.5-.4.6-.4 3.7-.1 6.7.4 3.6.2 5.5-.4 5.5-.6 0-.4.5.4 1s1 1 .4 1-1 1.1-.9 2.4c.2 1.8-.1 2.3-1.1 1.9-.8-.3-1.4.1-1.4 1.1 0 .9-.6 1.3-1.4 1-.8-.3-1.7 0-2.2.7-.4.8-.3 1 .4.5.7-.4 1.2-.2 1.2.3 0 .6-.4 1.1-.9 1.1-1 0-.9 1.9.2 3.7.5.8.3 1.3-.4 1.3-.8 0-.8.4-.1 1.3.6.7.7 1.8.2 2.7-.5.7-.4 2.4.1 3.8.8 2.1.7 2.3-.5 1.3-1.2-1-1.3-.8-.9 1 .4 1.4.2 2-.4 1.6-.6-.4-1.3 0-1.7.8-.3.8-.1 1.7.4 2 .7.4.7 1.3 0 2.4-.6 1.2-.5 2.2.3 3.1.9 1 .9 1.1 0 .6-.7-.4-1.3-.2-1.3.3 0 .6.5 1.1 1.1 1.1.5 0 .7.5.4 1-.4.6-1.1.7-1.7.4-.7-.5-.7-.1 0 1.1 1 1.9-.5 4.5-2.7 4.5-.6 0-1.1.5-1.1 1.1 0 .8-.6.7-1.7-.2-.9-.8-1.4-.9-1-.2.8 1.3-1.8 1.2-3-.2-.4-.4-.2-.5.5-.1.6.4 1.2.2 1.2-.3 0-.6-.6-1.1-1.4-1.1-1.2 0-2.8-2.6-3.1-5 0-.3-.4-1.1-.9-1.9-.6-1-.5-1.2.2-.7.7.4 1.1-.3.9-2.3-.1-1.6-.5-2.7-.9-2.4-.5.2-.8-.3-.8-1.2 0-.9-.4-1.3-1-1-.5.3-1 .1-1-.4 0-1.1 1.5-1.5 3.4-1.2.5.1.4-.5-.4-1.3-.7-.9-.8-1.6-.3-1.6 1.8 0 1.2-4.4-.8-5.8-1.3-.9-1.9-2.2-1.6-3.3.3-1-.2-2.6-1-3.6s-1.1-1.2-.7-.4c.5.9.3 1.2-.4.7-.8-.5-.9-1.3-.2-2.5.5-1 .6-2.2.2-2.7-.4-.5 0-.3.8.3 1.3 1 1.5.5 1.5-3.3 0-4.3-1.7-7-3.7-5.8-.4.3-.5-.2-.2-1 .5-1.4-.3-2-2.6-1.8-.3 0-.5-1.1-.5-2.4 0-1.3.3-2.4.7-2.4.4 0 .6-1.6.5-3.5-.2-3.2-.8-4-2.9-3.6-.8.1-1.2-1.5-.9-3.1 0-.5-.4-.7-1.1-.5-.6.1-1.4-1.3-1.8-3.1-.5-2.1-.4-3.2.4-3.2.6 0 .4-.5-.4-1s-1-1-.3-1c.6 0 .9-.9.6-2-.3-1.1-1.2-2-2-2s-1.1-.5-.8-1c.3-.6.3-1-.2-1-.4 0-.8-1.3-.9-3-.1-1.6.3-2.7.8-2.3.6.3.5-.4-.1-1.5-.7-1.4-.8-2.3-.1-2.7.5-.3 1-1.1 1-1.6 0-.6-.4-.7-1-.4-.5.3-1 .1-1-.5s-.7-1.9-1.6-2.7c-1.3-1.3-1.3-1.7-.2-2.4.7-.5.8-.9.3-.9-1.3 0-1.3-6.3 0-7.2.6-.5.5-.8-.3-.8-1 0-1-.5-.2-2 .8-1.4.8-2 0-2-.6 0-.8-.4-.5-1 .5-.9-.7-1.4-2.7-1.1-.3 0-.5-1.3-.3-2.9.3-2.2 0-3-1.1-3-.8 0-1.3-.4-1-.9.4-.5.1-1.1-.5-1.3-.7-.2-.7-1.2.1-3.2 1-2.7.9-2.8-.7-1.5-1.6 1.3-1.6 1.2.1-1.5 1-1.6 1.4-2.6.8-2.2-1.8 1.1-3.4-2.4-3.6-7.9 0-3-.5-5.5-.9-5.5-.5 0-.6-.4-.3-.9s-.4-1.1-1.7-1.5c-1.3-.3-1.8-.9-1.2-1.3 1.4-1.1 1.7-3.3.4-3.3-.5 0-.8-.4-.5-.9.8-1.2-.4-4.2-1.4-3.6-.4.3-1-.2-1.4-1-.3-.8-.1-1.5.4-1.5s.7-.7.4-1.5c-.4-.8-.1-1.5.6-1.5.6 0 .8-.5.5-1-.4-.6-1-.8-1.4-.6-.4.3-.4-1.7-.1-4.4.4-3.1.3-4.7-.4-4.3-.5.4-.7-.1-.3-1 .4-1 .2-1.6-.6-1.4-.7.1-1.1-.4-1-1.1.2-.6-.2-1.2-.8-1.2-.8 0-.8-.5.1-1.5 1-1.2 1-1.5-.1-1.6-1 0-1.1-.2-.1-.6.6-.2 1.2-.9 1.2-1.4 0-.6-.4-.8-.9-.4-1.5.9-3.5-3.6-3.2-7.3.1-1.9-.2-3.1-.6-2.9-.4.3-1.2 0-1.8-.7-1.3-1.4-1.6-4.8-.4-4 .5.3.9 0 .9-.5 0-.6-.5-1.1-1.1-1.1-.6 0-.8-.8-.4-1.9.3-1 0-2.5-.7-3.2-.8-.8-1.5-2.7-1.6-4.3-.1-1.6-.7-3.5-1.3-4.3-1-1.1-.8-1.2.6-.7 1.4.6 1.6.4.9-.7-.4-.8-.7-2.2-.5-3.3.2-1.3-.1-1.6-1.1-1-1 .6-1 .4.1-.9 1.2-1.5 1.1-1.7-1-1.8-1.3 0-1.8-.3-1-.6 1.1-.4 1.1-.7 0-1.3-1-.7-1-1.1 0-2.4 1.5-1.8.7-3.6-1.7-3.6-1.5 0-1.5-.2-.2-1s1.2-1-.2-1c-1 0-1.8-.5-1.8-1.1 0-.5.6-.7 1.3-.3.9.6.9.4-.1-.8-.9-1.2-1-1.8-.2-2.3.8-.5.6-1.3-.6-2.6-1.6-1.8-1.6-1.9-.1-1.3 1 .3 1.7.1 1.7-.5 0-1-1.4-1.5-3.3-1.2-.5.1-.6-.3-.2-.9.3-.5.2-1-.3-1-.6 0-1.3-.7-1.6-1.6-.3-.8-.2-1.2.3-.9.5.3 1.2.1 1.6-.5.3-.5.1-1-.6-1-.8 0-.9-.4-.1-1.3.9-1 .7-1.9-.5-3.7-.9-1.3-1.1-2-.5-1.6 1.9 1.2 2.3-4.3.5-6.2-.7-.8-1-1.8-.7-2.4.4-.7.2-.8-.5-.4-.6.4-.8 1.3-.5 1.9.5.9.4.9-.6 0-1.4-1.3-2.3-6.6-.9-5.7.5.3.9-.2.9-1.1 0-1-.5-1.3-1.2-.9-.7.5-.8.3-.2-.7 1.4-2.3 1.4-4.1-.1-3.5-.9.3-1.2-.1-1-1.4.3-1.3-.1-1.7-1.1-1.3-2 .7-1.8-.7.4-2.4 1.4-1.2 1.4-1.4.1-1-1.2.4-1.5 0-1.1-2.1.4-2 .2-2.4-1.1-1.9-1.1.4-1.4.2-1-.9.3-.7.1-1.4-.5-1.4s-.9-.8-.7-1.8c.1-.9.8-1.6 1.3-1.5.6.2.9-.4.6-1.2-.4-.8-1.1-1.2-1.8-.8-.6.4-.5-.1.3-1 1.1-1.4 1.1-1.7 0-1.7-.8 0-.5-.6.7-1.5 1.2-1 1.3-1.3.4-1-1.2.4-1.6-.1-1.6-1.9 0-1.4.3-2.3.6-2.1.4.2.7-.2.7-.9 0-.8-.9-1.3-2.3-1.1-2 .2-2.1-.1-1.3-2.7.7-2.5.5-2.9-.7-2.4-.8.3-1.2.2-.9-.3.3-.6-.1-1.3-.9-1.8-1.9-1.1-2.1-2.4-.4-3.4 1-.7 1-.9-.2-1-1 0-.8-.3.5-.9 1.6-.7 1.7-.9.3-.9-1.3-.1-1.6-.8-1.3-3 .2-2.2 0-2.8-1-2.5-.7.3-1.6 0-2.1-.7-.5-.8-.3-1 .7-.4 1.1.6 1.2.5.2-.6-1.6-1.6-1.7-3.3-.2-2.3.8.5.9.2.1-1.2-.6-1.1-.7-2.7-.1-4.1.5-1.4.4-2.5-.3-2.9-.7-.4-.8-.3-.4.4s.2 1.2-.3 1.2c-.6 0-1.1-.7-1.1-1.6 0-.8-.4-1.2-1-.9-1.4.9-1.2-.8.3-2.4 1-1.1.9-1.3-.3-.7-.8.4-.6 0 .4-.8 1.9-1.6 1.9-1.6-.2-1.6-1.2 0-2.2-.5-2.2-1.1 0-.5.4-.8.9-.4.5.3 1.3 0 1.7-.6.4-.7.3-.9-.3-.6-.6.4-1.9-.1-2.9-.9-1-.9-1.4-1.3-.8-1 .6.3.9-.6.6-2.5-.2-1.6-.9-2.9-1.4-2.9-.5 0-.6-.5-.3-1 .3-.6.1-1-.5-1-.7 0-1-.6-.7-1.3.2-.6-.3-1.7-1.1-2.3-1.2-.9-1.2-1.3-.2-1.9.9-.6 1.1-.4.5.5-.5.9-.4 1.1.4.6.9-.6.9-1.1.1-2.1-.8-.9-.8-1.5-.1-2 1.4-.8-1-3.5-2.4-2.7-.5.3-.3-.3.5-1.3s1-1.6.4-1.2c-.7.4-1.6.1-2.1-.6-1.4-2-.9-4.5 1.2-6.2 1.1-.9 1.5-1.4.9-1.1-.6.3-2-.4-3-1.5-1.9-2.1-3.1-6.4-1.4-5.4.6.4.7-.1.3-1.1-.5-1.3-.3-1.5.8-.9 1.2.8 1.2.6 0-.8-.7-.9-1-1.7-.6-1.7.5 0 0-.9-.9-1.9-1-1.1-1.5-2.5-1-3.2.5-.9.2-1-.9-.6-.9.3-1.9.2-2.2-.3-.4-.6-.1-1 .5-1 .7 0 .9-.8.5-2.1-.6-1.6-.4-2 .6-1.4.8.5 1.1.5.7 0-.4-.4-.2-1.5.5-2.4 1.1-1.4 1-1.5-.7-.1s-1.8 1.3-1.2-.6c.4-1.4.1-2.6-1.1-3.5-1.6-1.2-1.7-1.2-.6.2 1 1.3 1 1.6-.2 1.6-.8 0-1.2-.4-.9-.9.3-.4-.1-.8-.8-.8-.8 0-.6-.5.5-1.1.9-.5 1.7-1.5 1.7-2.2 0-.7-.4-.6-1 .3-.8 1.3-1 1.2-1-.3 0-2.5-2.6-5.2-3.4-3.4-.2.6-.3.1-.1-1.3.2-1.4.4-2.9.4-3.3.1-.5.5-.5 1.1-.2.6.3.7-.1.4-1-.4-.9-1.2-1.4-1.9-1.1-.9.3-1.1-.2-.7-1.6.3-1.4.1-1.9-.6-1.4-.7.4-1.2.2-1.2-.4 0-.6-.4-.8-1-.5-.5.3-1-.1-1-.9 0-.9-.6-1.6-1.2-1.6-.9 0-.8-.4.2-1s1.1-1 .3-1c-.7 0-1.3-.5-1.3-1.1 0-.5.4-.8.9-.4.5.3 1.3 0 1.7-.6.5-.8.3-.9-.6-.4-1 .6-1.2.4-.7-.9.4-.9.3-1.5-.2-1.2-.5.3-1.1-.4-1.4-1.5-.4-1.4-1-1.8-1.9-1.3-1 .6-1 .4.1-.9 1.1-1.4 1.1-1.7 0-1.7-.8 0-.5-.6.7-1.5 1.8-1.3 1.8-1.4-.6-.9-1.8.4-2.1.3-1.1-.4.7-.5 1-1.5.7-2.1-.4-.6 0-1.1 1.1-1.2 1 0 1.3-.3.6-.5-.7-.3-.9-1.2-.6-2.1.5-1.2.3-1.4-.7-.8-1 .6-1.2.4-.7-.8.6-1.5.1-1.9-1.9-1.6-.6 0-4.4-4.1-4.4-4.9 0-.2.8.2 1.7.9 1.5 1.2 1.6 1.2.8-.1-.6-.8-1-1.8-1-2.2 0-.3-.4-1-.9-1.5s-.6-.3-.2.4c.4.7.2 1.3-.3 1.3-.6 0-1.1-.7-1.1-1.6 0-.9-.8-2.3-1.7-3-1.4-1.1-1.5-1.3-.2-.9 1.2.5 1.5-.1 1.3-2.7-.1-1.8-.3-3.3-.4-3.3-.1 0-.3-.8-.5-1.8-.2-.9.1-1.5.6-1.1.5.3.9.2.9-.1 0-1-2.8-3.5-3.9-3.5-.5 0-1.3-.5-1.7-1.2-.4-.7-.3-.8.4-.4.8.5 1.2 0 1.2-1.3 0-1.2-.4-2.1-1-2.1-.5 0-1-.8-1.1-1.8 0-1.4-.2-1.4-.9.3-.8 1.9-.9 1.9-.9-.2-.1-1.2.4-2.5.9-2.8.6-.3 1-1.2 1-1.8 0-.8-.3-.8-.9.1-.6 1-1 .7-1.3-1.3-.3-1.5 0-3.2.9-4.1 1-.9 1.1-1.4.2-1.4-.8 0-.8-.5.2-1.7.8-1 .9-1.4.2-1-.6.4-1.5.2-1.8-.4-.4-.5-1.4-.8-2.2-.4-1.3.4-1.4.3-.3-1 1-1.2 1-1.8-.1-3.2-.8-.9-.9-1.4-.3-1 .7.4 1.4 0 1.7-.8.4-.9.1-1.2-.9-.8-2.1.8-.7-2.5 2.5-6.1 1.7-1.9 2-2.7 1-2.3-1.5.5-1.5.3-.2-2.4 1.2-2.5 1.8-2.8 2.9-1.8 1.2 1 1.8.9 3.2-.5 1.1-1 1.3-1.9.7-2.4-1.5-1.1-1.4-5.2.1-5.2.8 0 1.4-.5 1.4-1.1 0-.5-.5-.7-1.2-.3-.7.4-.8.3-.4-.5.6-.9 1.1-.9 2.4.1.9.7 1.3.8.9.2-.4-.7 0-1.7.8-2.4 1-.8 1.5-.9 1.5-.2s.7.9 1.7.5c1.3-.5 1.5-.2 1 1.2-.6 1.5-.5 1.6.8.5 1-.8 1.5-.9 1.5-.1 0 .6.5 1.1 1.1 1.1.6 0 .8-.7.5-1.6-.3-.8-.2-1.2.4-.9 1.1.7 3.2-2.9 2.2-4.1-.4-.5.2-.2 1.2.6 1.7 1.3 1.8 1.3 1.1.1-.6-1.1-.4-1.3.8-.8.9.3 1.9.2 2.3-.4.3-.6 1-.6 1.7-.1 1.5 1.2 4.8 1.2 4.1 0-.3-.4.2-.8 1.1-.8.9 0 1.4-.4 1.1-.9-.4-.5.5-.8 1.8-.7 1.4.2 2.4-.2 2.3-.8-.3-1.5 4.5-1.6 6.5-.1 2.3 1.5 7.4.8 9-1.4 1-1.3 1-1.4-.2-.4-2.2 2-3.2 1.5-1.2-.5.9-1.1 2.1-1.7 2.5-1.5.4.3 1.4-.1 2.2-.7.8-.7 2.6-1 4-.8 1.6.4 3-.1 4.2-1.5 1-1.1 1.2-1.7.6-1.3-.7.4-1.3.2-1.3-.3 0-1.4 1.7-1.4 2.5-.1.4.6 1 .8 1.5.5 1.2-.8 5.1 3.6 4.3 4.8-.3.6-.1.7.4.4.6-.4 1.4 0 1.7.8.3.8 1 1.4 1.5 1.3.5-.2.9.1.9.7 0 .5-.4.9-.8.8-1.3-.4-.5 2.8.9 3.6 1 .6.9 1-.3 1.4-.9.4-1.6 1.2-1.5 1.9 0 1 .2 1 .6 0 .2-.6.9-1.2 1.4-1.2.4 0 .6.7.3 1.5-.4.8-.1 2.2.6 3 .7.8 1 2.2.6 3-.3.9-.2 1.4.2 1.1.5-.3.9.1.9.8 0 .8-.7 1.2-1.5.8-1.1-.4-1.3-.1-.7.8.6 1 .4 1.2-.8.7-1.1-.4-1.4-.2-1 .8.3.8 1 1.2 1.7.8.6-.3.6-.1-.1.8-.7.7-1.3 1.7-1.3 2.2 0 .4.6.5 1.3.1.7-.5.6 0-.3 1.1-.9 1.1-1 1.6-.2 1.1.6-.4 1.2-.2 1.2.3 0 .6-.8 1.1-1.7 1.1-1.5 0-1.4.2.3 1.6 1.4 1.1 1.5 1.4.3 1.1-1.2-.4-1.5 0-1.1 1.9.3 1.9.1 2.3-1.1 1.8-.8-.3-1.8 0-2.3.7-.4.8-.3 1 .4.5.7-.4 1.2-.2 1.2.3 0 .6-.6 1.1-1.2 1.1-.9 0-.8.3.2 1 1.3.8 1.2 1.2-.4 2.7-1 1-1.6 1.2-1.2.5.4-.6.2-1.2-.3-1.2-1.8 0-1.2 2.5.9 4s2.9 4.7.8 3.4c-.7-.4-.8-.3-.4.5.4.6 1.2.9 1.7.6.5-.4.9-.1.9.4 0 .6.5 1 1.2.8 1.5-.3 1.7 2.5.3 3.6-.6.4-.1.7 1 .5 1.1-.2 1.9.2 1.8.8-.1.7.6 1 1.8.7 1.1-.3 1.8-.8 1.5-1-.7-.7 1.8-3.2 2.7-2.6.4.2.7-.1.7-.6 0-.6-.5-1.1-1-1.1-.6 0-.3-1.1.6-2.5.9-1.4 1.9-2.3 2.3-2.1.3.2.6-1.5.6-3.9s-.4-4.1-1-3.9c-.6.3-1.6-.5-2.3-1.6-.7-1.1-.8-2-.4-2 .5 0 .9-.6.9-1.4 0-.8-.6-1.2-1.5-.8-1 .3-1.3.1-.8-.6.4-.7.3-1.2-.2-1.2s-1.2-.9-1.5-2c-.3-1.1-.2-2 .3-2 .8 0 .5-4.3-.5-5.9-.3-.6 0-1.1.7-1.1 1.1 0 1-.2 0-.9-1.1-.7-1.1-.9.2-1.4.9-.4 1.6-1.2 1.5-1.9 0-1-.2-1-.6-.1-1 2.6-2.1 1.2-1.3-1.6.4-1.5.4-3.4-.1-4.2-.5-.8-.3-1.6.4-2.1.9-.6.8-.8-.2-.8-1.1 0-1.1-.3-.1-1.5s1-1.5-.1-1.5c-.9 0-1-.3-.4-.8.9-.6 1.4-2.3 1.7-6 .1-.6.7-1.2 1.5-1.2.7 0 1.3-.5 1.3-1.1 0-.6.6-.9 1.3-.6.8.3 1.4-.1 1.4-.9 0-.7-.5-1-1-.7-.6.4-.7.1-.3-.6.5-.7 1.4-1 2.2-.7.7.3 1.6.1 1.9-.4.4-.6 1.1-1 1.6-1 .6 0 .7.5.3 1.2-.4.7-.3.8.5.4.6-.4.9-1.1.6-1.5-.2-.5.8-2 2.4-3.3 2.2-2 3.2-2.3 4.6-1.5 1.3.7 1.6.6 1.1-.2-.9-1.3-.9-1.3 3.2-.2 2 .6 3 .6 2.7 0-.4-.5.1-.9 1-.9 1 0 1.4.5 1 1.2-.4.7-.1.6.7-.2.7-.8 2.2-2.2 3.2-3 1.8-1.3 1.9-1.3 1.2 0-.4.8 0 .6.8-.4.9-1.1 1.6-1.5 1.6-.9 0 2 3.4 2.5 4.7.7.7-1 1.3-1.2 1.3-.6 0 .8 1.2 1.1 3.5.8 1.9-.3 3.7 0 4 .5.4.5 1.2.9 1.8.9.7 0 .6-.4-.3-1-1.3-.8-1.3-1 .2-1 .9 0 1.8-.4 2-1 .5-1.4 7.1-1.9 8.7-.6 1.2.8 1.3.8.7-.2-.6-1 .1-1.2 3.4-.7s4 .3 3.4-.7c-.6-1.1-.5-1.1.8 0 1.4 1.1 1.7 1 2.3-.7.7-2.4 2.5-2.7 4.4-.9 1.2 1.1 1.3 1 .7-.6-.5-1.6-.4-1.7.9-.6 1.2 1 1.5 1 1.6-.1zm37.9-.5c0 .3-.4.8-1 1.1-.5.3-1 .1-1-.4 0-.6.5-1.1 1-1.1.6 0 1 .2 1 .4zm7.1 4.3c1.3 1.6 1.2 1.7-.3.4-1-.7-1.8-1.5-1.8-1.7 0-.8.8-.3 2.1 1.3zm197.6 31.9c-.3.3-1.2.4-1.9.1-.8-.3-.5-.6.6-.6 1.1-.1 1.7.2 1.3.5zM347.5 201c-.3.5-1.2 1-1.8 1-.7 0-.6-.4.3-1 1.9-1.2 2.3-1.2 1.5 0zm-7.5 7.6c0 .8-1.9 1.3-2.4.6-.3-.5.1-.9.9-.9s1.5.2 1.5.3zm295.5 13.3c.3.5.2 1.2-.3 1.5-.5.3-.9-.1-.9-.9 0-1.7.3-1.9 1.2-.6zm55 5.1c-.3.5-.1 1 .4 1 .6 0 1.1-.6 1.1-1.3 0-.8.4-.7 1 .3.9 1.3 1 1.3 1 0 0-.9.3-1.1.8-.5 1 1.4 3.2 1.7 3.2.5 0-.7.6-.7 1.9-.1 1 .6 2.1.8 2.3.5.3-.3.8.2 1.1 1 .4 1.1.1 1.3-1 .9s-1.4-.3-.9.6c.4.7.9 2.3 1 3.5.2 1.3 1.6 3.7 3.1 5.2 1.6 1.6 2.3 2.1 1.5 1.1-1.1-1.5-1.1-1.7.4-1.1 1 .4 1.6.1 1.6-.9 0-1.1.8-1.4 3-1.1 2 .4 3 .1 3-.7 0-.7.3-1 .6-.7.3.4 0 1.6-.6 2.8-.8 1.5-.8 2-.1 1.6.6-.4 1.1-.3 1.1.3 0 .5-.6 1.1-1.2 1.4-.8.3-.1.9 1.5 1.6 1.5.6 2.7 1.8 2.7 2.8 0 1.5.2 1.6 1 .3.6-1 1-1.1 1-.3 0 .7.5 1.3 1.1 1.3.5 0 .7-.6.3-1.3-.6-.8-.3-.8.9.1 1 .9 1.5 2.5 1.3 4.3-.3 2.4-.1 2.7 1.1 1.7 1.1-.9 1.3-.8 1.1.3-.2.8.3 1.3 1.1 1.1 1.2-.3 1.2 0 .1 1.3-1.1 1.3-1 1.4.5.9 1-.4 2.1-.1 2.6.7.7 1.1.9 1.1.9.1s.3-1 1.4 0c.8.7 1.2 1.6 1 1.9-.2.3.3.6 1.1.6s1.5-.5 1.5-1c0-.6.3-.7.6-.4.4.4.1 1.3-.6 2.2-1.3 1.6-.5 2 2.9 1.5 1.3-.2 1.3 0 0 1.6-.8 1.1-.9 1.5-.1 1s1.2-.1 1.2 1.1c0 1.5.2 1.6 1 .3.7-1.1 1-1.1 1-.2 0 .7 1.1 2.4 2.5 3.8 2.2 2.2 2.8 2.4 4.2 1.2 1.4-1.1 1.6-1.1.8.2-1.3 2.1-1.5 4.1-.4 3.4.5-.3.9 0 .9.6s.4.9.9.5c.5-.3 1.3 0 1.7.6.4.7.3.9-.4.5-.6-.4-1 .1-.9 1.3 0 1.1.5 1.7 1.1 1.4.5-.4.7.1.3.9-.4 1.1.2 1.8 1.6 2.2 1.7.5 1.9.8.8 1.5-.9.6-1 1.1-.2 1.5.8.5.8 1.3.1 2.7-.7 1.3-.7 1.9 0 1.9 1.4 0 1.3 2.7-.2 3.3-1.1.5 1.4 1.1 3.3.9.3-.1.6.6.6 1.4 0 .7-.3 1.4-.6 1.4-.8 0-.6 6.9.2 7.7.4.3.2 1.2-.4 2-.9 1-.8 1.3 0 1.3.7 0 .9.5.6 1-.4.6-1.2.7-1.8.3-.9-.5-.9-.3-.1.8.7.8 1.1 4 .9 7.4-.1 3.3.2 6.8.7 7.9.7 1.2.7 1.6 0 1.2-.6-.4-1 .2-.9 1.3 0 1.1.4 1.9.7 1.9 1.8-.2 2.9.4 3.5 1.9.5 1.5.4 1.6-.6.5-2.1-2-3-1.4-1.2.8 1.1 1.3 2.1 1.6 2.8 1 .8-.7 1.2-.5 1.2.5 0 .8-.4 1.2-.8 1-.4-.3-1.5.7-2.4 2.1-.9 1.5-1.3 2.4-.7 2 .5-.3 1.5.1 2.2.9.7.8 1.7 1.5 2.2 1.5.6 0 .5-.7-.2-1.5-1-1.2-1-1.5.1-1.5s1.1-.2-.1-1c-1-.6-1.1-1-.3-1 1.3 0 1.3-2.6 0-4.6-.3-.6.4-2.3 1.7-3.7 2.1-2.3 2.2-2.7.7-3.2-1.4-.6-1.3-.8.4-1.5l2-.9-2-.1c-1.9-.1-1.9-.1-.2-1.1 1.3-.8 1.5-1.4.8-2.3-.6-.7-1.3-2.7-1.5-4.5-.3-2.7-.1-3 1.2-1.9s1.5 1 .9-.4c-.4-1.2-.1-1.6 1.3-1.3 1.1.2 2.2 0 2.5-.5.3-.4 1.4-.6 2.5-.3 1.8.5 2.7 3.3 2.1 6.6-.1.5.3.6.9.2.5-.3 1 .1 1 1s.3 1.4.8 1.2c.4-.2 1.7.7 2.9 2s1.9 2.3 1.4 2.3c-.4 0-.8.7-.8 1.5 0 .9.6 1.4 1.4 1.1.8-.3 1.1-.1.8.4-.3.6-.1 1 .5 1 .7 0 1 .6.7 1.4-.3.7 0 1.9.6 2.5.6.6.8 1.1.3 1.1-.4 0-.1.7.8 1.5 1.8 1.8 3 2 2 .2-.5-.7-.1-.7 1 .2 1 .8 1.5 2.3 1.3 3.3-.4 1.2.3 2.4 1.9 3.5 1.9 1.2 2.2 1.9 1.3 2.9-.8 1-.8 1.4 0 1.4.6 0 1.1.5 1.1 1.1 0 .5-.4.7-1 .4-1.6-1-1.1.1.7 1.6 1.4 1.2 1.6 1.2.8 0-.6-1-.4-1.2.4-.6.7.4 1.1 1.8.8 3.1-.2 1.3 0 2.4.5 2.4s1.6.7 2.4 1.5c1.2 1.2 1.2 1.5.2 1.6-1 0-1 .2 0 .6.9.3 1 .9.2 1.8-1.2 1.4-.3 4.8 1.1 3.9.5-.3.9 0 .9.6s.4.9.8.6c.4-.3.7.8.6 2.5-.2 2.4.2 2.9 1.9 2.9 1.8 0 1.9.2.7 1-1 .6-1.1 1-.2 1 .6 0 1.1.3 1.1.7-.1.5 0 1 .1 1.3 1.1 2.8.7 4-1.1 3.5-2-.7-2-.6-.2 1.4 1.8 2.2 2.9 2.8 1.8 1.1-.3-.6.1-.7.9-.4 1.1.4 1.3 1.1.7 2.3-1.1 2 .2 4.7 1.7 3.7.6-.3 1.3-.2 1.6.3.4.5.2 1.2-.3 1.6-1 .6-1.1 4.4-.1 4.3 2.8-.2 3.7.4 3.5 2.7-.2 1.4.1 2.7.6 3.1 1.2.7 1.1 2.4-.2 2.4-.5 0-.7-.6-.3-1.3.4-.6.3-.9-.1-.4-1 .8-1.4 5.7-.4 5.2.3-.3 1.5.2 2.5 1 1.7 1.3 1.7 1.6.4 2.6-1.2.9-1 1 1 .5 2.4-.5 2.4-.4.6.9-1.2.9-1.5 1.5-.7 1.5s1.1.6.7 1.5c-.3.8-.2 1.4.2 1.4 2-.3 5.1 1.5 5.5 3.2.3 1 .1 1.7-.4 1.3-.5-.3-.9 0-.9.6s-.4.8-1 .5c-.5-.3-1-.1-1 .5s-.4.9-.9.6c-.5-.4-.8 0-.7.6.3 2.4 1.7 3.7 3.1 3.1 1.1-.4 1.3-.1.9 1.1-.4 1.1 0 1.6 1.2 1.7 1.6.1 1.6.2.3.6-2.4.6-3 4-1.1 5.5 1.3 1.1 1.5 1.1.7-.2-.4-.8.2-.5 1.4.7 2.3 2.4 2.8 3.9.9 2.7-.7-.4-.8-.3-.4.5.4.6.2 1.9-.6 2.8-.7.9-.8 1.4-.3 1.1.6-.4 1.7-.3 2.5.3 1.2.7 1.1.9-.5 1-1.1 0-1.4.3-.7.6.6.2 1.2.9 1.2 1.4 0 .6-.4.8-.9.4-.5-.3-1.3-.1-1.6.5-.4.6-.1.9.6.8.7-.2 1.2 1 1.4 2.9.1 1.8-.2 3-.7 2.7-.4-.3-.8 0-.8.5 0 .6.4 1.1.8 1.1.5 0 .9.7.9 1.5s-.4 1.2-.9.9c-.4-.3-.8 0-.8.5 0 .6.5 1.1 1 1.1.6 0 1 .5 1 1.1 0 .5-.5.7-1.2.3-.7-.4-.8-.3-.4.5.4.6 1.2.9 1.7.6.5-.4.9-.1.9.4 0 .6.5 1.1 1.1 1.1.5 0 .7-.5.4-1-.3-.6-.1-1 .4-1 1.4 0 1.4 1.7 0 2.5-.6.4-.8 1.3-.5 2 .6 1.8-.5 2.7-1.9 1.5-.8-.7-1.9-.2-3.5 1.7-1.6 1.8-1.8 2.4-.6 2 .9-.4 1.6-.2 1.6.4 0 .6.4.8.9.5 1-.7.9 2-.2 3-.4.4-.7 1.2-.7 1.8 0 .6.4.4 1-.4.7-1.2 1.2-1.2 2.9.4l2 1.9-2.1 3.1c-1.5 2-1.6 2.6-.6 1.8 1.5-1.2 1.7-1.1 1.5.7 0 1.1-.4 1.9-.7 1.9-2-.2-3 .4-3 1.8 0 .8-.4 1.3-.9 1-.4-.3-1.7.4-2.7 1.6-1.1 1.2-1.4 1.8-.8 1.5.7-.4 1.5 0 1.8.9.3.8.2 1.2-.4.9-.6-.3-1-.1-1 .6s1 .9 2.5.7c2.1-.4 2.3-.3 1.4 1.3-.7 1.3-.6 1.9.2 1.9.6 0 .9.7.5 1.5-.3 1 .1 1.5 1.2 1.5 1.5 0 1.5.2.2 1-1.3.9-1.3 1 0 1 1.1 0 1.5.9 1.4 2.7 0 1.6.4 3.2 1 3.6.7.5.4.6-.8.3-1.4-.5-1.7-.2-1.2 1 .5 1.3.3 1.4-.7.6-1-.9-1.3 0-1.2 4.8 0 3.2-.3 5.6-.7 5.3-.5-.2-.8.1-.8.6 0 .6.4 1.1 1 1.1.5 0 .7.7.4 1.5-.4 1-.2 1.3.8 1 .8-.3 1.5 0 1.5.7s.3 2.2.6 3.4c.5 1.5-.2 2.9-2.5 5.4-1.8 1.8-2.8 3.1-2.2 2.7.6-.3 1.1 0 1.1.8s-.4 1.2-.8.9c-.4-.2-1 0-1.4.6-.5.9.6 1.4 2.6 1.2.3-.1.6.6.6 1.3 0 1.1-.4 1.2-1.3.4-.8-.7-1.4-.6-2 .2-.4.8-.3.9.4.5 1.1-.7 1.7.6 1.3 2.8-.1.5.6.3 1.5-.5 1.6-1.3 1.6-1.2.5.9-.6 1.2-.9 2.7-.6 3.2.3.6-.3 1-1.5 1s-1.8.4-1.5 1c.3.5.1 1-.5 1s-.8.5-.4 1.2c1.4 2.2 1.1 4.8-.5 4.8-1.1.1-.7.6.9 1.5 1.4.8 2 1.4 1.5 1.5-.6 0-1.1 1.5-1.2 3.2-.4 5.7-.5 5.9-2 4.6-1.1-.9-1.2-.7-.7.7.5 1.2.4 1.6-.4 1.1-.6-.3-1.4-.1-1.8.5-.4.7-.3.9.3.6.6-.4 1.6 0 2.3.8 1.1 1.3 1 1.4-.4.9-.9-.3-1.6-.1-1.6.5s.6 1.1 1.3 1.2c.9 0 .9.2 0 .5-.7.3-.9 1.2-.6 2 .3.7 1 1.1 1.7.7.6-.3.1.5-1.2 1.9-1.2 1.3-1.9 2.8-1.5 3.2.4.4 0 .4-.9.1-.9-.4-1.9-.1-2.4.6-.4.7-.3 1 .3.6s1.4 0 1.7.9c.3.8.2 1.3-.3 1-.5-.3-1.1.1-1.4.9-.4 1-.1 1.2 1.1.9 1.5-.5 1.4-.3-.2 1-1 .8-1.5 1.9-1.1 2.5.3.7 0 .8-.9.5-1.1-.4-1.4.1-1.2 2 .2 1.4-.3 2.7-1 3-.7.3-1.1 1.4-.9 2.5.2 1.2-.1 2-.8 1.8-.7-.1-1.1.6-1.1 1.5.1.9-.4 1.4-1.1 1.2-.7-.3-1.6 0-2 .6-.3.6-.3 1 .2.9 2.4-.4 2.5.3.3 1.7-1.4.8-1.7 1.3-.7 1 1.1-.3 1.5-.2 1.2.4-.3.6-1 1-1.6 1-1.3 0-4.9 3.8-4.9 5.2 0 .9.4.8 1-.2 1.1-1.7 1.3-1 .4 1.4-.3.9-1 1.3-1.5 1-1.8-1.1-3 .7-1.7 2.4.8 1 .9 1.3.1.9-.6-.4-1.4-.3-1.8.3-.3.5-.2 1 .3 1s.9.6.9 1.3c0 .9-1 1.3-2.4 1.1-1.3-.1-2.1.2-1.7.7.3.5 1.1.6 1.7.2.7-.4.6 0-.2 1-.7.9-1.6 1.5-2 1.3-.4-.3-1.3.4-2 1.6-.9 1.5-.9 1.8 0 1.3.7-.5 1-.3.7.6-.3.8-1.1 1.3-1.8 1.1-1-.2-1 .1.1 1.4.9 1.2.9 1.5.2 1-.8-.4-1.3-.2-1.3.4 0 .6-.5.8-1.1.4-.8-.4-.8-.1-.1 1.3.8 1.5.5 2.3-1.3 4-1.3 1.1-2.5 2-2.7 1.9-.2 0 .2.4.8.9 1.3 1.1-.6 3.5-2.7 3.5-.6 0-.9.8-.6 2 .3 1.1.1 1.8-.4 1.4-1.6-.9-3.1.6-1.9 2.1.7.9.5 1.9-1 3.6l-2.1 2.4 1.7-3 1.6-3-2.1 2.5c-1.2 1.4-1.9 3.3-1.7 4.2.2 1 0 1.8-.5 1.8s-.9.6-.9 1.4c0 .8-1.1 1.7-2.5 2-1.7.4-2.3 1.1-1.8 2.3.5 1.3.2 1.5-1.5 1.1-1.9-.5-2-.4-1.1 1.4.8 1.5.8 1.9 0 1.4-.7-.4-1.1.1-1.1 1.4 0 1.1-.7 2.3-1.5 2.6-.8.4-1.2 1-.9 1.5.4.8-1.6 1.3-3.7 1.1-.4-.1-.5.8-.2 1.8.4 1.6 0 2-1.8 2-1.7 0-2 .3-1 .9 1.4.9 1.1 1.3-3.4 3.7-1.2.6-1.9 1.8-1.7 2.9.3 1.7.2 1.7-1.4.4-1.1-.8-1.5-.9-1-.2.4.8.2 1.3-.5 1.3s-.9 1-.6 2.6c.4 2.2-.1 2.8-3.9 4.7-2.8 1.3-4 2.4-3.2 2.8.8.5.4 1.1-1.2 1.9-3.2 1.4-6.4 3.3-8.2 4.8-.8.6-1.7.9-2 .6-.3-.3-.5.3-.4 1.3 0 1-.4 1.7-1.1 1.6-.7-.2-1 .6-.8 1.8.4 1.8.2 1.9-1.2.7-.9-.7-1.4-.8-1-.2.4.7 0 1.5-.9 1.8-.9.4-1.4.9-1.1 1.2.8.9-6.3 7.5-7.4 6.9-.4-.3-.6.4-.4 1.6.3 1.7.1 1.9-1 .9-.9-.7-1.5-.8-2 0-.3.5 0 1 .7 1.1 1 0 1 .2 0 .6-.6.2-.9 1-.5 1.6.4.7.1.7-.9-.1-1.3-1-1.8-1-2.4-.1-.5.8-.3.9.7.4 1.2-.8 1.2-.6 0 .8-.7.9-1.8 1.4-2.4 1-.7-.4-.8 0-.3 1.2.5 1.5.4 1.6-.8.6-1.3-1.1-1.5-.9-1.1.8.3 1.4 0 1.8-1.1 1.4-.9-.3-1.4 0-1.2.8.2.7-.3 1.3-1 1.4-1.5 0-3.3 2.6-2.6 3.6.2.4-.1 1.1-.7 1.5-.8.5-.9.3-.4-.6.5-.8.3-1.1-.6-.8-.8.3-1.3 1.1-1.1 1.8.2.8-.3 1-1.3.6-1.3-.4-1.4-.2-.5 1.4.7 1.4.7 2 0 2-.5 0-1-.5-1-1 0-.6-.6-.5-1.4.2-.8.7-1.2 1.6-1 1.9.2.4-.6 1.5-1.8 2.5-1.2 1.1-1.8 1.4-1.4.7.4-.7-.2-1.7-1.5-2.3-1.2-.7-1.9-.8-1.6-.3 1 1.5-1.8 4.1-4.3 3.9-1.9-.1-2.4.3-2.2 1.8.2 1.1-.1 1.5-.7 1.1-.6-.3-1.1.1-1.1 1 0 1-.5 1.3-1.2.9-.8-.5-.9-.2-.4 1.1.6 1.6.4 1.6-1.1.4-1.5-1.2-1.6-1.2-1.1.7.4 1.6.1 2.1-1.1 2-1-.1-1.5.6-1.5 1.7.2 1.5-.1 1.6-1.4.5-1.2-1-1.4-1-.8-.1.5.9.1 1.3-1.1 1.3-1.5 0-1.6.2-.3 1 1.1.8.9.9-1 .6-1.4-.3-2.5-.5-2.5-.6 0-.1-.8-.3-1.8-.5-1.3-.2-1.7.1-1.3 1.1.3.8.2 1.4-.2 1.4s-1.8.3-3.1.7c-1.8.5-2.2.3-1.6-.7.6-.9.4-1.1-.4-.6-.7.5-1 1.5-.7 2.3.3.8.2 1.2-.3.9-.5-.3-1.1 0-1.4.7-.2.7-1.7 1.3-3.3 1.5-1.6.1-3.5 1-4.4 1.9-1.4 1.5-1.3 1.6.2.4 1.1-.8 1.8-.9 2.3-.1.4.6.3 1-.2.9-1.5-.2-5.3 1.3-4.9 2 .3.4-.4.7-1.4.7-1 0-1.7-.3-1.4-.7.2-.4-.9-.6-2.5-.5-1.6 0-2.7.4-2.4.9.2.4.8.5 1.3.2s1.1-.2 1.4.3c.6.9-.6 1.2-5.9 1.5-2.3.1-3.5.7-3.5 1.7-.1 1.1-.4 1-1.5-.4-1.8-2.4-2-1.3-.3 1.7 1 1.9.9 2.1-.4.9-1.1-.9-1.8-1-2.3-.2-.3.5-1.4 1-2.4 1s-2.6 1-3.5 2.3c-.9 1.2-1.4 1.7-1.1 1 .3-.6.1-1.4-.5-1.8-.5-.3-1 0-1 .7 0 .9-.3.9-1-.2-.8-1.3-1-1.2-1 .4 0 2 0 2-1.5 0-.9-1.2-1.4-1.4-1.5-.5 0 .8-.6 1.1-1.6.7-1.3-.5-1.4-.4-.5.7.9 1.2.6 1.4-1.5 1.1-1.8-.2-2.4.1-2 1.1.3.9 0 1.2-1 .8-.7-.3-1.4-1-1.4-1.7 0-.6-.6-.3-1.4.6-.9 1.3-1.6 1.4-2.4.6-.8-.8-.9-.4-.6 1.3.5 1.9.4 2.1-.5.9-.7-1-1.1-1.1-1.1-.2 0 .8-.8 1-2.5.6s-2.5-.2-2.5.7c0 .8-.6.5-1.6-.7-1.5-1.9-1.6-1.9-1 .1.5 1.8.4 1.8-.6.3-1.1-1.5-1.3-1.5-2.6 0-.7.9-1.1 1.1-.7.5.4-.9.1-1.1-1-.7-1.2.5-1.3.9-.4 2 1 1.2.8 1.3-1.6.4-2-.7-3.1-.8-3.9 0-1.3 1.3-3.9 1.3-3.1 0 .3-.6-.1-.7-.9-.4-.9.3-1.3 1-1 1.5.3.5-.2.6-1 .3-.9-.3-1.6-1-1.6-1.6 0-.5-.5-.6-1-.3-.6.4-.8 1.1-.5 1.6.4.5.1.9-.5.9s-.8.5-.4 1.1c.4.7-.3.6-1.7-.2-2.4-1.3-4.3-1.9-6.6-2.1-.7-.1-1-.5-.7-1 .5-.7-1-1.2-2.9-.9-.5.1-.6-.3-.3-.8.4-.5.2-1.2-.4-1.6-.5-.3-1-.1-1 .5s-.5.8-1.2.4c-.8-.5-.9-.2-.5.9.3 1 .2 1.7-.3 1.7s-.7.6-.4 1.3c.3.8-.3 2-1.2 2.8-1 .8-1.5.9-1.1.3.4-.7 0-1.5-.9-1.8-.8-.3-1.2-.2-.9.4.9 1.5-1.2 1.2-3.8-.4-1.2-.8-3.5-1.7-5.1-1.9-1.6-.2-3.4-1.1-4.1-2-.6-.9-1.6-1.3-2-.9-.4.4-.3-.3.3-1.4 1-2 .9-2.1-1.8-1.8-1.7.2-3-.1-3-.6 0-.6-.7-1-1.6-1-.8 0-1.3-.4-1-.9.3-.5-.1-1.2-1-1.5-.8-.3-1.2-1.1-.8-1.7.4-.8.3-.9-.4-.5s-1.2.2-1.2-.3c0-.6-.5-1.1-1.1-1.1-.5 0-.7.4-.4 1 1 1.6-.1 1.1-1.6-.7-1-1.1-1-1.4-.1-.9.6.4 1.2.2 1.2-.3 0-.6-.9-1.1-1.9-1.1-2.5 0-2.2-3.3.4-4 2.3-.7 2.7-4.7.5-4.2-1.3.2-1.3 0 0-1 1.6-1.3 2.6-6.3 1.2-5.4-.5.3-.9-.1-.9-.9s.4-1.2.9-.9c1.6 1 .8-.9-.9-2.2-1.7-1.3-1.7-1.4.1-.7 1.3.4 1.7.3 1.2-.5-.9-1.5-1.7-5.7-1-4.9.9.9 3.3-1.6 2.6-2.7-.3-.5.3-.6 1.4-.3 1.8.7 1.8.6.1-.7-1.4-1-1.5-1.5-.5-1.9.7-.3.3-.6-.9-.6-1.3-.1-2.3-.7-2.4-1.4 0-.6-.2-1.9-.4-2.7-.2-1.5 2.4-4.8 3.5-4.2.3.1.6-.7.6-1.8.1-1.1-.1-1.8-.4-1.6-.2.3-1.1-.1-1.9-.9-1.1-1.2-1.1-1.8-.1-3.5.7-1.1 1.5-2 1.9-2 1.1 0 .6-3-.5-3.1-.6 0-.2-.4.9-.9 1.4-.6 1.5-.9.5-.9-1.2-.1-1.5-1.1-1.4-3.9.1-2 .3-3.9.4-4.2.1-.3.2-.9.1-1.3-.1-.5.3-.6.9-.2.8.5.7 1.2-.2 2.3-1.2 1.5-1.1 1.6.4.3 1-.7 1.5-1.7 1.2-2.2-.3-.5 0-.9.6-.9s.8-.5.5-1c-.3-.6 0-1 .7-1.1 1 0 1-.2.1-.6-.7-.2-1.3-.9-1.3-1.4 0-.5.6-.8 1.3-.6.6.1 1.1-.4.9-1.2-.2-.9.3-1.1 1.5-.7 1.5.6 1.5.5.2-1.1-.8-1-1.4-2.4-1.3-3.1.1-.6.2-1.9.3-2.8 0-.9.6-1.2 1.3-.8.7.5.8.3.2-.7-1.2-2-1.4-3.8-.3-4.5.6-.3.5-1.2-.3-2.2-1.1-1.4-1-1.5.6-.9s1.7.5.6-.8-1-1.4.4-.9c1.4.5 1.5.1 1-3.1-.4-2.9-.3-3.6.8-3 1 .6 1.1.5.1-.6-1.6-1.6-1.7-3.3-.1-2.3.7.5.8.3.2-.7-1.3-2.1-1.5-4.7-.4-5.4.6-.3 1-1.2 1-1.8 0-.8-.3-.8-.9.1-.6 1-1 .7-1.3-1.1-.4-1.8-.1-2.4.9-2 .7.3 1.3 0 1.3-.7s.6-1 1.3-.7c.7.3 1.2-.4 1.2-1.9 0-1.4-.6-2.4-1.4-2.4-1.1 0-.9-.4.5-1.5 1.9-1.5 1.9-1.5-.1-.9-2 .7-2 .7 0-.9 1.1-.8 2.3-1.3 2.7-1.1.4.2 1-.1 1.4-.7.4-.7.3-.9-.3-.6-.6.4-1.4 0-1.7-.9-.3-.8-.2-1.2.3-.9.5.3 1.2.1 1.6-.5.3-.5.1-1-.6-1-.8 0-.7-.5.2-1.7 1-1.1 1-1.4.2-.9-.7.4-1.3.2-1.3-.3 0-.6.5-1.1 1.2-1.1.6 0 .4-.6-.7-1.3-1.4-1.1-1.5-1.6-.5-2.2.9-.6 1.1-.4.5.5-.5.9-.4 1.1.4.6.6-.4.9-1.2.6-1.7-.9-1.3.4-4.9 1.8-4.9.8 0 .8.3-.1 1.2-.7.7-1.2 1.7-1.2 2.3.1 1.2 2.3-2.5 2.6-4.3.1-.7-.3-.9-.9-.5-.8.4-.7.1.1-.9 1-1.3 1-1.7 0-2.2-.7-.3-.3-.3.9-.1 1.2.3 2.4.1 2.8-.5.3-.5-.2-1-1.2-1.1-1.6 0-1.6-.1.2-.9 1.1-.5 1.5-.9.9-.9-.7-.1-1.5-.8-1.8-1.7-.5-1.3-.4-1.4.7-.6 1 .9 1.3.5 1.1-1.7-.1-2.3.2-2.8 1.5-2.4 1.1.3 1.8-.1 1.8-1.1 0-.8-.4-1.3-.9-1-.4.3-.8 0-.8-.5 0-.6.8-1.1 1.7-1.1 1.5 0 1.4-.2-.3-1.5-1.4-1.1-1.5-1.4-.4-1.5 1.3 0 1.3-.1 0-1-1.1-.7-1.1-1-.2-1 .7 0 1-.5.7-1-.4-.6-1.2-.8-1.8-.4-.7.3-.5 0 .4-.8.9-.7 1.4-1.8 1.2-2.4-.2-.6.4-1.7 1.4-2.5 1.7-1.3 1.7-1.3.4.6-1.4 1.9-1.4 1.9.5.2 1.5-1.4 1.6-1.9.5-2.6-.9-.6-1-1-.2-1.6.9-.5.9-1 0-2.1-1-1.2-.9-1.7.1-2.7.9-.9 1.1-.9.6 0-.3.6-.2 1.4.3 1.7.5.4.8-.2.7-1.1-.2-1-1-1.8-1.9-1.8-.8 0-1.9-.4-2.4-.9-.4-.5-.3-.6.5-.2.6.4 1.2.2 1.2-.3 0-.6-.8-1.1-1.7-1.2-1 0-1.3-.3-.6-.5.8-.4.9-1.4.3-3.5-.8-2.7-.7-2.8 1.2-1.8 1.9 1 2 .9 1.6-1.4-.4-1.8-.1-2.4.9-2 .7.3 1 1 .6 1.7-.3.6-.4.9 0 .6.3-.3.5-.8.4-1.1-.1-.3 1.3-1.8 3.1-3.3 1.7-1.5 3.2-3.3 3.1-3.9 0-.8-.2-.8-.6 0-.9 2.3-1.8 1.4-1.8-1.7-.1-2.3.3-2.9 1.3-2.5 1.2.4 1.2.3.3-.9-1.1-1.3-.9-1.5.8-1.1 1.2.2 1.9 0 1.6-.6-.4-.5 0-.9.7-1 .7 0 .4-.4-.7-.9s-1.4-.9-.7-.9c.7-.1 1-.6.7-1.1-.4-.6-1.1-.8-1.6-.5-.5.4-.9.2-.9-.3 0-.6.7-1.3 1.6-1.6 1-.4 1.3-.2.8.6-.4.6-.3.8.4.4s.8-1.7.2-3.6c-.5-1.9-.5-2.8.1-2.5.5.4.9.2.9-.4 0-.5.9-1.3 2.1-1.6 1.9-.7 2-.7.2-2.1-1.2-.8-1.3-1.3-.5-1.4.8 0 1-.5.6-1.2-.5-.8-.2-.9 1.1-.4 1.6.6 1.6.4.4-1.1-.8-.9-.9-1.4-.3-1 .7.4 1.5 0 1.8-.9.3-.8.2-1.2-.3-.9-.5.3-1.2.1-1.6-.5-.6-.9.8-1.5 2.9-1.1.5.1.4-.5-.4-1.3-1.5-1.9-2.4-2.1-1.4-.4.4.7.3.8-.4.4-.8-.5-.9-1.3-.3-2.4.4-.9.6-2.3.4-3-.3-.7.1-2 .9-2.9.8-1 .8-1.4.1-1-.6.4-1.5.2-1.9-.4-.4-.7-.3-.9.4-.5.6.3 1.3.2 1.7-.4.3-.5.1-1-.6-1s-.9-.3-.6-.6c.4-.4 1.3-.1 2.2.6 1.3 1.1 1.4 1 .9-.5-.5-1.3-.4-1.6.5-1 1 .6 1.1.3.3-1.1-.5-1.1-.7-2.5-.4-3.3.3-.9 0-1.1-.9-.7-.8.4-.5 0 .5-.8 1.1-.9 1.6-1.6 1-1.6-.5 0-.1-.5.9-1.1.9-.5 2.1-.8 2.6-.4.5.3 1.3 0 1.7-.6.4-.8.3-.9-.4-.5s-1.2.2-1.2-.3c0-.6.5-1.1 1-1.1.6 0 1-.5 1-1.1 0-.6-.7-.9-1.5-.5-.9.3-1.5 0-1.5-1 0-.9-.5-1.2-1.2-.8-.7.4-.4-.3.7-1.6s1.4-2 .8-1.6c-.9.5-1.3 0-1.3-1.6 0-1.7.2-2 .9-.9.6 1 .9.1.8-2.5-.1-2.1-.6-4.2-1.2-4.6-.6-.5-.5-.8.3-.8s1-.5.6-1.3c-.6-.9-.5-.9.8 0 1.8 1.5 3.2.5 1.8-1.3-.8-.9-.6-1.2.7-1 1.2.1 1.7-.5 1.5-1.8-.2-1 .1-1.5.6-1.2.6.3 1.3-.1 1.6-1 .3-.8.2-1.3-.3-.9-.7.4-.8-.9-.2-3.3.1-.1 1.1.3 2.4.9 2 1.1 2.1 1.1.8-.5-.8-.9-1.1-1.9-.7-2.3.3-.3-.1-1.4-1-2.4-1.2-1.3-1.2-1.9-.3-2.5.8-.4 1-.3.5.4-.4.7 0 1.2 1 1.2s1.4-.3 1.1-.7c-.4-.3.1-1.2 1.1-2 1.6-1.4 1.6-1.4-.3-.9-1.7.5-1.7.4.4-1.2 1.8-1.5 2.1-2.1 1.1-2.7-.8-.5-1.1-.4-.7.2.3.5 0 1-.8 1-1.7 0-.9-1.6 2.2-4 1.3-1 2.3-2.4 2.3-3 0-.6-.7-.1-1.6 1.1-.8 1.2-1.9 2.2-2.5 2.2-.5 0 0-.9 1.2-2.1 1.5-1.5 2-3 1.7-5-.3-1.6-.1-2.9.3-2.9s.5-.8.2-1.8c-.2-1.1.4-2.5 1.4-3.3 1.6-1.3 1.7-1.3.4.3-.7 1-.9 1.8-.5 1.8.5 0 1.5-.9 2.2-2 .7-1.1.9-1.9.5-1.8-.5.2-.8-.2-.8-.7 0-.6.3-.9.6-.8.4.1 1.4-.6 2.3-1.6 1.3-1.4 1.4-2.1.5-2.7-.8-.5-1-.3-.4.7.5.8.4 1.1-.1.6-1.5-1.4-1.1-8.7.5-8.7 1.1 0 .9-.4-.5-1.5-1.1-.8-1.4-1.5-.6-1.5.6 0 1.1-.5 1-1.1-.2-.6.3-1.4 1.1-1.7.9-.3 1.1 0 .6.8-.5.9-.4 1.1.4.6.9-.6.9-1.1-.1-2.4-1-1.2-1-1.4 0-.8.7.4 1.2.2 1.2-.4 0-.6.5-.8 1-.5.6.3 1 .2 1-.4 0-.5.3-1.7.7-2.7.5-1.3.3-1.5-.8-.9-1.2.8-1.2.6 0-.8 1.5-1.9 3.6-2.3 2.5-.5-.4.7-.3.8.5.4.9-.6.9-1.1-.1-2.4-1.1-1.3-1.1-1.5.3-1 2 .8 1.9-2.3-.2-4.8-1.2-1.5-1.2-1.7 0-.9 1.1.6 1.3.4.8-.9s-.3-1.5 1.1-.7c1.6.8 1.8.4 1.6-4-.1-4 .2-4.9 1.4-4.4.9.3 1.2 0 .9-.9-.3-.8-.1-1.7.6-1.9.9-.3.9-.9 0-2.5-.8-1.3-.9-2.3-.3-2.7.5-.3.9-2.2.8-4.3-.1-6.4.1-7.4 1.6-6.9 1 .4 1.2-.3.9-3-.3-2.6-.1-3.3.9-2.7 1 .6 1 .5.1-.7-1.5-1.8-.1-4.5 1.7-3.4.9.5 1.1.4.6-.3-.4-.7.6-1.8 2.6-2.7 2.6-1.2 2.8-1.4.8-1.1-2.4.5-2.4.4-.6-.9 1.2-.9 1.5-1.5.7-1.5-1.1 0-1.1-.3 0-1.7 1-1.1 1-1.4.2-.9-.7.4-1.3.2-1.3-.3 0-.6.5-1.1 1.2-1.1.6 0 .3-.7-.8-1.5-1.9-1.5-1.9-1.5 0-.8 1.6.5 1.8.3 1.3-1.1-.4-1-.3-1.5.3-1.1.6.3 1 .1 1-.5s.5-.8 1.3-.4c.8.6.8.3-.1-.9-1.2-1.4-1.1-1.6.7-1.2 1.3.2 1.9 0 1.5-.6-.3-.5 0-1.6.6-2.4.7-.8 1-2.1.7-2.9-.4-1.1-.1-1.3 1-.9 1.3.5 1.4-.1 1-3.5-.3-2.7-.1-3.9.6-3.5.6.4.8 0 .4-1.1-.4-.9-.3-1.5.1-1.2.5.3 1.6-.6 2.6-1.9 1-1.4 2.2-2.2 2.7-1.9.5.3.6-.2.3-1-.3-.9-.1-1.6.6-1.6s.6-.6-.4-1.6c-2.1-2-2-2.8 0-2 1.4.5 1.5.4.4-.9-.7-.8-1.9-1.5-2.7-1.5-.8 0-1.1-.5-.8-1 .3-.6.1-1-.6-1s-.4-.7.7-1.6c1-.8 1.2-1.2.4-.8-1.2.7-1.3.5-.3-.8.7-.8 1-1.8.6-2.2-.4-.4 0-.4.9-.1.9.4 1.9.1 2.4-.6.5-.8.3-1-.6-.4-.9.5-1.1.4-.6-.4.6-.9 1.1-.9 2.1-.1.9.7 1.9.5 3.6-1.1 1.3-1.1 1.8-1.8 1.1-1.4-1.3.7-1.2-2.1.2-4.4.6-.9.5-1.2-.2-.7-.7.4-1-.1-.9-1.4.1-1 .7-2.2 1.5-2.5.7-.3 1-1 .6-1.7-.5-.8-.2-.9 1.1-.4 1.5.5 1.6.4.6-.8-.9-1.1-.9-1.6 0-2.2.8-.4.9-.3.5.4s-.2 1.2.3 1.2c.6 0 1.1-.5 1.1-1.1 0-.5.4-.7 1-.4.6.4.7-.1.3-1.1-.5-1.3-.3-1.5.7-.9.9.6 1.2.4.8-.7-.8-1.8 2.8-4.3 3.6-2.5.3.7.5.3.3-.8-.1-1.1.2-2.6.6-3.3.5-.7.3-1.2-.3-1.2s-.8-.5-.4-1.3c.5-.7 0-.6-1.1.3-1.5 1.2-1.7 1.2-1 .1.6-1.1.4-1.3-1-.7-1.8.6-1.8.6-.2-1.2 1.2-1.3 1.4-2.1.6-2.9-.7-.7-.6-1.2.5-1.6.9-.4 1.6-.1 1.6.6s.7.4 1.4-.6c1-1.3 1.5-1.5 1.8-.5.3.7.7.1 1-1.5.3-1.5.1-2.7-.4-2.7s-1.6-.7-2.5-1.5c-1.2-1.2-1.3-1.9-.3-3 1-1.2 1-1.5-.1-1.6-1 0-1.1-.2-.1-.6.6-.2.9-1 .5-1.6-.3-.7.4-.3 1.7.8 1.3 1.1 2 1.5 1.6.8-.4-.7.2-1.7 1.4-2.3 2.1-1.1 2.3-3.9.5-5.2-.6-.5-.5-.8.4-.8 1 0 1.1-.3.2-1.4-.9-1.1-.9-1.6 0-2.1.8-.6.7-1-.2-1.7-1-.6-.7-.7.9-.3 1.3.4 2.2.2 2.2-.5 0-.6.4-.9.9-.6.5.3 1.2-.6 1.5-1.9.4-1.7 1.1-2.3 1.9-1.9.9.5.9.4 0-.6-.6-.7-.9-1.9-.6-2.8.5-1.1.3-1.3-.8-.7-1.2.8-1.2.6 0-.8.7-.9 1.8-1.4 2.4-1 .6.3.7.1.3-.5-.4-.7-.3-1.2.2-1.2 1.1 0 .9-3-.3-4.9-.5-1-.4-1.2.4-.7.9.6 1.1-.2.6-3.4-.5-3.3-.3-4 .7-3.4 1.1.6 1.1.5 0-.8-1.1-1.4-1-1.7.7-2.3 2.4-.7 2.7-2.1.9-2.8-.8-.3-.6-.6.5-.6.9-.1 1.7-.5 1.7-.9 0-1.5 3.7-5.2 4.4-4.5.4.4.4-.1 0-1.1-.5-1.4-.4-1.7.4-1.2.7.4 1.2.2 1.2-.5 0-.8.5-.7 1.7.2 1.5 1.2 1.6 1.2 1-.5-.6-1.6-.5-1.7.8-.6 1.6 1.4 1.8 1 1.5-3.4-.1-2.1.2-2.6 1.2-2 1.1.7 1.1.5 0-.9-1.2-1.4-.9-3.7.4-3.7.3 0 .2.4-.1 1zm-410.7 19.5c1.2-.2 2.7-.7 3.2-1 .6-.3 1-.1 1 .6 0 .9.3.9 1.4 0 1.1-1 1.4-.7 1.2 1.3 0 1.3-.3 2.3-.6 2.1-.3-.2-.6.5-.6 1.5s.4 1.6.9 1.3c.5-.3.8 0 .5.8-.5 1.5 1.4 3.9 3.1 3.9.6 0 1.1.5 1.1 1.1 0 .7 1.3 2.5 3 4 1.6 1.6 2.5 2.9 2 2.9-.6 0-.2 1 1 2.2 1.1 1.2 2 3.2 2 4.5 0 1.4.4 2.1 1 1.8.6-.3 1 .3 1 1.4 0 1.2.6 2.1 1.3 2.2.9 0 .9.2 0 .5-.8.4-.7 1.1.4 2.4.9 1 2 1.7 2.4 1.4.4-.2.5.5.2 1.6s0 2 .6 2 1.1.5 1.1 1.1c0 .5-.6.7-1.2.4-.7-.4-.2.3 1.1 1.5 2 1.7 2.2 2.3 1.1 3-1.1.7-.8 1 1.2 1.5 2.4.6 2.5 1 1.8 3.6-.7 2.3-.5 3.1.6 3.6.7.3 1.4 1 1.4 1.5 0 .6.8 1.7 1.8 2.5.9.8 1.1 1.2.5.8-.7-.3-1.3-.2-1.3.2 0 .5.6 1.5 1.3 2.2 1 1.1.9 1.2-.2.6-.9-.5-1.2-.4-.7.3.9 1.5 3.6 1.5 3.6 0 0-.6.3-.9.6-.5.3.3.2 1.1-.2 1.8-1.1 1.8-1.5 6.1-.5 5.4.5-.2.7.7.5 2.1-.2 2 0 2.3 1.1 1.4.8-.7 1.5-.7 1.9-.1.4.5.2 1.2-.3 1.6-.6.3-.8 1.2-.5 2 .4.8 1.1 1.2 1.7.8.7-.4.8 0 .4 1.1-.5 1.4-.3 1.7.8 1.2 1.8-.6 2 .5.4 2.1-.9.9-.6 1 1.1.6 2-.5 2.2-.3 1.8 1.5-.4 1.2-.2 2 .3 1.6.5-.3.9 0 .9.5 0 .6-.5 1.1-1.1 1.1-.8 0-.8.5.1 1.5s.9 1.5.1 1.5c-.6 0-1.1.4-1.1 1 0 .5.8 1 1.8 1 1.4 0 1.5.2.2 1s-1.3 1 .2 1c1.1 0 1.6.6 1.3 2-.2 1.2.2 2 1 2 .9 0 1.2.8 1 2-.2 1.1 0 1.8.5 1.5 1.5-1 1.6 4 0 5.2-1.3 1-1.2 1.2.7.8 1.5-.2 2 .1 1.7.9-.3.8.2 1.6 1.2 2 1.3.5 1.4.9.5 2-.9 1.1-.9 1.6 0 2.1.8.6.7 1-.2 1.6-1 .6-1.1.9-.1.9.6 0 1.2.8 1.2 1.7 0 1.4.2 1.5.9.5.7-1.1.9-1.1 1.4.2.4.9.1 1.6-.6 1.6-.8 0-.8.3.2.9.8.5 1 1.4.6 2.2-.5.8-.5 1.1 0 .7.4-.4 1.3-.2 1.9.5 1.4 1.4 1.9 6 .5 5.2-.5-.4-.9-.1-.9.4 0 .6.5 1.1 1.1 1.1.5 0 .7.4.4 1-.5.8.5 1.3 2.5 1.2.8-.1.4 12.4-.5 13.8-.5.9-.4 1.1.3.6.7-.4 1.2-.1 1.2.9s-.5 1.4-1.2.9c-1-.5-1-.4-.1.6s1 1.7.1 2.7c-.8 1.1-.7 1.2.6.7 1.3-.5 1.7-.2 1.4 1.2-.2 1.3.4 2 2 2.2 1.2.2 2 .7 1.7 1.2-.3.5.2 1.6 1.1 2.4.8.9 1.2 1.6.7 1.6s-1 1-1.1 2.3c-.1 1.6.6 2.7 2.1 3.3 1.2.6 1.5.8.7.6-1.2-.2-1.3-.1-.2.9.6.7 1.2 2.1 1.2 3.2 0 1.2-.4 1.6-1.2 1.1-1-.6-1-.4 0 .7.6.7 1.2 2.3 1.2 3.6 0 2 1 2.8 3.2 2.4.4 0 .5.5.2 1.3s0 1.7.7 2.2c.8.4 1 .3.5-.4-.4-.7-.5-1.2-.2-1.2s1 1 1.7 2.1c.8 1.5.8 1.9 0 1.5-2.2-1.4-1 .7 1.5 2.6 2 1.6 2.3 2.3 1.2 2.9-1.1.7-1.1.9.1.9 1.1 0 1.1.3.1 1.5s-1 1.5 0 1.5c.8 0 1 .8.7 2.1-.4 1.5-.2 1.9.9 1.5 1.3-.5 1.5.3 1.4 4.7-.3 6.9-.2 7.7 1.1 7.7.8 0 .7-.6-.2-1.8-1.3-1.5-1.2-1.6.3-.4 1 .8 1.4 2 1.1 2.9-.4 1.1-.2 1.4.5.9.8-.5 1.2 0 1.2 1.4 0 1.3-.4 1.9-1.2 1.4-.7-.4-.8-.3-.4.4s1.3 1.2 2.1 1.2c.7 0 1.6.7 1.9 1.6.5 1.2.2 1.5-.9 1-1-.4-1.4-.2-.9.5.4.6 0 1.5-.7 2-1.1.7-.9.9.6.9 1.7 0 1.7.2.5 1-1.3.8-1.2 1 .3 1 .9 0 1.7.5 1.7 1.1 0 .5-.6.7-1.2.3-.7-.4-.4.3.6 1.5 1.7 1.9 1.7 2.1.3 1.5-1.4-.5-1.6-.2-1.1 1.2.4 1.1 1.2 2.5 1.8 3.3.8 1.1.8 1.3 0 .8-.7-.4-1.1.2-1.1 1.8 0 1.4.3 2.2.8 1.9.5-.3.9 0 .9.6s.5.8 1.3.4c.9-.6.9-.4-.1.8-1 1.3-1 1.8-.1 2.4.8.5.9.3.4-.6-.6-.9-.4-1.1.4-.6.9.6.8 1.3-.6 2.9-1 1.1-1.2 1.7-.5 1.3.8-.5 1.2 0 1.2 1.3 0 1.2.5 2.1 1.1 2.1.5 0 .7-.5.3-1.2-.4-.6-.3-.8.4-.4.6.3.9 1.5.7 2.6-.2 1.1.1 2 .7 2 .7 0 .3.6-.8 1.4-1.3 1-1.4 1.4-.4 1.3.8-.2 2-.6 2.7-1 .6-.4 1.5-.2 1.9.4.4.8.3.9-.4.5-1.6-1-1.5 1.6.1 3.3 1 1.2.9 1.3-.7.7-2-.7-2-.7 0 1.5 1 1.2 1.4 1.9.8 1.6-.7-.4-1.4 0-1.7.7-.7 1.7 1.6 3.9 2.9 2.8.4-.4.3 0-.4.9-1.1 1.4-1 1.7.4 1.5 1.9-.1 2.8 3 1.2 4.1-.7.4-.8.1-.3-.7.5-.9.4-1.1-.4-.6-.6.4-.8 1.3-.4 1.9 1.4 2.2 1.4 4.9.1 4.1-1-.6-1.1-.4 0 .7.6.7 1.2 1.7 1.2 2.2 0 .4-.6.5-1.2.2-.7-.4 0 .5 1.5 2 1.8 1.6 2.7 3.2 2.3 4.1-.5 1.2-.2 1.5 1.1 1 1.2-.4.9 0-.6 1.2-1.8 1.5-2.1 2.1-1.1 2.7.9.6 1.1.4.5-.5-.6-.9-.4-1.1.5-.5 1 .6.9 1.1-.6 2.3-1.8 1.4-1.8 1.4.4.9 2-.5 2.2-.3 1 1.1-.7.9-.9 1.4-.4 1 1.5-1.3 3.5 1.5 2.4 3.6-.7 1.3-.7 1.6.1 1.2.6-.4 1.1-.3 1.1.2 0 .6-.7 1.2-1.5 1.6-.8.3-1.2 1.2-.9 2.1.3.8 1.1 1.2 1.6.9.7-.5.7 0 0 1.2-.6 1.2-.7 2.5-.1 3.6s.5 1.9-.3 2.4c-.6.4-.8.3-.4-.4.3-.6.2-1.3-.3-1.6-.5-.4-.8.2-.6 1.1.1 1.2.9 1.7 2.1 1.5 1.1-.2 1.6-.1 1.2.4-.5.4.1 1.4 1.2 2.1 2.3 1.7 1.8 3.5-.8 2.6-1.4-.5-1.5-.3-.4.8.6.7 1.2 2.1 1.2 3 0 1 1 2.5 2.2 3.3 1.8 1.3 1.9 1.8.8 3.1-.7.8-.8 1.5-.3 1.5s1 .7 1 1.5-.4 1.2-.9.9c-.4-.3-.8 0-.8.5 0 .6.5 1.1 1.1 1.1.8 0 .8.5-.1 1.5-.9 1.1-.9 1.5-.1 1.5.7 0 1 .4.6.9-.3.5 0 1.3.6 1.7.8.5.9.3.4-.7-.6-1.1-.5-1.1.4-.3.7.6 1.3 3.5 1.3 6.5.1 3 .6 5.7 1.2 6.1.6.4 0 .8-1.4.8-2.1.1-2.3.2-.8 1.1 1 .5 1.5 1.6 1.1 2.4-.3.9.1 2.2.8 3.1 1.1 1.3 1 1.5-.3 1.2-.9-.1-1.7.1-1.6.7 0 .5.4.9.9.8.4-.2.6.4.3 1.2-.4 1.1.1 1.5 1.7 1.5 1.9 0 2.1.2.9 1-1 .6-1.1 1-.2 1 .6 0 1.2.7 1.2 1.5s-.6 1.5-1.2 1.6c-1 0-1 .2 0 .6.6.2 1.2.9 1.2 1.4 0 .6-.6.7-1.2.3-1-.6-1-.4 0 .8.9 1.2 1 1.8.2 2.3-.8.5-.8 1.1.1 2.1.9 1.1 1.5 1.2 2.8.2.9-.7 1.3-.8.9-.4-.4.5-.3 1.5.3 2.2.7.8.6 1.4-.2 2-.8.5-.9.3-.4-.6.5-.9.4-1.1-.4-.6-.6.4-.9 1.1-.6 1.6.3.4.2 1-.2 1.3-.5.2-.3.2.4.1.7-.2 1.5.1 1.8.6.4.6-.1 1-1 1s-1.4.4-1 1c.3.5 1.3.6 2.2.3 1.1-.4 1.4-.3.9.5-.4.7-.3 1.2.2 1.2s1.2 1 1.5 2.2c.5 2.1.5 2.1-.7.6-1.1-1.5-1.3-1.4-1.3 1.2 0 2.1.4 2.7 1.2 2 .7-.6 1.1-.3 1.1 1.1 0 1.1-.5 1.8-1.1 1.5-.7-.2-1.1.9-.9 3.3.3 5.1.3 5.1 1.8 5.1.9 0 1.4 1.2 1.4 3.4 0 1.9.3 3.9.6 4.5.4.5.2 1.2-.4 1.6-.6.4-.8 1.1-.4 1.6.3.5.1 1.6-.5 2.3-.9 1-.7 1.7.6 2.7 1.6 1.2 1.7 1.2.6-.2-1.2-1.5-.8-2.9.7-2.9 1.1 0 .4 4.4-.7 4.7-.6.2.2 1.7 1.8 3.3 1.8 1.7 2.7 3.4 2.3 4.4-.3.9-1 1.4-1.4 1.1-1.1-.7-.6 2.2.5 3.2.4.4.5.2.1-.4-.5-.9-.2-1.1 1-.6 1.4.5 1.3.8-.7 1.9-2.2 1.2-1.9 1.9.5 1.5.5-.1.4.5-.3 1.3-.7.9-1.8 1.3-2.5.9-.6-.3-.1.4 1.1 1.6 1.2 1.1 2.7 2.1 3.2 2.1s1.3.5 1.7 1.2c.5.7.2.9-.9.5s-1.4-.2-1 .8c.3.8 1 1.2 1.7.8.6-.3.6-.1-.1.8-1.5 1.5-1.7 3.3-.4 2.4.5-.3 1.3-.1 1.6.5.4.6.1.9-.6.8-.6-.2-1.4.3-1.7 1.1-.3 1 0 1.1.9.5 1.1-.6 1.1-.4 0 1-1.3 1.5-1.2 2.1.2 4.5.9 1.6 1.4 3.1 1.1 3.4-.3.3 0 .8.7 1.3.7.4 1 .3.6-.3-.3-.5 0-1 .8-1 1.1 0 1.2.4.4 1.3-.6.7-.7 1.9-.3 2.5.4.7.3.9-.3.6-.6-.4-1.4 0-1.7.9-.3.8-.2 1.2.4.9.6-.3 1-.1 1 .5s.5.8 1.2.4.8-.3.4.5c-.4.6-1.1.9-1.6.6-1.5-.9-2.1 2.8-.6 4.4 1 1.1 1.2 2.1.5 3.3-.6 1.1-.5 1.9.2 2.4.8.5.9.3.4-.6-.5-.9-.4-1.1.3-.6.7.4 1.2 1.7 1.2 2.9 0 1.4.3 1.8.8 1 .5-.7.8.4.8 2.7 0 2.2-.4 4-.8 4-.5 0-.6-.5-.2-1.2.4-.7.3-.8-.5-.4-.9.6-.9 1.1 0 2.2.6.8.8 1.4.3 1.4s0 .8 1.1 1.6c1.4 1.1 1.5 1.5.5 1.4-2.8-.4-3.6 0-3.7 2-.1 1.1.3 1.8.8 1.4.6-.3.8.5.5 2-.3 1.4-.1 2.8.4 3.1.5.3.7-.3.5-1.5-.2-1.1 0-2.2.4-2.4 1-.7.8 3.5-.2 5.1-.5.8-.3 1.3.5 1.3 1 0 1 .2.1.8-.7.4-1.1 1.7-1 2.9.1 1.7.5 2 1.9 1.2 1.2-.6 1.8-.6 1.8.1 0 .5-.4 1-1 1-.5 0-1 .5-1 1.1 0 .5.3.8.8.6.4-.3 1.2.1 1.9.8.9 1 .7 1.4-.9 1.8-1.6.5-1.9.9-1.1 1.9.6.7 1.1 2 1.1 2.8.1.8.3 2.7.5 4.1.3 2.3.1 2.7-1.7 2.5-1.8-.2-2.2.2-2 2.5.1 1.5.5 3.3 1 4.1.6 1 .4 1-.9-.1-1.5-1.2-1.7-1.2-1.1.3.3.9 1.1 1.6 1.7 1.6.6 0 .2.7-.9 1.5-1.8 1.5-1.8 1.5 0 .8 1.4-.5 1.7-.3 1.2.6-.5.7-1.7 1.1-2.7.8-1.1-.3-1.7-.1-1.4.3.3.5.1 1.1-.5 1.5-.5.3-1 .1-1-.5 0-.7-.6-.6-1.5.3-1.7 1.8-5.9 1.1-5.1-.9.3-.8 0-1.1-1-.7-1.8.7-4.6-1.5-3.7-3 .3-.6.1-.7-.6-.3-.6.4-.9 1.3-.5 1.9.3.7-.2.3-1-.7-1.2-1.5-1.6-1.6-1.7-.5 0 1-.2 1-.6.1-.2-.6-.9-1.2-1.4-1.2-.6 0-.8.4-.5.9.3.5-.1 1.1-.9 1.4-.9.4-1.2.1-.8-.9.3-.9-.1-1.4-1.2-1.4-.9 0-1.3-.5-1-1 .3-.6-.1-1-.9-1-.9 0-1.6-.6-1.6-1.4 0-.8-.7-1.7-1.6-2-.8-.3-1.2-.2-.9.4.3.6.1 1-.4 1-.6 0-1.1-.5-1.1-1.1 0-.8-.5-.7-1.6.1-1.3 1.1-1.6 1-2.1-.8-.3-1.2-1.2-2.2-2-2.2-1.7 0-4.3-2.4-4.3-4 0-.6-.5-.8-1.2-.4-.8.5-.9.2-.4-1.2.4-1 .4-1.5 0-1.1-.4.4-1.4.1-2.3-.6-1.4-1.1-1.4-1-.2.6 1.2 1.5 1.2 1.7-.3 1.1-.9-.3-1.6-1-1.6-1.5s-.5-.9-1.1-.9c-.5 0-.7.6-.3 1.2.5.9.2.8-.9-.1-1.4-1.1-1.5-1.6-.5-2.9 1-1.3 1-1.4.1-.8-.8.4-1.3.2-1.3-.4 0-.6-.4-.8-1-.5-.5.3-1 .1-1-.5s-.7-1.8-1.5-2.6c-.8-.9-1.5-1.3-1.5-.9 0 .3-.9.1-2-.5-1.5-.8-2-.8-2 .1 0 .7-.3.9-.6.6-.4-.4-.1-1.4.7-2.4.9-1.1 1-1.4.2-.9-.9.5-1.3 0-1.3-1.3 0-2-1-2.5-3.9-2.2-.8.2-1-.2-.5-1.1.5-.9.2-.8-1.1.2-1.1.9-1.6 1-1.1.2.6-1.1-.5-1.7-2.6-1.3-.5 0-.8-.4-.8-1 0-.5-.4-.7-1-.4-.5.3-1-.1-1-1 0-1.1-.5-1.5-1.4-1.2-.9.4-1.3.1-1-.6.2-.7-.7-2.3-2.1-3.5-1.4-1.2-2.5-1.9-2.5-1.4 0 .4-.5-.1-1-1-1.3-2.2-6.9-5-8.4-4.1-.6.3-.8.3-.4-.2.4-.4-1.3-2.6-3.8-4.8-2.5-2.2-4.3-4.5-4-5.2.2-.6-.2-1.2-1-1.2-.7 0-1 .5-.7 1 .4.6.1.7-.6.3-.7-.5-1-1.5-.7-2.3.4-1 .2-1.3-.8-1-1 .4-1.3.1-1-.7.3-.8 0-1.7-.7-2.2-.8-.5-1-.3-.4.7.4.8-.4.2-1.7-1.3-1.4-1.5-2.9-2.4-3.4-2-.4.4-.2-.2.6-1.2 1.4-1.8 1.3-1.9-.3-1.3-1.1.4-2 .1-2.3-.8-.4-.8-1.1-1.2-1.7-.8-.6.3-.7.1-.3-.6.4-.6 0-1.4-.8-1.7-.9-.3-1.6-1.2-1.6-1.9 0-.8-.5-1.7-1.2-2.1-.8-.5-.9-.2-.4 1.1.5 1.5.4 1.6-.8.5-.9-.6-1.5-1.5-1.4-1.8.2-2.3-.4-3.3-1.7-2.8-.8.3-1.4 0-1.2-.7.1-.7-.4-1.1-1.1-.9-.8.1-1.1-.2-.7-.8.3-.5.1-1-.4-1-.6 0-1.1-.8-1.1-1.8 0-1.4-.2-1.5-1-.2-.9 1.3-1 1.3-1 0 0-.8-1.1-2.4-2.5-3.4s-2.5-2.6-2.6-3.5c0-1-.2-1.2-.6-.4-.2.7-.9 1.3-1.4 1.3-.4 0-.6-.6-.3-1.4.3-.9-.5-2.1-2-3.1-1.4-1-2.3-2.1-2-2.6.3-.5.1-.9-.3-.9-1.5 0-8.3-6.7-7.6-7.4.4-.4 0-.4-1 0s-1.7.1-1.7-.6-1.3-2.4-3-4c-1.6-1.5-2.6-3-2.2-3.4.3-.4-.1-.4-1.1 0-1 .3-1.7.1-1.7-.6 0-1.5-2.5-4-4.1-4-.7 0-.9-.3-.6-.6.9-1-3.3-4.5-4.5-3.8-.5.3-.8-.2-.6-1.2.2-1.1-.2-1.8-.9-1.7-1.3.3-1.7-.9-1.4-3.6.2-.7-.2-1-.7-.7-.5.3-.9-.2-.8-1.2 0-.9-.5-1.6-1.1-1.5-1.2.3-1.7-.9-1.4-2.9 0-.5-.5-.7-1.2-.5-.6.1-1.1-.4-.9-1.1.1-.8-.2-1.1-.8-.7-.5.3-1 .1-1-.5s-.4-.8-1-.5c-.6.4-1-.5-1-2 0-2.8-2.3-5.9-3.5-4.7-.5.4-.5-.1-.2-1.1.4-1 .3-1.6-.2-1.3-.5.3-1.7-.5-2.7-1.9-1-1.3-2.3-2.1-2.8-1.7-.6.3-.5-.2.3-1.1 1.2-1.5 1.2-1.7-.2-1.1-1 .4-2-.3-2.9-2-.7-1.4-1.6-2.5-2-2.5-.5-.1-1.3-.1-1.9-.1-.6 0-.7-.5-.2-1.3 1.1-1.7 1.3-3.8.3-3.2-.4.3-1.1-.2-1.4-1.1-.3-.8-1.1-1.2-1.7-.8-.8.4-.8 0 0-1.5s.9-2.1.1-2.1c-.6 0-.8-.5-.5-1 .3-.6.1-1-.5-1-1.5 0-4.1-2.6-3.3-3.4.4-.3-.2-.6-1.2-.6-1.3 0-1.5-.3-.7-1.3.8-.9.4-1.8-1.3-3.5-1.5-1.4-2.1-2.9-1.8-4.2.3-1.1.1-2-.4-2-1.6 0-5.3-3.6-5.3-5.2 0-.8-.6-2-1.3-2.7-1-1.1-.9-1.2.3-.6 1.3.8 1.3.6.1-.8-.7-.9-1.7-1.4-2.2-1.1-.5.3-.9-.2-.9-1s-1-2.2-2.2-3c-1.2-.9-1.7-1.6-1.1-1.6 1.6 0 1.1-3.2-1-5.5-1-1-1.7-2.6-1.6-3.5.3-3.1-.1-4.1-1.7-3.8-1.1.2-1.8-.5-2-2.2-.3-1.9-.2-2.2.6-1 .5.8 1 1 1 .5-.1-2-2.9-4.7-4.4-4.2-.9.4-1.5.3-1.5-.1.4-2.2-.2-4.2-1.1-3.7-.5.3-1 .1-1-.4 0-.6.6-1.1 1.3-1.1.8 0 .7-.4-.3-1-1.3-.9-1.3-1 0-1s1.3-.1 0-1c-1.1-.7-1.1-1-.2-1 .7 0 1-.5.7-1-.4-.6-1.2-.8-1.8-.4-.7.3-.3-.2.7-1 1.8-1.5 1.9-1.6.2-1.6-1.3 0-1.6-.5-1.2-1.6.5-1.2.2-1.5-1.1-1-1 .4-1.4.4-1 0 .4-.4.1-1.4-.6-2.2-.8-1-.8-1.3-.1-.9.7.4 1.4 0 1.7-.8.4-.8.1-1.2-.7-.9-.7.3-2.1-.5-3.2-1.7-1-1.3-1.4-1.9-.7-1.6.6.4 1.4.3 1.8-.3.3-.5 0-1-.7-1-1 0-1-.2-.1-.8.9-.6.7-1.2-.7-2.2-1.1-.8-2-2.3-2-3.3 0-1.2-.4-1.6-1.2-1.1-1 .6-1 .4 0-.7 1.5-1.7 1.6-4.3 0-3.3-.7.5-.8.3-.3-.5.4-.8-.1-1.9-1.4-2.8-2-1.3-2.1-1.7-.9-3.6.8-1.2 1.3-2.8 1.2-3.5-.1-.6-.2-2-.3-3-.1-1.1-.4-1.3-.9-.5s-1.3.2-2.4-1.8c-1-1.7-1.3-2.7-.8-2.4.6.3 1 .1 1-.4 0-.6-.6-1.1-1.2-1.2-1 0-1-.2 0-.6.6-.2 1-.9.6-1.4-.3-.5 0-.9.5-.9.6 0 1.1-.4 1.1-1 0-.5-.7-.7-1.5-.3-.9.3-1.5.2-1.4-.3.4-2.6-.3-4.4-1.8-4.4s-1.4-.2.3-1.5c1-.8 1.5-1.5.9-1.4-2.2.3-2.9-.2-1.6-1 2.1-1.3 2.4-4.4.4-3.7-1.3.5-1.4.4-.4-.8.8-1 .9-1.6.2-2.1-.7-.4-.6-1.7.3-3.9 1.2-2.9 1.2-3.4-.3-4.5-1.4-1-1.4-1.1 0-.7.9.2 1.6-.2 1.6-1 0-.7-.4-1.1-1-.7-.5.3-.7-.6-.5-1.9.1-1.4-.2-3.1-.9-3.9-.6-.8-1.3-1.9-1.5-2.4-.1-.6-.6-.9-.9-.8-.3.1-.6-.5-.6-1.3 0-1.6.8-1.8 2.3-.7.5.5.1 0-.9-1-1.9-1.6-1.9-1.7-.1-1.8 1.7-.1 1.7-.2.2-.6-2.6-.7-2.2-1.6 1.2-3.2 2.6-1.1 2.9-1.5 1.8-2.8-1-1.2-.9-1.8.6-2.8 1.2-.9 1.6-2.1 1.2-3.7-.3-1.3-.3-1.7 0-1.1.8 1.9 2.4 1.6 1.7-.3-.3-.9-1.3-1.4-2.4-1.1-1.1.3-1.9.1-1.9-.4s-1-.9-2.1-.9c-1.8 0-1.9-.2-.9-1.5.9-1.1.9-1.5.1-1.5s-.8-.4.1-1.4c.7-.8 1.7-1.1 2.2-.8.5.3.7-.2.3-1.1-.3-1-.2-1.7.2-1.7.5 0 1.1.6 1.4 1.2.3.7.4.3.4-.9-.1-1.2-.5-1.9-.9-1.7-.4.3-.8-.4-.8-1.6 0-1.2.4-1.9 1-1.5.5.3.3-.7-.5-2.1-.8-1.5-1.1-3.2-.7-3.8.3-.6.5-2.4.3-4-.2-1.7.1-2.6.8-2.2 1.4.9.5-3.2-1.1-5.2-.9-1-.9-1.3-.1-.9.6.4 1.4.3 1.8-.3.3-.5-.1-1-.9-1-1.9 0-2.1-1.6-.4-2.6.7-.5.8-.2.3.7-.5.8-.4 1.1 0 .6 1-.9 1.3-5.7.3-5.1-.3.2-1-.1-1.4-.8-.4-.7-.4-1 .1-.6.4.4 2 0 3.6-.9l2.7-1.6-2.1-1.8c-2-1.6-2-1.8-.5-2.4.9-.4 1.4-1.3 1.1-2.1-.3-.8.4-1.8 1.8-2.3 1.3-.5 1.9-1 1.3-1-.7-.1-1.5-.8-1.8-1.7-.3-.8-.2-1.2.3-.9.5.3 1.2.1 1.6-.5.3-.5.1-1-.6-1-.9 0-.9-.3 0-1.4.9-1.1.9-1.6 0-2.2-.8-.5-.9-.3-.4.6.6.9.4 1.1-.5.5-1-.6-.8-1.2.8-2.5 1.2-1 1.8-2.1 1.4-2.5-.4-.5 0-.6.9-.3.9.4 1.6.1 1.6-.7 0-.7-.7-1.1-1.6-.8-1.2.3-1.1.2.2-.7.9-.6 1.5-1.5 1.2-2.1-.4-.5.1-.9.9-.9s1.8-.5 2.2-1.2c.5-.8.2-.9-.9-.5-1.4.5-1.5.3-.5-1.3.7-1 1.7-1.6 2.3-1.2.5.3.3-.3-.5-1.3s-1-1.6-.5-1.3c.6.4 1.7.3 2.5-.3 1.3-.7 1.3-.9.1-.9-1.1 0-1-.4.5-1.6 1-.8 1.4-1.3.7-1-.6.4-1.5.2-1.8-.4-.4-.6-.3-1 .2-.9 2.7.5 3.5-.1 2.3-1.6-1-1.2-.9-1.6.4-2.1.9-.3 1.4-1 1.1-1.4-.3-.5.2-1.3 1.1-1.8 1.1-.6 1.5-1.7 1.1-3.1-.4-1.7-.2-1.9 1.3-1.1 1.5.8 1.8.6 1.6-.8-.2-.9.4-2.3 1.3-3 1.4-1.1 1.4-1.1-.2-.6-1.3.5-1.6.2-1.1-1 .3-.9 1.1-1.3 1.7-.9.6.4.8 0 .4-1-.4-1.1.1-2.1 1.5-2.8 1.5-.8 1.7-1.3.8-1.9-.9-.5-.9-.9-.1-1.4.6-.4 1.6-.4 2.2 0 .8.5.8.1 0-1.4-.9-1.6-.7-2.3 1.2-3.6 1.2-.9 1.5-1.4.7-1.1-.8.4-.4-.3 1-1.5s1.9-1.9 1.3-1.5c-.7.3-1.3.1-1.3-.4 0-.6.4-1.1 1-1.1.5 0 .7-.8.3-1.8-.3-.9-.3-1.4.2-1 .4.4 1.4.3 2.2-.3 1-.9 1-1.5.2-2.5-.9-1.1-.8-1.4 0-1.4.7 0 .9-.5.5-1.2s-.3-.8.4-.4 1.2.2 1.2-.3c0-.6.7-1.1 1.6-1.1 1.4 0 1.5-.2.3-1.7-1-1.2-1.1-1.5-.1-.9.7.4 1.9.2 2.7-.4 1.2-1 1.5-1 1.5 0 0 .8.3 1.1.6.8.3-.4 0-1.6-.6-2.8-.9-1.8-.9-2.1 0-1.5.8.5 1.1.3.8-.6-.5-1.6 2.2-5 3.5-4.2.5.3.4-.4-.2-1.5-.8-1.5-.7-2.3.8-3.6.9-.9 2.3-1.6 2.9-1.6.7 0 1.2-.5 1.2-1.1 0-.5-.5-.7-1.2-.3-.6.4-.8.3-.5-.3.3-.5 2.1-.7 3.9-.5 2.9.4 3.1.3 2-1.1-1.1-1.3-1-1.5.8-1 1.7.5 2.1.2 1.8-1.3-.2-1.4.3-1.9 1.9-1.8 1.8 0 2-.2 1.1-1.3-.8-1-.7-1.2.5-.8.8.4 1.8.1 2.3-.6.4-.8.3-1-.4-.5-.7.4-1.2.2-1.2-.3 0-.6.8-1.1 1.9-1.1 2.5 0 4.7-2.6 2.9-3.4-.7-.3-.3-.4 1-.2 1.2.2 2 0 1.6-.5-.3-.5 0-.9.7-.9.8 0 .9-.3 0-1.4-.9-1-.8-1.6.4-2.6 1.2-1 1.3-1.6.3-2.9-1.1-1.4-1.1-1.4.2-.4 1 .8 2.1.9 3 .3 1.2-.8 1.1-1-.5-1.1-1.5 0-1.6-.2-.5-.7 1.7-.8 2-3.3.5-4.4-.6-.5-.4-.8.5-.8.8 0 2.1-.9 2.8-2.1 1.1-1.7 1.1-2 0-1.3-1 .6-1 .4.1-.9 1.1-1.4 1.1-1.7 0-1.8-.8 0-.4-.4.9-1 1.3-.5 2.1-1.3 1.7-1.9-.3-.6.1-.7 1-.4 1.1.5 1.8 0 2.2-1.5.3-1.1.9-1.8 1.4-1.5.8.5 1.3-1 1-2.9-.1-.5.3-.6.9-.2.5.3 1 .1 1-.4 0-.6.9-1.1 2-1.1s2-.6 2.1-1.3c.1-.6.5-.1.9 1.3.7 2.1.8 2.2.9.5.1-1.7.3-1.7 1.1-.5s1 1.2 1-.5c0-1.5.3-1.7.9-.7.6 1 1 .8 1.4-.9.5-1.8.9-2 2-1.1.7.6 2.3 1 3.5.7zm30.2 38.9c0 .2-.8 1-1.7 1.7-1.6 1.3-1.7 1.2-.4-.4 1.3-1.6 2.1-2.1 2.1-1.3zm335 49c0 .2-.7.7-1.6 1-.8.3-1.2.2-.9-.4.6-1 2.5-1.4 2.5-.6zM815.5 388c.3.5.1 1-.4 1-.6 0-1.1-.5-1.1-1 0-.6.2-1 .4-1 .3 0 .8.4 1.1 1zm9.5 32c0 .5-.5 1-1.1 1-.5 0-.7-.5-.4-1 .3-.6.8-1 1.1-1 .2 0 .4.4.4 1zm2.1 9.3c-1 .9-1.1.8-.5-.6.3-1 .9-1.5 1.2-1.2.3.3 0 1.1-.7 1.8zm-417.3 27.2c-.3.3-.9-.2-1.2-1.2-.6-1.4-.5-1.5.5-.6.7.7 1 1.5.7 1.8zm189.2 6.1c0 .8-1.9 1.3-2.4.6-.3-.5.1-.9.9-.9s1.5.2 1.5.3zm-419.3 48.9c0 .8-.4 1.2-.9.9-.5-.3-.6-1-.3-1.5.9-1.3 1.2-1.1 1.2.6zm218.5 56.9c.7-.4.8-.2.4.5-.9 1.3-2.6.5-2.5-1.2 0-.9.2-.8.6.1.2.6 1 .9 1.5.6zm13.3 74.5c.3.5.2 1.2-.3 1.5-.5.3-.9-.1-.9-.9 0-1.7.3-1.9 1.2-.6zm3.5 9.1c0 .5-.5 1-1.1 1-.5 0-.7-.5-.4-1 .3-.6.8-1 1.1-1 .2 0 .4.4.4 1zm436 21.4c0 .3-.4.8-1 1.1-.5.3-1 .1-1-.4 0-.6.5-1.1 1-1.1.6 0 1 .2 1 .4zm-432.3 11.1c0 .8-.4 1.2-.9.9-.5-.3-.6-1-.3-1.5.9-1.3 1.2-1.1 1.2.6zm4.3 18.9c0 1.2-.5.7-1.9-2.4-1.1-2.4-1.1-2.4.3-.6.9 1.1 1.6 2.4 1.6 3zm316 0c0 .2-.8 1-1.7 1.7-1.6 1.3-1.7 1.2-.4-.4 1.3-1.6 2.1-2.1 2.1-1.3zM423.5 716c.3.5.1 1-.4 1-.6 0-1.1-.5-1.1-1 0-.6.2-1 .4-1 .3 0 .8.4 1.1 1zm-76.1 24.8c.3.5-.1.9-.9.9s-1.2-.4-.9-.9c.3-.4.7-.8.9-.8.2 0 .6.4.9.8zm343.9 6.7c-.3.9-.8 1.4-1 1.1-.3-.3-.2-.9.2-1.5.9-1.6 1.5-1.3.8.4zm-329.9 2.3c.3.5-.1.9-.9.9s-1.2-.4-.9-.9c.3-.4.7-.8.9-.8.2 0 .6.4.9.8zm325.6-.2c0 .8-1.9 1.3-2.4.6-.3-.5.1-.9.9-.9s1.5.2 1.5.3zm86.7 39c-.3.3-1.2.4-1.9.1-.8-.3-.5-.6.6-.6 1.1-.1 1.7.2 1.3.5zM569 795c0 .5-.5 1-1.1 1-.5 0-.7-.5-.4-1 .3-.6.8-1 1.1-1 .2 0 .4.4.4 1zm-20 1c0 .5-.5 1-1.1 1-.5 0-.7-.5-.4-1 .3-.6.8-1 1.1-1 .2 0 .4.4.4 1zm-300.9 41.3c-1 .9-1.1.8-.5-.6.3-1 .9-1.5 1.2-1.2.3.3 0 1.1-.7 1.8zm413 12.4c-1.2 2-1.4 1.4-.5-1.2.4-.9.9-1.4 1.1-1.1.3.2 0 1.3-.6 2.3zm-60.6 17.1c-.3.3-1.1 0-1.8-.7-.9-1-.8-1.1.6-.5 1 .3 1.5.9 1.2 1.2zM363 887.4c0 .2-.7.7-1.6 1-.8.3-1.2.2-.9-.4.6-1 2.5-1.4 2.5-.6zM721 982c0 .5-.5 1-1.1 1-.5 0-.7-.5-.4-1 .3-.6.8-1 1.1-1 .2 0 .4.4.4 1z"/><path d="M341.5 228c-.3.5-.1 1 .4 1 .6 0 1.1-.5 1.1-1 0-.6-.2-1-.4-1-.3 0-.8.4-1.1 1zM620.5 260c-.3.5-.2 1 .4 1 .5 0 1.3-.5 1.6-1 .3-.6.2-1-.4-1-.5 0-1.3.4-1.6 1zM614 291c-.9.6-1 1-.3 1 .6 0 1.5-.5 1.8-1 .8-1.2.4-1.2-1.5 0zM376.6 334.9c-.3.5.2 1.5 1.2 2.2 1.5 1.2 1.6 1.2.5-.2-.7-.9-1-1.9-.6-2.2.3-.4.4-.7 0-.7-.3 0-.8.4-1.1.9zM466 679.9c0 1 1.9 2.5 2.5 2 .1-.2-.3-1-1.1-1.7s-1.4-.8-1.4-.3zM766.1 329.3c-1.3 2.1-1.2 2.1.5.5 1-1 1.6-2 1.3-2.2-.3-.3-1.1.5-1.8 1.7zM761.6 341.5c-.3.8 0 1.5.6 1.5.7 0 .6.5-.2 1.5-.9 1-.9 1.5-.1 1.5.6 0 1.1.5 1.1 1.1 0 .5-.4.7-1 .4-.5-.3-1-.1-1 .4 0 .6.5 1.1 1.2 1.1.6 0 .3.6-.7 1.4-1.8 1.3-1.8 1.4.3 2.5 3.3 1.7 4.4 1.4 3.2-.9-.8-1.5-.8-2 .2-2 .9 0 .9-.3-.2-1-.8-.5-1-1-.4-1 1.4 0 .6-5.6-1.1-7-.9-.8-1.4-.6-1.9.5zM793 342c0 .6.7 1 1.5 1s1.5-.2 1.5-.4-.7-.6-1.5-1c-.8-.3-1.5-.1-1.5.4zM761.4 357c.2 3 1.6 5.5 1.6 2.9 0-1.2.2-1.2.9 0 .6.9 1 .4 1.3-1.8.3-2.4.1-3.1-.9-2.7-.7.3-1.3.1-1.3-.4 0-.6-.4-1-.9-1s-.8 1.3-.7 3zM763.6 367.6c-.3.9-1.1 1.2-1.8.8-1-.5-1-.4-.1.6 1.2 1.4.6 4.3-.8 3.5-.4-.3-1.3 1.3-1.9 3.5-.6 2.3-1.7 4.3-2.3 4.6-1.6.6-1.8 8.4-.3 8.4.6 0 .4.5-.4 1-1.3.8-1.2 1 .3 1 1 0 1.5.4 1.2 1-.3.5-.1 1 .4 1 .6 0 1.1 1.2 1.1 2.6 0 1.8.4 2.5 1.4 2.1.7-.3 1.9 0 2.6.6 1 .9 1.1.9.6-.1-.5-.7-.1-1.2.9-1.2s1.3.5.9 1.2 1-.5 3.1-2.7c3-3.1 3.5-4.1 2.2-4.3-1.4-.3-1.5-.6-.3-1.7.8-.8 1.1-2.5.8-4-.3-1.8-.7-2.3-1.2-1.4-.5.7-.7.2-.7-1.4.2-1.8.5-2.3 1.4-1.6.8.7 1 .5.6-1-.3-1.2-.9-2.1-1.4-2.1-.5 0-.9-.8-.9-1.8 0-1.4-.2-1.5-1-.2-.5.8-1 1-1 .4 0-.5.6-1.6 1.3-2.3 1-1.1 1-1.3 0-.7-.9.5-1.3 0-1.3-1.4 0-1.5-.5-2-1.3-1.7-1 .4-1.3-.2-.9-1.9.5-2.7-.3-3.2-1.2-.8zm7.4 19.8c0 .3-.4.8-1 1.1-.5.3-1 .1-1-.4 0-.6.5-1.1 1-1.1.6 0 1 .2 1 .4zM831.3 473.5c0 .8.7 1.5 1.5 1.5 1.2 0 1.2-.3.2-1.5-.7-.8-1.3-1.5-1.5-1.5-.1 0-.2.7-.2 1.5zM831 528.1c0 .5-.4.8-.8.5-.5-.3-.9.1-.9.9 0 1.3.4 1.2 1.9-.2 2.1-1.8 2.2-2.3.8-2.3-.5 0-1 .5-1 1.1zM825.4 560.5c.3 2.3 1.2 2.6 1.3.5.1-1.1-.2-2-.7-2-.4 0-.7.7-.6 1.5zM822 577c-.8.5-1.2 1.2-.9 1.5.4.3 1.2-.1 1.9-1 1.4-1.7 1.1-1.9-1-.5zM814 594c-.9.6-1 1-.3 1 .6 0 1.5-.5 1.8-1 .8-1.2.4-1.2-1.5 0zM750.5 692c-.3.6.1.7.9.4 1.8-.7 2.1-1.4.7-1.4-.6 0-1.3.4-1.6 1zM746.5 694c-.3.6.1.7.9.4 1.8-.7 2.1-1.4.7-1.4-.6 0-1.3.4-1.6 1zM739.6 699.5c-.3.8-.1 1.5.4 1.5.6 0 1-.7 1-1.5s-.2-1.5-.4-1.5-.6.7-1 1.5zM722.7 716.4c-.4 1-.1 1.3.8.9.8-.3 1.2-.9.9-1.4-.7-1.2-1.1-1.1-1.7.5zM525.6 743.3c.3 1 .9 1.5 1.2 1.2.3-.3 0-1.1-.7-1.8-1-.9-1.1-.8-.5.6zM540.5 789.9c-.3.5-.2 1.2.3 1.5.5.3.9-.1.9-.9 0-1.7-.3-1.9-1.2-.6zM191.8 357.7c.7.3 1.6.2 1.9-.1.4-.3-.2-.6-1.3-.5-1.1 0-1.4.3-.6.6zM360.6 434.8c-.3.5.1.9.9.9s1.2-.4.9-.9c-.3-.4-.7-.8-.9-.8-.2 0-.6.4-.9.8zM172.7 465.1c.7.7 1.5 1 1.8.7.3-.3-.2-.9-1.2-1.2-1.4-.6-1.5-.5-.6.5zM179.5 515.9c-.3.5-.2 1.2.3 1.5.5.3.9-.1.9-.9 0-1.7-.3-1.9-1.2-.6zM412 669.6c.8.4 2.3 1.6 3.4 2.8l1.8 2.1-1.4-2.5c-.9-1.4-2.4-2.6-3.4-2.7-1.3-.2-1.4-.1-.4.3zM329.5 726c.3.5.8 1 1.1 1 .2 0 .4-.5.4-1 0-.6-.5-1-1.1-1-.5 0-.7.4-.4 1zM712.9 62.7c-1.3 1.6-1.2 1.7.4.4.9-.7 1.7-1.5 1.7-1.7 0-.8-.8-.3-2.1 1.3zM736.5 88c-.3.5-.1 1 .4 1 .6 0 1.1-.5 1.1-1 0-.6-.2-1-.4-1-.3 0-.8.4-1.1 1zM544.6 115.2c.3.5 1 .6 1.5.3 1.3-.9 1.1-1.2-.6-1.2-.8 0-1.2.4-.9.9zM415 122.1c0 .5.5.7 1 .4.6-.3 1-.8 1-1.1 0-.2-.4-.4-1-.4-.5 0-1 .5-1 1.1zM391.1 123.3c.2.1 1.3.9 2.4 1.7 1.9 1.4 1.9 1.4.6-.3-.7-.9-1.8-1.7-2.4-1.7-.6 0-.8.1-.6.3zM672.4 129.8c.3.5 0 1.3-.6 1.5-.9.4-1 .6-.1.6 1.7.1 2.5-1.6 1.2-2.5-.7-.4-.9-.3-.5.4zM667.5 135.1c-.4.6-.5 1.2-.2 1.5.2.3.7-.2 1-1.1.7-1.7.1-2-.8-.4zM301 143.9c0 .6.4 1.3 1 1.6.6.3.7-.1.4-.9-.7-1.8-1.4-2.1-1.4-.7zM314.6 146.2c.3.5 1 .6 1.5.3 1.3-.9 1.1-1.2-.6-1.2-.8 0-1.2.4-.9.9zM795 234.1c0 .5.5.7 1 .4.6-.3 1-.8 1-1.1 0-.2-.4-.4-1-.4-.5 0-1 .5-1 1.1zM179.5 278c-.3.5-.1 1 .4 1 .6 0 1.1-.5 1.1-1 0-.6-.2-1-.4-1-.3 0-.8.4-1.1 1zM127.5 392c-.3.5-.1 1 .4 1 .6 0 1.1-.5 1.1-1 0-.6-.2-1-.4-1-.3 0-.8.4-1.1 1zM914.7 511c.8 3.1 2.3 3.5 2.1.6-.1-1.5-.8-2.6-1.4-2.6-.7 0-1 .8-.7 2zM909 546.1c0 .5.5.7 1 .4.6-.3 1-.8 1-1.1 0-.2-.4-.4-1-.4-.5 0-1 .5-1 1.1zM187.6 674.9c1 1 2.1 1.7 2.3 1.5.6-.6-2-3.4-3.2-3.4-.6 0-.2.8.9 1.9zM226.8 726.7c.7.3 1.6.2 1.9-.1.4-.3-.2-.6-1.3-.5-1.1 0-1.4.3-.6.6zM807.9 731.7c-1.3 1.6-1.2 1.7.4.4 1.6-1.3 2.1-2.1 1.3-2.1-.2 0-1 .8-1.7 1.7zM804 738c-.9.6-1 1-.3 1 .6 0 1.5-.5 1.8-1 .8-1.2.4-1.2-1.5 0zM773.5 796c-.3.5-.1 1 .4 1 .6 0 1.1-.5 1.1-1 0-.6-.2-1-.4-1-.3 0-.8.4-1.1 1zM670.5 845.9c-.3.5-.2 1.2.3 1.5.5.3.9-.1.9-.9 0-1.7-.3-1.9-1.2-.6zM390.4 850.1c-.4.7-.3.9.4.5.5-.3 1.3 0 1.5.6.4.9.6 1 .6.1.1-1.7-1.6-2.5-2.5-1.2zM768.4 850.6c.6 1.4.4 1.5-.9.4-.9-.7-1.5-.9-1.4-.4.3 1.9-.1 3.5-.9 3-.4-.2-.8.4-.8 1.4 0 1.1.2 1.7.4 1.5.2-.2 1.4.7 2.7 2.1 2.2 2.3 5.3 3.4 4 1.4-.3-.6.1-.7.9-.4 1 .4 1.6.1 1.6-.7 0-.8.6-.5 1.6.7 1.5 1.8 1.5 1.8 1.1-.8-.2-1.5 0-2.5.4-2.2 1.6 1 .3-3.5-1.6-5.6-2.3-2.5-8-2.9-7.1-.4zm7 1.3c1.3 1.4 1.4 2.1.5 2.7-.8.4-1 .3-.5-.4.4-.7.3-1.2-.2-1.2-.6 0-1.2-.7-1.6-1.5-.7-2-.3-1.9 1.8.4zM396.6 852.3c.2.7 1.4 1.9 2.7 2.6 2.1 1.3 2.1 1.2-.2-1.3-2.7-2.9-3.3-3.2-2.5-1.3z"/><path d="M772.9 861.7c-1.3 1.6-1.2 1.7.4.4 1.6-1.3 2.1-2.1 1.3-2.1-.2 0-1 .8-1.7 1.7zM409 862c0 .5.5 1 1.1 1 .5 0 .7-.5.4-1-.3-.6-.8-1-1.1-1-.2 0-.4.4-.4 1zM610.7 865.1c.7.7 1.5 1 1.8.7.3-.3-.2-.9-1.2-1.2-1.4-.6-1.5-.5-.6.5zM245.7 876.7c-.4.3-.7 1.9-.7 3.5 0 1.7-.4 2.7-1 2.3-.5-.3-1 0-1 .9 0 .8-.6 1.7-1.2 1.9-.9.4-.9.8-.3 1.4 1.3 1 1.8 3.6.6 2.9-1.7-1.1-3.9.5-3.4 2.5.5 1.7 1.5 2.3 3.5 2 .4 0 .5.6.2 1.4-.4 1 0 1.5 1.2 1.5 1.6 0 1.7.2.4 1-.8.5-1 1-.4 1 1.6 0 3.5-2.5 2.6-3.5-.4-.5-.2-.5.5-.1s1 1.3.7 2.1c-.4.9.1 1.2 1.3 1.1 1-.2 1.7-1 1.7-1.8-.1-1 .5-1.4 1.5-1.1 1.2.3 1.6-.3 1.6-2.1s-.5-2.6-1.8-2.6c-1.4 0-1.6-.4-.8-1.8 1.1-2.1-.3-4.2-2.6-4.2-1.5 0-1.3-2.1.2-3.2.6-.5.5-.8-.4-.8-1 0-1.1-.3-.2-1.4.8-1 .8-1.6-.2-2.5-.8-.6-1.7-.8-2-.4zM547.7 884.7c-1 .9-.9 2.3.1 2.3.5 0 .9-.7.9-1.5 0-1.7-.1-1.8-1-.8zM444 891.4c0 .2.8 1 1.8 1.7 1.5 1.3 1.6 1.2.3-.4s-2.1-2.1-2.1-1.3zM614.6 899.3c.3 1 .9 1.5 1.2 1.2.3-.3 0-1.1-.7-1.8-1-.9-1.1-.8-.5.6zM616.6 934.2c-1.9 3.6-2 4.1-.6 3.3 1.7-1.1 1.1.7-.7 2.2-1 .7-1.3 1.2-.8 1.1.6-.2 1 .1 1 .7 0 .5-.3.9-.7.8-.3-.1-.4 1.1-.1 2.8.3 2.2.1 2.9-.7 2.4-.8-.5-.7 0 .1 1.3.7 1.2 1.6 1.9 1.9 1.7.3-.2.5 1.8.5 4.5 0 4.1-.2 4.7-1.5 3.7-1-.8-.9-.3.4 1.7 1.5 2.4 1.6 2.8.3 2.3-1.1-.4-1.4-.2-1 .8.3.8 1 1.2 1.7.8.6-.4 0 .7-1.4 2.4s-2.7 2.9-3 2.7c-.3-.1-.7.7-.7 1.9-.2 1.7 0 1.9.7.7.8-1.3 1-1.2 1 .2 0 1-.5 1.8-1.1 1.8-.6 0-.3.7.5 1.6 1.9 1.8 2 2.5.5 2.2-2.2-.5-1.6 2.8.9 4.6 1.6 1.2 2.3 1.4 1.8.5-.4-.8 0-.5.8.5 1.2 1.5 1.6 1.6 1.6.5 0-.8.3-1 .8-.4 1 1.4 3.2 1.7 3.2.4 0-.5.4-.8.9-.4.5.3 1.2.1 1.6-.5.3-.5.1-1-.6-1s-.5-.6.6-1.3c1.4-1.1 1.5-1.6.5-2.2-.9-.6-1.1-.4-.5.5.5.9.4 1.1-.4.6-.6-.4-.9-1.2-.5-1.7.3-.5.8-.7 1.2-.5.4.2 1.3-.2 2-1 1-1.1 1-1.4 0-1.4-.6 0-.3-.6.8-1.4 1.8-1.4 1.8-1.5.1-2.2-1.1-.4-1.6-1.3-1.2-2.2.4-1.2.3-1.3-1-.2s-1.4 1-.9-.5c.5-1.3.4-1.6-.4-1.1-.7.4-1.2.2-1.2-.3 0-.6.5-1.1 1-1.1.6 0 .5-.6-.2-1.4-.7-.8-1.7-1.1-2.2-.8-.5.3-.6 0-.2-.6.3-.6.2-1.3-.4-1.7-.7-.4-.7-1.2 0-2.4.5-1 .6-2.1.3-2.5-.4-.4-.6-2.2-.5-4.1.3-3.5-.1-3.8-4-3.8-1 0-1.4-.5-1.1-1.4.3-.8.9-1.1 1.2-.6.5.8 1.5.9 3.7.4.4 0 .1-.7-.5-1.4-.6-.8-.7-1.8-.3-2.2.4-.5.1-.5-.6-.1s-.9 1.3-.5 1.9c.5.8.2.8-.9 0-.8-.7-1.9-.9-2.3-.5-.5.4-.5.1-.1-.6s1.1-1 1.6-.7c.5.3 1.2 0 1.5-.6.4-.5 1.3-.8 2.1-.5 1 .4 1.1 0 .4-1.9-.6-1.6-.5-2.5.3-2.9.8-.3.8-.5.1-.5-.7-.1-1-1.5-.8-3.4.1-1.7 0-2.6-.3-2-.2.7-.9 1.3-1.4 1.3-.6 0-.7-.5-.4-1 .3-.6.4-1 .1-1-.2 0-1.2 1.4-2 3.2zM485.9 943.7c-1.2 1.6-1.2 1.7.2.6.9-.7 2-.9 2.4-.5.5.4.5.1.1-.6-.9-1.6-1.1-1.5-2.7.5z"/><path d="M614.6 955.3c.3 1 .9 1.5 1.2 1.2.3-.3 0-1.1-.7-1.8-1-.9-1.1-.8-.5.6zM613.3 965.5c0 .8.4 1.2.9.9.5-.3.6-1 .3-1.5-.9-1.3-1.2-1.1-1.2.6z"/></svg>