<?xml version="1.0" standalone="no"?>
<!DOCTYPE svg PUBLIC "-//W3C//DTD SVG 20010904//EN"
 "http://www.w3.org/TR/2001/REC-SVG-20010904/DTD/svg10.dtd">
<svg version="1.0" xmlns="http://www.w3.org/2000/svg"
 width="192.000000pt" height="192.000000pt" viewBox="0 0 192.000000 192.000000"
 preserveAspectRatio="xMidYMid meet">
<metadata>
Created by potrace 1.11, written by Peter Selinger 2001-2013
</metadata>
<g transform="translate(0.000000,192.000000) scale(0.100000,-0.100000)"
fill="#000000" stroke="none">
<path d="M0 960 l0 -960 960 0 960 0 0 960 0 960 -960 0 -960 0 0 -960z m1234
559 c17 -16 -2 -21 -41 -11 -22 6 -30 11 -18 12 l20 1 -20 10 c-15 7 -11 7 15
3 19 -3 39 -10 44 -15z m-735 -77 c-16 -68 -34 -68 -25 0 8 60 14 74 27 61 6
-6 5 -30 -2 -61z m510 34 c-2 -2 -15 -9 -29 -15 -24 -11 -24 -11 -6 3 16 13
49 24 35 12z m193 -40 c32 -7 69 -21 82 -30 23 -15 25 -21 21 -68 -3 -37 -12
-61 -33 -87 -15 -20 -32 -43 -37 -51 -8 -13 -7 -13 9 -1 15 13 14 9 -4 -27
-15 -29 -31 -44 -56 -52 -26 -9 -34 -17 -34 -35 0 -17 16 -33 66 -64 65 -41
65 -41 62 -83 l-3 -43 -223 -5 -224 -5 -24 51 c-33 70 -48 82 -74 59 -20 -18
-20 -17 -20 47 l0 66 75 17 c41 9 87 15 102 13 49 -5 101 77 66 104 -18 13
-24 50 -10 64 4 4 7 17 7 29 0 13 7 29 16 36 14 11 18 10 27 -6 7 -11 14 -28
17 -37 4 -15 7 -14 16 7 9 18 9 24 0 22 -15 -3 -20 47 -6 73 9 17 20 20 68 20
31 0 83 -6 114 -14z m-236 -22 c-3 -9 -6 -20 -6 -25 0 -6 -4 -8 -9 -5 -12 8
-2 46 11 46 6 0 7 -7 4 -16z m-297 -228 c-1 -17 -2 -16 -9 7 -5 16 -12 34 -17
41 -4 6 0 3 10 -7 9 -11 17 -29 16 -41z m-54 17 c-10 -3 -31 -12 -45 -20 l-25
-15 24 21 c13 12 33 20 45 20 19 -1 19 -2 1 -6z m750 -13 c10 -11 16 -20 13
-20 -3 0 -13 9 -23 20 -10 11 -16 20 -13 20 3 0 13 -9 23 -20z m-688 -247 c-2
-32 -3 -8 -3 52 0 61 1 87 3 58 2 -29 2 -78 0 -110z m-29 50 c0 -38 -3 -53 -5
-35 -3 24 -9 32 -24 32 -10 0 -19 3 -19 6 0 8 40 64 46 64 2 0 3 -30 2 -67z
m-253 -105 c-25 -40 -45 -76 -45 -81 0 -4 14 -7 31 -5 28 3 36 11 73 80 l41
78 44 0 44 0 -20 -22 c-12 -13 -47 -79 -78 -148 -82 -179 -86 -190 -77 -190
11 0 153 218 156 239 3 18 63 28 78 13 6 -6 7 -61 2 -141 l-7 -131 -39 0 c-37
0 -38 1 -32 28 11 45 10 47 -17 50 -20 2 -32 -4 -46 -25 -11 -15 -18 -34 -16
-40 4 -10 -20 -13 -97 -13 l-101 0 46 85 47 85 -35 0 c-33 0 -38 -5 -89 -85
l-53 -85 -65 0 -64 0 31 28 c35 30 233 306 241 335 3 13 15 17 48 17 l44 0
-45 -72z m1066 10 l34 -63 3 63 c3 61 3 62 32 62 24 0 29 -4 28 -22 -1 -13 -1
-48 0 -79 l2 -57 118 -93 c65 -52 129 -102 142 -111 25 -17 25 -17 -34 -17
-56 -1 -61 1 -125 52 -91 73 -93 74 -60 15 16 -29 29 -56 29 -60 0 -5 -25 -8
-56 -8 -42 0 -55 3 -51 13 3 7 -34 93 -82 190 l-86 177 36 0 c34 0 38 -4 70
-62z m-621 -73 c0 -33 -2 -34 -29 -29 l-28 6 -18 -94 c-24 -132 -22 -128 -56
-128 -25 0 -29 3 -24 23 3 12 12 54 20 92 9 39 18 79 22 89 5 17 1 18 -26 13
-30 -6 -31 -5 -25 21 10 42 11 42 90 42 l74 0 0 -35z m174 19 c3 -9 6 -24 6
-35 0 -15 -5 -17 -30 -12 l-30 6 0 -112 0 -111 -31 0 -32 0 7 111 7 112 -31
-7 c-27 -5 -31 -3 -26 10 3 9 6 24 6 35 0 17 8 19 74 19 58 0 75 -3 80 -16z
m147 -1 c8 -9 14 -39 15 -67 1 -28 8 -67 17 -86 9 -19 18 -47 22 -62 3 -16 12
-28 20 -28 8 0 13 6 10 13 -2 6 -15 58 -29 113 -14 56 -29 109 -32 118 -5 12
0 16 19 16 14 0 29 -5 32 -10 4 -6 24 -69 45 -140 l38 -130 -77 0 -78 0 -9 46
c-6 31 -17 52 -32 62 -22 15 -23 14 -18 -9 3 -13 8 -41 11 -61 l6 -38 -38 0
-38 0 -1 99 c-1 55 -4 118 -8 140 l-6 41 59 0 c42 0 62 -5 72 -17z m230 -12
c36 -36 37 -51 4 -51 -14 0 -25 5 -25 10 0 6 -9 10 -21 10 -11 0 -19 -4 -17
-8 2 -4 14 -38 27 -75 19 -51 29 -67 44 -67 14 0 18 5 14 20 -4 16 0 20 22 20
20 0 31 -7 39 -25 26 -57 9 -85 -54 -85 -64 0 -87 25 -123 133 -17 50 -31 99
-31 108 0 48 77 54 121 10z m-521 -121 c0 -16 -7 -20 -35 -20 -28 0 -35 4 -35
20 0 16 7 20 35 20 28 0 35 -4 35 -20z m-128 -258 c-22 -37 -39 -68 -38 -70 9
-9 37 17 81 76 28 37 59 69 69 70 17 4 18 -1 12 -57 -5 -40 -3 -61 4 -61 5 0
10 -7 10 -15 0 -8 -7 -15 -15 -15 -8 0 -19 -9 -25 -20 -12 -23 -30 -27 -30 -7
0 20 -55 9 -76 -14 -20 -22 -44 -25 -44 -5 0 9 -7 12 -19 9 -13 -3 -24 2 -33
16 -12 20 -13 20 -40 -6 -29 -28 -58 -26 -58 5 0 18 -3 17 -67 -4 -69 -24
-123 -31 -123 -16 0 4 21 19 48 32 l47 24 -40 6 c-32 4 -41 10 -43 27 -3 17 8
29 45 52 26 17 58 31 71 31 29 0 39 -27 18 -48 -14 -14 -18 -15 -25 -3 -7 11
-14 10 -37 -5 l-28 -19 57 -6 c31 -4 63 -12 71 -18 11 -9 16 -3 25 34 9 35 16
45 29 43 12 -3 16 -12 15 -33 l-2 -30 19 23 c20 24 40 28 56 12 8 -8 19 2 39
30 65 93 87 62 27 -38z m314 73 c4 -9 -14 -37 -46 -72 -28 -32 -63 -77 -78
-100 -26 -42 -49 -59 -61 -48 -3 4 9 35 28 70 l33 64 -21 30 c-12 16 -21 32
-21 35 0 13 25 5 45 -14 l22 -21 38 36 c43 39 53 42 61 20z m364 -14 c0 -5
-24 -17 -52 -26 -76 -25 -85 -39 -20 -32 32 4 74 18 106 36 45 26 55 29 71 18
14 -11 16 -17 6 -35 -13 -24 -27 -28 -33 -10 -3 9 -14 6 -37 -8 l-33 -21 62
-6 c107 -9 108 -44 4 -76 -113 -36 -152 -24 -66 19 l47 25 -39 3 c-28 2 -40 9
-43 23 -4 14 -11 18 -22 13 -9 -3 -35 -11 -58 -16 -59 -13 -54 -26 7 -20 30 3
50 1 50 -5 0 -14 -92 -53 -125 -53 -37 0 -48 35 -24 82 l19 36 -59 -23 c-97
-38 -100 -42 -42 -47 28 -3 54 -8 57 -11 14 -14 -11 -27 -54 -27 -26 0 -67 -5
-91 -11 -24 -5 -46 -7 -49 -4 -12 11 24 56 67 86 43 29 44 30 16 26 -16 -3
-41 -9 -55 -13 -24 -7 -25 -7 -9 17 27 40 183 74 211 45 9 -8 18 -12 22 -9 8
8 112 31 144 32 12 1 22 -3 22 -8z"/>
<path d="M1120 1432 c0 -5 18 -12 41 -16 66 -11 107 -32 112 -58 4 -22 4 -21
6 3 1 34 -13 45 -74 59 -28 6 -58 13 -67 16 -10 3 -18 1 -18 -4z"/>
<path d="M1056 1421 c-3 -4 6 -6 19 -3 14 2 25 6 25 8 0 8 -39 4 -44 -5z"/>
<path d="M1105 1390 c28 -12 57 -12 50 0 -3 6 -21 10 -38 9 -27 0 -29 -2 -12
-9z"/>
<path d="M1230 1370 c0 -6 7 -10 15 -10 8 0 15 2 15 4 0 2 -7 6 -15 10 -8 3
-15 1 -15 -4z"/>
<path d="M1100 1358 c14 -7 29 -17 33 -23 5 -6 7 -1 5 10 -2 14 -12 21 -33 22
l-30 3 25 -12z"/>
<path d="M1194 1337 c-3 -8 0 -26 5 -40 10 -25 7 -31 -11 -28 -18 3 -6 -17 13
-22 20 -5 21 -3 15 34 -5 30 -3 41 9 45 8 4 15 10 15 15 0 14 -40 10 -46 -4z"/>
<path d="M960 1315 c0 -8 4 -15 8 -15 5 0 9 7 9 15 0 8 -4 15 -9 15 -4 0 -8
-7 -8 -15z"/>
<path d="M1263 1283 c-3 -10 -8 -22 -10 -28 -3 -5 3 -1 11 9 16 20 21 36 11
36 -3 0 -8 -8 -12 -17z"/>
<path d="M1004 1158 c24 -37 80 -70 108 -65 20 4 19 4 -5 6 -17 0 -45 17 -74
44 -35 32 -42 36 -29 15z"/>
<path d="M1067 1139 c7 -7 15 -10 18 -7 3 3 -2 9 -12 12 -14 6 -15 5 -6 -5z"/>
<path d="M988 1064 c63 -82 169 -161 189 -140 4 3 -1 31 -11 62 -19 61 -30 61
-44 -1 l-10 -40 -78 80 c-43 44 -64 62 -46 39z"/>
<path d="M568 740 c-16 -29 -16 -30 2 -30 16 0 20 7 20 30 0 17 -1 30 -2 30
-2 0 -11 -14 -20 -30z"/>
<path d="M1090 772 c0 -34 7 -43 26 -35 8 3 14 18 14 34 0 22 -5 29 -20 29
-15 0 -20 -7 -20 -28z"/>
<path d="M800 421 c-7 -15 -7 -21 0 -21 12 0 25 28 17 36 -3 3 -10 -4 -17 -15z"/>
</g>
</svg>
