<?xml version="1.0" standalone="no"?>
<!DOCTYPE svg PUBLIC "-//W3C//DTD SVG 20010904//EN"
 "http://www.w3.org/TR/2001/REC-SVG-20010904/DTD/svg10.dtd">
<svg version="1.0" xmlns="http://www.w3.org/2000/svg"
 width="103.000000pt" height="103.000000pt" viewBox="0 0 103.000000 103.000000"
 preserveAspectRatio="xMidYMid meet">
<metadata>
Created by potrace 1.14, written by Peter Selinger 2001-2017
</metadata>
<g transform="translate(0.000000,103.000000) scale(0.100000,-0.100000)"
fill="#000000" stroke="none">
<path d="M497 993 c-1 -1 -24 -3 -50 -4 -26 -2 -52 -8 -58 -15 -7 -8 -19 -10
-40 -4 -24 7 -32 5 -46 -14 -14 -18 -22 -21 -38 -14 -26 12 -95 -16 -95 -38 0
-8 7 -29 16 -45 8 -17 17 -40 19 -51 6 -30 10 -32 47 -19 l33 12 -35 -35 c-29
-29 -48 -38 -113 -51 -130 -27 -129 -26 -69 -67 l53 -35 -36 -17 c-36 -17 -47
-36 -20 -36 9 0 15 -9 15 -25 0 -25 1 -25 29 -11 l28 15 5 -87 c4 -53 12 -101
23 -124 l18 -37 -31 -36 c-18 -20 -33 -42 -33 -50 -1 -8 -2 -25 -3 -37 -3 -33
31 -92 65 -112 41 -24 110 -23 153 3 19 12 36 27 38 33 3 9 15 9 49 -1 63 -20
174 -20 239 -1 70 21 125 56 187 117 26 27 74 64 106 82 31 18 57 36 57 39 0
4 -18 6 -40 4 -45 -5 -46 -3 -26 71 7 27 11 72 8 100 -5 70 -5 78 3 104 6 18
2 25 -18 34 -14 6 -31 25 -38 41 -6 16 -31 50 -55 75 -24 25 -44 47 -44 48 0
2 17 -3 38 -10 33 -12 39 -11 58 7 19 17 26 34 40 100 5 25 -68 50 -82 27 -5
-8 -12 -5 -23 10 -20 26 -78 41 -171 47 -36 2 -87 5 -113 7 -26 1 -49 2 -50 0z"/>
</g>
</svg>
